<svg id="Layer_1" data-name="Layer 1" xmlns="http://www.w3.org/2000/svg" viewBox="0 0 348.92 463.62"><path d="M184.74,4.77a44.34,44.34,0,0,1,18.11,18.66,48.22,48.22,0,0,1,4.46,11.27,46.94,46.94,0,0,1,1.07,8.84c.66,14.63-1.13,29.42-2.92,43.91a168.83,168.83,0,0,1-4.92,25.5,140.46,140.46,0,0,1-8.88,23.13c-7.56,15.53-17.43,29.82-26.63,44.4-10.39,16.46-20.45,33.54-35.57,46.2-1.83,1.53-3.72,3-5.67,4.32l2.19.89a70.89,70.89,0,0,0-4.85-16.76c-1.85-4.34-4.07-8.53-5.73-13-5.39-14.42-4.81-30-5.11-45.18-.17-8.93-.3-17.86,0-26.78.29-8.19.85-16.45,3.14-24.36,5.52-19.11,18.71-34.68,28.77-51.48s17.42-38.25,36.23-47.48a34.08,34.08,0,0,1,6.42-2.36,1.49,1.49,0,0,0-.79-2.88C163.45,7,153.46,27.59,144.21,44.75c-4.87,9-10.55,17.54-16.18,26.11-5.5,8.39-10.84,16.94-14.67,26.24a81.44,81.44,0,0,0-5.64,25.44c-.66,9-.65,18.1-.53,27.14.11,8.59.12,17.21.5,25.79a97.35,97.35,0,0,0,3.38,23.15,102.88,102.88,0,0,0,5.77,14.21,74.19,74.19,0,0,1,5.28,14.78c.39,1.68.71,3.38,1,5.08a1.51,1.51,0,0,0,2.2.89c16.41-11.43,27.78-28.23,38.17-45,9.57-15.43,20.06-30.4,28.49-46.51a151.32,151.32,0,0,0,9.84-23,153.84,153.84,0,0,0,6.13-27.49c1.95-14.6,3.67-29.44,3.53-44.2a77.92,77.92,0,0,0-.67-10.24,41.33,41.33,0,0,0-2.92-10,51.25,51.25,0,0,0-16-21.38,40.38,40.38,0,0,0-5.6-3.55c-1.7-.89-3.21,1.68-1.5,2.58Z" transform="translate(74.92 193.77)" style="fill:#e9e0de"/><path d="M180.59,3.7A380.27,380.27,0,0,1,166,96.43c-8.24,28.62-19.51,56.24-28.46,84.64a330,330,0,0,0-11.83,48.49c-.29,1.88,2.59,2.69,2.88.8,4.59-29.57,14.66-57.85,24.63-85.94,5-14.18,10.05-28.37,14.36-42.78a388.15,388.15,0,0,0,10.66-45.16A386.1,386.1,0,0,0,183.57,3.7c.07-1.92-2.92-1.92-3,0Z" transform="translate(74.92 193.77)" style="fill:#e9e0de"/><path d="M190.14,7.76c6.92,3.9,14,8.44,18.58,15.05,4.24,6.05,6.07,13.28,7.35,20.46,1.83,10.34,2.89,20.83,4.17,31.25q2.12,17.16,4.24,34.32c2.81,22.46,5.71,44.92,9.4,67.26,1.55,9.35,3.23,18.68,5.28,27.94a161.17,161.17,0,0,0,5.73,20.71,84.69,84.69,0,0,0,4.55,9.93q4.34,8.35,9.24,16.41a199.3,199.3,0,0,0,11.59,17.22c.26.35.52.69.79,1,1.19,1.5,3.29-.62,2.11-2.11a1.56,1.56,0,0,0-.16-.2c-.22-.3.21.27,0,0s-.19-.26-.29-.38c-.6-.8-1.19-1.6-1.78-2.41-2.15-3-4.22-6-6.21-9.12q-4.55-7-8.62-14.36a144.17,144.17,0,0,1-7.28-14.08,119.88,119.88,0,0,1-5.74-18.87C241,199,239.29,190,237.74,181.07c-3.83-22.1-6.75-44.34-9.57-66.58q-2.19-17.37-4.3-34.75c-1.33-10.81-2.53-21.64-4.14-32.42-1.15-7.7-2.58-15.61-6.3-22.55-3.58-6.68-9.3-11.72-15.57-15.83-2-1.33-4.11-2.57-6.21-3.76-1.68-.94-3.18,1.64-1.51,2.58Z" transform="translate(74.92 193.77)" style="fill:#e9e0de"/><path d="M181.94,1.47Q143.32-17,105.29-36.74T30-78a68.35,68.35,0,0,1-8.76-5.83,104.38,104.38,0,0,1-8-7.2,245.87,245.87,0,0,1-17-19.06C-15.92-125-27.19-140.69-38.88-156c-5.3-6.94-10.66-13.84-16.35-20.47a116,116,0,0,0-14.3-14.6c-1-.85-2.11-1.67-3.22-2.44-1.58-1.09-3.08,1.49-1.51,2.58,5.07,3.52,9.46,8.18,13.59,12.77,5.6,6.24,10.83,12.8,16,19.43,11.8,15.23,23,30.89,35.05,46,5.5,6.9,11.15,13.71,17.21,20.12a98.86,98.86,0,0,0,16,14.18c4.64,3.15,9.69,5.75,14.56,8.53q9.28,5.3,18.65,10.5Q75.58-49,94.63-39,132.51-19,171.12-.43l9.31,4.48c1.73.83,3.25-1.75,1.51-2.58Z" transform="translate(74.92 193.77)" style="fill:#e9e0de"/><path d="M211.21,7.73c-.71-1.65-2.78-2.9-4.17-3.87-2.85-2-5.88-3.74-8.9-5.46-9.82-5.58-19.92-10.68-30-15.77-13.47-6.79-27-13.45-40.54-20.12-14.81-7.3-29.62-14.6-44.36-22C69.82-66.27,56.19-73,44-81.77,38-86,32-90.94,28.93-97.62a6.15,6.15,0,0,1-.25-.61c-.11-.3-.22-.6-.32-.9-.19-.56-.35-1.13-.49-1.71s-.23-1.13-.32-1.7c0-.29,0-.12,0-.12s0-.27,0-.41c0-.29-.06-.58-.08-.87a45.71,45.71,0,0,1,.17-6.82c.57-7.11.44-14.22.44-21.35v-60.11a1.49,1.49,0,0,0-3,0v68.15c0,3.32.06,6.65-.18,10-.33,4.71-1,9.45.15,14.11,1.49,6.26,5.91,11.32,10.63,15.45,9.75,8.55,21.48,14.9,32.9,20.89,14.75,7.72,29.73,15,44.66,22.39,14.17,7,28.35,14,42.49,21,11.36,5.66,22.71,11.34,33.88,17.35,3.9,2.1,7.78,4.23,11.56,6.53,1.36.82,2.7,1.66,4,2.55.52.35,1,.72,1.52,1.09.22.16-.16-.13.1.08l.3.23c.18.16.37.31.55.48s.54.51.79.78-.17-.28.06.09a2.11,2.11,0,0,1,.18.33c.76,1.76,3.33.24,2.58-1.51Z" transform="translate(74.92 193.77)" style="fill:#e9e0de"/><path d="M205.22,3.11a252,252,0,0,0-7.17-46.35c-1.91-7.5-4.18-14.91-6.75-22.21q-2-5.64-4.18-11.2a57.88,57.88,0,0,0-4.05-8.84,11.39,11.39,0,0,1-1.83-4.3c-.2-1.53.35-3.84,2-4.33.81-.23,1.14.29,1.6.92a6.92,6.92,0,0,0,2.38,2.4c.92.43,2.37-.06,2.25-1.29-1.24-12.81-3.06-25.57-5-38.29q-3.23-21.12-7.07-42.14c-1.22-6.71-2.49-13.41-3.85-20.09-.38-1.89-3.26-1.09-2.88.79,2.55,12.55,4.83,25.16,7,37.79,2.37,13.91,4.57,27.86,6.46,41.85.91,6.68,1.74,13.38,2.39,20.09l2.24-1.29a4.94,4.94,0,0,1-1.61-1.75,4.78,4.78,0,0,0-2.54-2c-3.47-.9-6,2.72-6.32,5.72s1.27,5.83,2.82,8.37c2,3.21,3.12,7,4.46,10.53a259.66,259.66,0,0,1,13.33,47.21,254.73,254.73,0,0,1,3.34,28.36c.12,1.9,3.11,1.92,3,0Z" transform="translate(74.92 193.77)" style="fill:#e9e0de"/><path d="M185.38-192.22c3.29,25.11,7.44,50.11,10.85,75.2,1.83,13.43,3.05,26.93,4.87,40.36,2.5,18.4,5.79,36.69,9.43,54.9q4.64,23.15,10.53,46C225.19,40.11,229.51,56,233.29,72c3.51,14.86,6.73,29.9,8.11,45.13,1.5,16.57,3.7,32.94,7.7,49.11a234.11,234.11,0,0,0,11.48,34.91,110.25,110.25,0,0,0,9.42,18.5c.48.71,1,1.4,1.52,2.06,1.23,1.48,3.33-.64,2.11-2.11-.29-.35-.76-1-1.23-1.73-.67-1-1.29-2.05-1.89-3.1-1.78-3.09-3.38-6.28-4.88-9.52a213.73,213.73,0,0,1-11.45-31.51,278.05,278.05,0,0,1-8.93-47c-.79-7.56-1.33-15.11-2.47-22.63s-2.65-15.19-4.29-22.73C231.8,50.71,222.39,20.71,216-10c-3.75-18-7.22-36-10-54.11-2.3-14.76-3.71-29.6-5.59-44.41-3.27-25.67-7.43-51.21-11-76.84q-.48-3.42-.93-6.85c-.25-1.88-3.24-1.9-3,0Z" transform="translate(74.92 193.77)" style="fill:#e9e0de"/><path d="M80.19-53.28A504.86,504.86,0,0,1,64.55,25.27,516,516,0,0,1,36.94,100.2c-4.62,10.08-9.53,20-14.13,30.11-7.28,16-14.25,32.08-20.64,48.42S-10.49,212-14.25,229.36c-.37,1.73-.71,3.46-1,5.21s2.55,2.68,2.88.79c3-16.94,8.9-33.41,15-49.44C9,169.09,16,152.52,23.44,136.11c4.08-9,8.31-18,12.59-27A523.61,523.61,0,0,0,64.9,34.71a507.26,507.26,0,0,0,17-78.12q.66-4.94,1.25-9.87c.22-1.91-2.77-1.89-3,0Z" transform="translate(74.92 193.77)" style="fill:#e9e0de"/><path d="M80.31-44A42.83,42.83,0,0,0,56.8-35.73c-2.43,1.81-4.23,4.06-6.59,5.87s-4.5,3.49-6.72,5.27q-12,9.69-23.24,20.34A214.57,214.57,0,0,0-5,23.82C-12.84,34.56-18.2,46.69-22.89,59.1c-4.85,12.84-8.81,26-12.48,39.23-2.31,8.32-4.13,16.94-7.2,25a47.62,47.62,0,0,0-2.3,10,150.94,150.94,0,0,0-1.44,15.16c-.54,11.5-.2,23.33,2.36,34.6a45.52,45.52,0,0,0,5.09,13.49A212.71,212.71,0,0,1-28.8,216c2.52,5.36,4.89,10.88,8,15.94,1.57,2.55,4.27,6.85,7.88,6,1.28-.31,2.54-.9,3.79-1.31,2.09-.69,4.19-1.36,6.28-2,5.57-1.82,11.11-3.7,16.58-5.78a149.65,149.65,0,0,0,17.89-8A123,123,0,0,0,48,209.64a132.92,132.92,0,0,0,17.07-15.26c4.36-4.75,8.42-10.1,10.56-16.26.81-2.34,1.31-4.77,2.14-7.12.92-2.55,2-5.05,3.09-7.52,2.64-5.86,5.58-11.58,8.53-17.29,5.15-10,10.32-19.83,14.11-30.41,4-11.27,8.15-22.53,11.4-34a117.79,117.79,0,0,0,3.66-16.59c.72-5.53.08-10.91-.73-16.41-1.18-8-2.78-15.91-3.93-23.91-.63-4.37-1.13-8.76-1.41-13.16a65.63,65.63,0,0,0-1-9.38c-2.72-12.93-9.92-25.12-18.06-35.37A67.44,67.44,0,0,0,81.93-44.78c-1.52-1.17-3,1.42-1.5,2.58A66.4,66.4,0,0,1,92.07-30,104.37,104.37,0,0,1,102.63-13.3a64.85,64.85,0,0,1,6.31,18c.6,3.52.57,7.13.89,10.68.37,4.1.91,8.19,1.53,12.27,1.16,7.6,2.67,15.15,3.76,22.77a52.59,52.59,0,0,1,.35,15.69c-1.81,11.72-5.76,23.16-9.63,34.33-3.33,9.59-6.51,19.3-10.94,28.44-5.47,11.27-11.69,22.16-16.8,33.6C77,164.92,76,167.4,75,169.92c-.8,2.22-1.32,4.5-2,6.74C71.09,182.73,67,188,62.7,192.6a132.45,132.45,0,0,1-16.9,15,118.5,118.5,0,0,1-16,10.82c-10.67,5.7-22.24,9.62-33.71,13.35-3.26,1.06-6.5,2.26-9.78,3.26.18-.06-.3,0-.25,0a1,1,0,0,1-.57-.23A6,6,0,0,1-16,233.53a27.37,27.37,0,0,1-3.41-5.17c-3.05-5.5-5.55-11.29-8.25-17-1.52-3.18-3.07-6.34-4.72-9.45-1.48-2.78-3.18-5.43-4.67-8.2a47.84,47.84,0,0,1-4.48-13.66,110.72,110.72,0,0,1-1.84-17,149,149,0,0,1,1.73-30.93,51.65,51.65,0,0,1,2.32-8.91c1.2-3.32,2.1-6.76,3-10.16C-29.4,88-22.8,62.49-11,39.18-5.64,28.52,2,19.1,10.05,10.36A307.73,307.73,0,0,1,35.46-14q5-4.32,10.14-8.47c2.11-1.7,4.27-3.4,6.2-4.87,2.32-1.77,4.16-4,6.5-5.8a40.36,40.36,0,0,1,15-6.83,35.16,35.16,0,0,1,7-1.05c1.92-.06,1.93-3,0-3Z" transform="translate(74.92 193.77)" style="fill:#e9e0de"/><path d="M75.84-7.61a115.63,115.63,0,0,1,17.61,18A158.55,158.55,0,0,1,108.33,32.5,120.11,120.11,0,0,1,114.45,45a1.55,1.55,0,0,0,1.84,1,1.51,1.51,0,0,0,1-1.84A149,149,0,0,0,88.38,0,103.1,103.1,0,0,0,78-9.73c-1.48-1.19-3.61.91-2.11,2.12Z" transform="translate(74.92 193.77)" style="fill:#e9e0de"/><path d="M62.28,39.86A128.54,128.54,0,0,1,96.83,91.21a129.47,129.47,0,0,1,4.9,17.15c.4,1.88,3.28,1.09,2.88-.79A131.65,131.65,0,0,0,76.9,50.75a129.06,129.06,0,0,0-12.51-13c-1.42-1.28-3.54.82-2.11,2.11Z" transform="translate(74.92 193.77)" style="fill:#e9e0de"/><path d="M49.39,78.94a173.2,173.2,0,0,1,28.08,55.18,175.15,175.15,0,0,1,4.18,17.2c.36,1.88,3.24,1.09,2.88-.79A175.47,175.47,0,0,0,62,92.05,168.93,168.93,0,0,0,52,77.44c-1.15-1.51-3.74,0-2.58,1.5Z" transform="translate(74.92 193.77)" style="fill:#e9e0de"/><path d="M29.73,118.29a169.27,169.27,0,0,1,11.87,72A166.34,166.34,0,0,1,39.15,211c-.35,1.88,2.53,2.69,2.88.8a172,172,0,0,0-2.75-74.09,169.77,169.77,0,0,0-6.67-20.23c-.71-1.76-3.6-1-2.88.8Z" transform="translate(74.92 193.77)" style="fill:#e9e0de"/><path d="M7.28,167.49a112.54,112.54,0,0,1,7.25,45.3A110.76,110.76,0,0,1,13.1,226c-.32,1.88,2.55,2.68,2.88.79a115.54,115.54,0,0,0-1.77-47.27,113.3,113.3,0,0,0-4.05-12.85c-.68-1.77-3.56-1-2.88.8Z" transform="translate(74.92 193.77)" style="fill:#e9e0de"/><path d="M74.64-10.17a83.77,83.77,0,0,0-53.9,6.26C19-3.08,20.52-.5,22.25-1.33a80.37,80.37,0,0,1,51.59-6c1.88.41,2.68-2.47.8-2.88Z" transform="translate(74.92 193.77)" style="fill:#e9e0de"/><path d="M62.47,37.29A156.09,156.09,0,0,0-21.17,56.81c-1.68.94-.17,3.52,1.51,2.58A152.46,152.46,0,0,1,62.47,40.28c1.92.1,1.91-2.89,0-3Z" transform="translate(74.92 193.77)" style="fill:#e9e0de"/><path d="M48.4,77.27a161,161,0,0,0-65.67,9.88,163.48,163.48,0,0,0-17.19,7.6c-1.71.88-.2,3.45,1.51,2.58A157.49,157.49,0,0,1,48.4,80.25c1.92.11,1.91-2.87,0-3Z" transform="translate(74.92 193.77)" style="fill:#e9e0de"/><path d="M30.66,116.57a129.13,129.13,0,0,0-59.59,11.19A126.39,126.39,0,0,0-44.24,136c-1.62,1-.13,3.61,1.51,2.58a125.87,125.87,0,0,1,56.45-18.76,126,126,0,0,1,16.94-.22c1.92.1,1.91-2.88,0-3Z" transform="translate(74.92 193.77)" style="fill:#e9e0de"/><path d="M7.25,163.49a90.9,90.9,0,0,0-50.46,13c-1.64,1-.14,3.58,1.51,2.58a87.93,87.93,0,0,1,49-12.59c1.92.08,1.91-2.91,0-3Z" transform="translate(74.92 193.77)" style="fill:#e9e0de"/><path d="M179.32,34.6a58.87,58.87,0,0,0-33.89,10.48c-1.56,1.09-.07,3.68,1.51,2.57a56,56,0,0,1,32.38-10.06,1.5,1.5,0,0,0,0-3Z" transform="translate(74.92 193.77)" style="fill:#e9e0de"/><path d="M180.39,38.08A59.13,59.13,0,0,1,206.33,73a1.5,1.5,0,0,0,2.88-.8A62.25,62.25,0,0,0,181.9,35.5c-1.64-1-3.14,1.57-1.51,2.58Z" transform="translate(74.92 193.77)" style="fill:#e9e0de"/><path d="M171.67,71.6a100.79,100.79,0,0,0-52.52,13.55,1.49,1.49,0,0,0,1.5,2.58,97.87,97.87,0,0,1,51-13.14c1.93,0,1.93-3,0-3Z" transform="translate(74.92 193.77)" style="fill:#e9e0de"/><path d="M173.83,75.78a74,74,0,0,1,24,41.5c.37,1.88,3.25,1.08,2.88-.8A76.65,76.65,0,0,0,176,73.67c-1.45-1.26-3.57.85-2.12,2.11Z" transform="translate(74.92 193.77)" style="fill:#e9e0de"/><path d="M163.27,112.51a102.94,102.94,0,0,1,14.34,45.34c.14,1.91,3.13,1.92,3,0A106,106,0,0,0,165.84,111a1.49,1.49,0,0,0-2.57,1.5Z" transform="translate(74.92 193.77)" style="fill:#e9e0de"/><path d="M162.7,109a101.24,101.24,0,0,0-42.79,12.59,99.53,99.53,0,0,0-10.79,7c-1.53,1.14,0,3.73,1.51,2.58a98.34,98.34,0,0,1,39.71-17.59A95.19,95.19,0,0,1,162.7,112c1.91-.12,1.92-3.1,0-3Z" transform="translate(74.92 193.77)" style="fill:#e9e0de"/><path d="M150.58,143.89a100.07,100.07,0,0,0-42.18,19.89c-1.5,1.2.63,3.3,2.11,2.11a97.06,97.06,0,0,1,40.87-19.13c1.88-.38,1.08-3.26-.8-2.87Z" transform="translate(74.92 193.77)" style="fill:#e9e0de"/><path d="M151,149a232.56,232.56,0,0,1,9.08,38.34c.28,1.89,3.15,1.09,2.87-.8a231.17,231.17,0,0,0-9.07-38.33c-.6-1.82-3.48-1-2.88.79Z" transform="translate(74.92 193.77)" style="fill:#e9e0de"/><path d="M138.12,186.12a76.45,76.45,0,0,1,7.15,23,1.51,1.51,0,0,0,1.84,1,1.53,1.53,0,0,0,1-1.83,78.83,78.83,0,0,0-7.46-23.77c-.85-1.72-3.43-.21-2.57,1.51Z" transform="translate(74.92 193.77)" style="fill:#e9e0de"/><path d="M138,183.72a57.15,57.15,0,0,0-24.94,11.41c-1.51,1.19.62,3.29,2.11,2.11a54.17,54.17,0,0,1,23.63-10.64c1.88-.36,1.09-3.23-.8-2.88Z" transform="translate(74.92 193.77)" style="fill:#e9e0de"/><path d="M-58.38-191.16c11.08,10.69,20.11,23.44,29.07,35.9,9.46,13.14,18.63,26.57,29.1,38.94a103.65,103.65,0,0,0,15.85,15.7c.95.73,2.21-.28,2.25-1.29.77-23.43.92-46.88,1.42-70.31q.21-9.63.51-19.26c.06-1.92-2.92-1.92-3,0-.77,23.43-.92,46.88-1.42,70.31q-.21,9.63-.51,19.26l2.25-1.29A94.57,94.57,0,0,1,3.41-116.67c-5.08-5.85-9.78-12-14.38-18.23-9.82-13.31-19.11-27-29.28-40.08a173,173,0,0,0-16-18.29c-1.39-1.34-3.5.77-2.11,2.11Z" transform="translate(74.92 193.77)" style="fill:#e9e0de"/></svg>