<svg id="Layer_1" data-name="Layer 1" xmlns="http://www.w3.org/2000/svg" viewBox="0 0 16.12 12.39"><path d="M99.38,32.55h14.54a.29.29,0,0,1,.29.28v8a.28.28,0,0,1-.29.28h-5a.29.29,0,0,0-.27.4l.86,2.06a.27.27,0,0,1-.29.39,6.94,6.94,0,0,1-4.28-2.74.29.29,0,0,0-.21-.11H99.38a.28.28,0,0,1-.29-.28v-8A.29.29,0,0,1,99.38,32.55Z" transform="translate(-98.59 -32.05)" style="fill:none;stroke:#a82b2e;stroke-miterlimit:10"/><line x1="3.83" y1="3.46" x2="12.29" y2="3.46" style="fill:none;stroke:#a82b2e;stroke-miterlimit:10"/><line x1="3.83" y1="5.87" x2="12.29" y2="5.87" style="fill:none;stroke:#a82b2e;stroke-miterlimit:10"/></svg>