<svg id="Layer_1" data-name="Layer 1" xmlns="http://www.w3.org/2000/svg" viewBox="0 0 117.48 200"><path d="M1.28,79.25A1.28,1.28,0,0,1,0,78V58.66A58.76,58.76,0,0,1,55.18,0,1.29,1.29,0,0,1,56.53,1.3V78a1.28,1.28,0,0,1-1.28,1.28Zm60.59,0H116.2A1.28,1.28,0,0,0,117.48,78V58.66A58.74,58.74,0,0,0,61.93,0a1.28,1.28,0,0,0-1.34,1.28V78A1.28,1.28,0,0,0,61.87,79.25Zm-6.62,4.07h-54A1.28,1.28,0,0,0,0,84.6v68.65a1.28,1.28,0,0,0,1.28,1.28h54a1.29,1.29,0,0,0,1.28-1.28V84.6A1.29,1.29,0,0,0,55.25,83.32Zm5.34,1.28v68.65a1.29,1.29,0,0,0,1.28,1.28H116.2a1.28,1.28,0,0,0,1.28-1.28V84.6a1.28,1.28,0,0,0-1.28-1.28H61.87A1.29,1.29,0,0,0,60.59,84.6Z" transform="translate(0 0)" style="fill:#5a4339"/><path d="M1.35,172.78A.82.82,0,0,1,1,173l-.57.13a.5.5,0,0,0-.41.51.43.43,0,0,0,.15.34.71.71,0,0,0,.45.13H5.41a.75.75,0,0,0,.47-.13.46.46,0,0,0,.14-.34.5.5,0,0,0-.42-.51L5.05,173a.81.81,0,0,1-.38-.21.48.48,0,0,1-.13-.36v-4.36h5.75v4.36a.48.48,0,0,1-.13.36.86.86,0,0,1-.38.21l-.55.13a.51.51,0,0,0-.43.51A.43.43,0,0,0,9,174a.75.75,0,0,0,.47.13h4.81a.72.72,0,0,0,.46-.13.46.46,0,0,0,.14-.34.5.5,0,0,0-.42-.51l-.56-.13a.88.88,0,0,1-.37-.21.52.52,0,0,1-.12-.36V161.93a.55.55,0,0,1,.12-.37.88.88,0,0,1,.37-.21l.56-.12a.52.52,0,0,0,.42-.52.44.44,0,0,0-.14-.34.72.72,0,0,0-.46-.12H9.42a.76.76,0,0,0-.47.12.42.42,0,0,0-.15.34.53.53,0,0,0,.43.52l.55.12a.86.86,0,0,1,.38.21.51.51,0,0,1,.13.37V167H4.54v-5.07a.51.51,0,0,1,.13-.37.81.81,0,0,1,.38-.21l.55-.12a.52.52,0,0,0,.42-.52.44.44,0,0,0-.14-.34.76.76,0,0,0-.47-.12H.6a.71.71,0,0,0-.45.12.42.42,0,0,0-.15.34.52.52,0,0,0,.41.52l.57.12a.82.82,0,0,1,.37.21.55.55,0,0,1,.12.37v10.49A.52.52,0,0,1,1.35,172.78Z" transform="translate(0 0)" style="fill:#5a4339"/><path d="M28.67,173.93a6.47,6.47,0,0,0,2.24-1.51,6.85,6.85,0,0,0,1.44-2.29,8.08,8.08,0,0,0,.49-2.87,8.36,8.36,0,0,0-.5-3A7,7,0,0,0,30.9,162a6.44,6.44,0,0,0-2.25-1.52,7.71,7.71,0,0,0-2.95-.54,7.46,7.46,0,0,0-2.9.54,6.43,6.43,0,0,0-2.23,1.51,6.77,6.77,0,0,0-1.43,2.29,8.07,8.07,0,0,0-.49,2.86,8.41,8.41,0,0,0,.5,3,6.63,6.63,0,0,0,1.44,2.33,6.31,6.31,0,0,0,2.25,1.52,8.14,8.14,0,0,0,5.83,0Zm-4.91-2.09a8,8,0,0,1-1-1.76,10.89,10.89,0,0,1-.67-2.22,12.1,12.1,0,0,1-.25-2.52,6.36,6.36,0,0,1,.4-2.36,3.32,3.32,0,0,1,1.12-1.51,2.87,2.87,0,0,1,3.13-.11,4.78,4.78,0,0,1,1.27,1.17,8.05,8.05,0,0,1,1,1.76,11.9,11.9,0,0,1,.68,2.21,12.9,12.9,0,0,1,.24,2.52,6.47,6.47,0,0,1-.4,2.38,3.34,3.34,0,0,1-1.13,1.51,2.82,2.82,0,0,1-1.71.52A2.66,2.66,0,0,1,25,173,4.78,4.78,0,0,1,23.76,171.84Z" transform="translate(0 0)" style="fill:#5a4339"/><path d="M48.08,172.37a4,4,0,0,0,.55-2.21c0-.35,0-.69,0-1s0-.65-.07-1l-.36-5.77a1.08,1.08,0,0,1,.13-.67,1,1,0,0,1,.66-.39l.44-.08a1.08,1.08,0,0,0,.43-.21.42.42,0,0,0,.13-.33.4.4,0,0,0-.15-.33.66.66,0,0,0-.44-.13H45.79a.65.65,0,0,0-.43.13.4.4,0,0,0-.15.33.49.49,0,0,0,.12.34.9.9,0,0,0,.43.2l.46.09a1,1,0,0,1,.58.33,1.16,1.16,0,0,1,.21.65l.36,5.85c0,.26,0,.54,0,.84s0,.68,0,1.14a3.21,3.21,0,0,1-.39,1.68,2.72,2.72,0,0,1-1.19,1.08,4.27,4.27,0,0,1-1.87.38,3.32,3.32,0,0,1-2.38-.81,3.25,3.25,0,0,1-.84-2.52q0-.44,0-1c0-.38,0-.79.06-1.24l.32-5.76a.71.71,0,0,1,.16-.43.75.75,0,0,1,.42-.2l.5-.09a1,1,0,0,0,.44-.2.49.49,0,0,0,.13-.33.4.4,0,0,0-.16-.34.64.64,0,0,0-.44-.13H37a.64.64,0,0,0-.44.13.42.42,0,0,0-.15.34c0,.27.18.45.55.53l.49.09a.93.93,0,0,1,.5.22.52.52,0,0,1,.13.43l-.33,5.74c0,.38-.05.73-.06,1s0,.6,0,.83,0,.43,0,.58a3.91,3.91,0,0,0,.61,2.26,4,4,0,0,0,1.89,1.49,8.23,8.23,0,0,0,3.15.52,6.93,6.93,0,0,0,3-.56A4,4,0,0,0,48.08,172.37Z" transform="translate(0 0)" style="fill:#5a4339"/><path d="M55.15,167.5a9.53,9.53,0,0,0,2.41,1.13,11.61,11.61,0,0,1,2.2.9,2.71,2.71,0,0,1,1,.89,2,2,0,0,1,.25,1,1.77,1.77,0,0,1-.58,1.39,2.26,2.26,0,0,1-1.59.52,3.93,3.93,0,0,1-1.42-.27,4.09,4.09,0,0,1-1.33-.92,6.76,6.76,0,0,1-1.18-1.74.74.74,0,0,0-.32-.35.47.47,0,0,0-.42,0,.56.56,0,0,0-.32.23.53.53,0,0,0,0,.38l.67,3.2a.69.69,0,0,0,.19.42.47.47,0,0,0,.34.13.46.46,0,0,0,.33-.12,1.25,1.25,0,0,0,.24-.27,3.27,3.27,0,0,1,.24-.27.44.44,0,0,1,.32-.12,1.34,1.34,0,0,1,.56.19,7.18,7.18,0,0,0,.95.38,4.74,4.74,0,0,0,1.39.18,5.23,5.23,0,0,0,2.48-.53,3.78,3.78,0,0,0,1.56-1.42,3.72,3.72,0,0,0,.55-2,4.1,4.1,0,0,0-.39-1.83,4,4,0,0,0-1.3-1.43A10.57,10.57,0,0,0,59.52,166a11,11,0,0,1-2.13-1,2.73,2.73,0,0,1-1-.94,2.2,2.2,0,0,1-.26-1,2,2,0,0,1,.59-1.51,2.21,2.21,0,0,1,1.61-.57,3.94,3.94,0,0,1,1.5.3,4.36,4.36,0,0,1,1.44,1,7.55,7.55,0,0,1,1.29,1.91.77.77,0,0,0,.31.33.53.53,0,0,0,.43,0,.5.5,0,0,0,.32-.28.68.68,0,0,0,0-.47l-.93-3.22a1.24,1.24,0,0,0-.26-.52.53.53,0,0,0-.37-.14.45.45,0,0,0-.41.19l-.25.38a.37.37,0,0,1-.34.19,1.38,1.38,0,0,1-.62-.19,7.07,7.07,0,0,0-1-.36A5.18,5.18,0,0,0,58,160a5.55,5.55,0,0,0-2.41.5A3.84,3.84,0,0,0,54,161.91a3.93,3.93,0,0,0-.57,2.12,4.58,4.58,0,0,0,.41,2A3.84,3.84,0,0,0,55.15,167.5Z" transform="translate(0 0)" style="fill:#5a4339"/><path d="M76.66,174.19l.44.18a1.07,1.07,0,0,0,.43.09.67.67,0,0,0,.51-.18,1.39,1.39,0,0,0,.27-.56l.84-3.22a.51.51,0,0,0,0-.46.48.48,0,0,0-.36-.22.62.62,0,0,0-.39.05.53.53,0,0,0-.27.31,11.28,11.28,0,0,1-1,1.84,2.45,2.45,0,0,1-.94.85,2.93,2.93,0,0,1-1.16.21H73.28a1.3,1.3,0,0,1-.86-.24.94.94,0,0,1-.28-.75v-4.44h2.28a2.5,2.5,0,0,1,.73.08,1.16,1.16,0,0,1,.51.32,3.88,3.88,0,0,1,.5.7.53.53,0,0,0,.29.25.55.55,0,0,0,.38,0,.38.38,0,0,0,.28-.22.69.69,0,0,0,0-.41l-.76-2.93c-.07-.3-.23-.45-.49-.43a.45.45,0,0,0-.32.12.81.81,0,0,0-.19.37,1.77,1.77,0,0,1-.37.92,1.23,1.23,0,0,1-.86.24h-2v-5.38h2.58a4.48,4.48,0,0,1,.88.08,1.78,1.78,0,0,1,.7.35,2.74,2.74,0,0,1,.65.72,10.43,10.43,0,0,1,.69,1.23A.67.67,0,0,0,78,164a.63.63,0,0,0,.45,0,.54.54,0,0,0,.31-.25.69.69,0,0,0,0-.43L78,160.58a1.38,1.38,0,0,0-.28-.56.62.62,0,0,0-.46-.17,1.06,1.06,0,0,0-.48.1l-.44.2a1.65,1.65,0,0,1-.59.1H68.2a.72.72,0,0,0-.46.12.42.42,0,0,0-.15.34.52.52,0,0,0,.42.52l.57.12a.78.78,0,0,1,.36.21.51.51,0,0,1,.13.37v10.49a.48.48,0,0,1-.13.36.78.78,0,0,1-.36.21l-.57.13a.5.5,0,0,0-.42.51.43.43,0,0,0,.15.34.72.72,0,0,0,.46.13h7.87A1.74,1.74,0,0,1,76.66,174.19Z" transform="translate(0 0)" style="fill:#5a4339"/><path d="M98.77,173.93a6.47,6.47,0,0,0,2.24-1.51,6.7,6.7,0,0,0,1.44-2.29,8.08,8.08,0,0,0,.5-2.87,8.36,8.36,0,0,0-.51-3A6.72,6.72,0,0,0,101,162a6.44,6.44,0,0,0-2.25-1.52,7.71,7.71,0,0,0-3-.54,7.53,7.53,0,0,0-2.9.54,6.43,6.43,0,0,0-2.23,1.51,6.77,6.77,0,0,0-1.43,2.29,8.3,8.3,0,0,0-.49,2.86,8.64,8.64,0,0,0,.5,3,6.63,6.63,0,0,0,1.44,2.33,6.49,6.49,0,0,0,2.25,1.52,8.14,8.14,0,0,0,5.83,0Zm-4.91-2.09a8.46,8.46,0,0,1-1-1.76,10.89,10.89,0,0,1-.67-2.22,12.83,12.83,0,0,1-.24-2.52,6.37,6.37,0,0,1,.39-2.36,3.39,3.39,0,0,1,1.12-1.51,2.81,2.81,0,0,1,1.7-.52,2.78,2.78,0,0,1,1.43.41,4.78,4.78,0,0,1,1.27,1.17,8.05,8.05,0,0,1,1,1.76,11.19,11.19,0,0,1,.68,2.21,12.9,12.9,0,0,1,.24,2.52,6.27,6.27,0,0,1-.4,2.38,3.39,3.39,0,0,1-1.12,1.51,2.84,2.84,0,0,1-1.71.52,2.7,2.7,0,0,1-1.43-.42A4.94,4.94,0,0,1,93.86,171.84Z" transform="translate(0 0)" style="fill:#5a4339"/><path d="M108.12,172.78a.88.88,0,0,1-.37.21l-.56.13a.5.5,0,0,0-.42.51.42.42,0,0,0,.14.34.75.75,0,0,0,.47.13h5.16A.75.75,0,0,0,113,174a.43.43,0,0,0,.15-.34.52.52,0,0,0-.11-.35.67.67,0,0,0-.37-.17l-.87-.12a.6.6,0,0,1-.38-.19.68.68,0,0,1-.11-.38V168h2.29a2.46,2.46,0,0,1,.73.09,1.22,1.22,0,0,1,.5.32,3.54,3.54,0,0,1,.47.66.78.78,0,0,0,.33.28.62.62,0,0,0,.38,0,.42.42,0,0,0,.27-.21.59.59,0,0,0,0-.4l-.74-2.95a.47.47,0,0,0-.52-.41.51.51,0,0,0-.3.12.58.58,0,0,0-.18.32,1.88,1.88,0,0,1-.41.95,1.26,1.26,0,0,1-.87.24h-2v-5.73h2.18a3,3,0,0,1,1.09.17,2.19,2.19,0,0,1,.87.7,8,8,0,0,1,.89,1.54.68.68,0,0,0,.3.34.74.74,0,0,0,.39,0,.64.64,0,0,0,.37-.2.42.42,0,0,0,0-.4l-.8-2.88a1.18,1.18,0,0,0-.27-.54.67.67,0,0,0-.49-.16,1,1,0,0,0-.41.09l-.44.18a1.69,1.69,0,0,1-.64.1h-7a.76.76,0,0,0-.47.12.41.41,0,0,0-.14.34.52.52,0,0,0,.42.52l.56.12a.88.88,0,0,1,.37.21.51.51,0,0,1,.13.37v10.49A.48.48,0,0,1,108.12,172.78Z" transform="translate(0 0)" style="fill:#5a4339"/><path d="M19.28,192.18a.85.85,0,0,0-.48.15,3.87,3.87,0,0,0-.62.59A5.6,5.6,0,0,1,16,195a6.67,6.67,0,0,1-3.23.75,7.21,7.21,0,0,1-3.72-1A6.64,6.64,0,0,1,6.48,192a10.43,10.43,0,0,1-.92-4.61,9.67,9.67,0,0,1,.63-3.68,5.41,5.41,0,0,1,1.71-2.34,4,4,0,0,1,2.46-.82,3.35,3.35,0,0,1,2.47.9,3.2,3.2,0,0,1,.92,2.38v.67a2.74,2.74,0,0,0,.74,2,2.77,2.77,0,0,0,2.12.77,3.22,3.22,0,0,0,2.33-.84,2.78,2.78,0,0,0,.87-2.07,4.83,4.83,0,0,0-1.06-3,7.21,7.21,0,0,0-3-2.19,11.84,11.84,0,0,0-4.59-.81,11.37,11.37,0,0,0-5.91,1.48,10.16,10.16,0,0,0-3.89,4A12,12,0,0,0,0,189.62a10.46,10.46,0,0,0,1.39,5.46,9.6,9.6,0,0,0,3.82,3.63A11.72,11.72,0,0,0,10.79,200a11.19,11.19,0,0,0,4.65-.92,8.32,8.32,0,0,0,3.21-2.47,5.86,5.86,0,0,0,1.29-3.36,1.46,1.46,0,0,0-.15-.76A.52.52,0,0,0,19.28,192.18Z" transform="translate(0 0)" style="fill:#5a4339"/><path d="M44.56,195.83a.48.48,0,0,0-.32.11,1.6,1.6,0,0,0-.26.26,5.59,5.59,0,0,1-.42.44,1,1,0,0,1-.71.23.87.87,0,0,1-.71-.3,1.39,1.39,0,0,1-.25-.91v-11.3a5.39,5.39,0,0,0-2-4.37q-2-1.62-5.95-1.62a15.1,15.1,0,0,0-5.44.86,8.26,8.26,0,0,0-3.34,2.18,4.15,4.15,0,0,0-1.13,2.69,2.25,2.25,0,0,0,.7,1.77,2.92,2.92,0,0,0,2.06.64,3.86,3.86,0,0,0,2.47-.7,2.47,2.47,0,0,0,.88-2v-1.91a1.67,1.67,0,0,1,.69-1.34,3.09,3.09,0,0,1,2-.55,2.87,2.87,0,0,1,2.19.83,3.36,3.36,0,0,1,.78,2.38v6.12a7,7,0,0,0-.88-.23,12.42,12.42,0,0,0-2.55-.24,11.93,11.93,0,0,0-6.8,1.67,5.1,5.1,0,0,0-2.43,4.39A4.47,4.47,0,0,0,25,198.59,7.24,7.24,0,0,0,29.58,200a10.29,10.29,0,0,0,4.28-.92,8.16,8.16,0,0,0,2.45-1.71,2.78,2.78,0,0,0,1.1,1.74,5,5,0,0,0,3.11.89,5.22,5.22,0,0,0,2.52-.55,4.08,4.08,0,0,0,1.53-1.35,2.84,2.84,0,0,0,.51-1.53A.93.93,0,0,0,45,196,.41.41,0,0,0,44.56,195.83Zm-12,1.39a3,3,0,0,1-2.24-.87,3.33,3.33,0,0,1-.86-2.47,3.29,3.29,0,0,1,1-2.56,4.07,4.07,0,0,1,2.82-.92,6.74,6.74,0,0,1,1.66.2,5.89,5.89,0,0,1,.9.29V196a5,5,0,0,1-1,.69A5,5,0,0,1,32.53,197.22Z" transform="translate(0 0)" style="fill:#5a4339"/><path d="M66.6,192.18a.85.85,0,0,0-.48.15,3.87,3.87,0,0,0-.62.59A5.6,5.6,0,0,1,63.3,195a6.67,6.67,0,0,1-3.23.75,7.21,7.21,0,0,1-3.72-1A6.64,6.64,0,0,1,53.8,192a10.43,10.43,0,0,1-.92-4.61,9.67,9.67,0,0,1,.63-3.68,5.41,5.41,0,0,1,1.71-2.34,4,4,0,0,1,2.46-.82,3.35,3.35,0,0,1,2.47.9,3.2,3.2,0,0,1,.92,2.38v.67a2.78,2.78,0,0,0,.73,2,2.81,2.81,0,0,0,2.13.77,3.22,3.22,0,0,0,2.33-.84,2.82,2.82,0,0,0,.87-2.07,4.83,4.83,0,0,0-1.06-3,7.21,7.21,0,0,0-3-2.19,11.84,11.84,0,0,0-4.59-.81,11.37,11.37,0,0,0-5.91,1.48,10.16,10.16,0,0,0-3.89,4,12,12,0,0,0-1.38,5.77,10.46,10.46,0,0,0,1.39,5.46,9.6,9.6,0,0,0,3.82,3.63A11.72,11.72,0,0,0,58.11,200a11.19,11.19,0,0,0,4.65-.92A8.32,8.32,0,0,0,66,196.61a5.86,5.86,0,0,0,1.29-3.36,1.46,1.46,0,0,0-.15-.76A.53.53,0,0,0,66.6,192.18Z" transform="translate(0 0)" style="fill:#5a4339"/><path d="M91.88,195.83a.52.52,0,0,0-.33.11,3.18,3.18,0,0,0-.26.26,4,4,0,0,1-.41.44,1,1,0,0,1-.71.23.87.87,0,0,1-.71-.3,1.39,1.39,0,0,1-.25-.91v-11.3a5.37,5.37,0,0,0-2-4.37q-1.95-1.62-6-1.62a15,15,0,0,0-5.43.86,8.19,8.19,0,0,0-3.34,2.18,4.15,4.15,0,0,0-1.13,2.69,2.25,2.25,0,0,0,.7,1.77,2.92,2.92,0,0,0,2.06.64,3.81,3.81,0,0,0,2.46-.7,2.44,2.44,0,0,0,.88-2v-1.91a1.68,1.68,0,0,1,.7-1.34,3.09,3.09,0,0,1,2-.55,2.87,2.87,0,0,1,2.19.83,3.36,3.36,0,0,1,.78,2.38v6.12a7,7,0,0,0-.88-.23,12.42,12.42,0,0,0-2.55-.24,11.93,11.93,0,0,0-6.8,1.67,5.1,5.1,0,0,0-2.43,4.39,4.47,4.47,0,0,0,1.78,3.69A7.24,7.24,0,0,0,76.9,200a10.21,10.21,0,0,0,4.27-.92,8.08,8.08,0,0,0,2.46-1.71,2.8,2.8,0,0,0,1.09,1.74,5,5,0,0,0,3.12.89,5.22,5.22,0,0,0,2.52-.55,4.08,4.08,0,0,0,1.53-1.35,2.84,2.84,0,0,0,.51-1.53.93.93,0,0,0-.13-.53A.44.44,0,0,0,91.88,195.83Zm-12,1.39a3,3,0,0,1-2.24-.87,3.34,3.34,0,0,1-.87-2.47,3.26,3.26,0,0,1,1-2.56,4.07,4.07,0,0,1,2.82-.92,6.74,6.74,0,0,1,1.66.2,6.27,6.27,0,0,1,.9.29V196a5.22,5.22,0,0,1-1,.69A5,5,0,0,1,79.85,197.22Z" transform="translate(0 0)" style="fill:#5a4339"/><path d="M116.06,183.55a10,10,0,0,0-4-3.82,12.27,12.27,0,0,0-5.92-1.38,12.48,12.48,0,0,0-6,1.4,10.43,10.43,0,0,0-4.07,3.83,10.59,10.59,0,0,0-1.46,5.54,11.06,11.06,0,0,0,1.43,5.65,10.21,10.21,0,0,0,4,3.84A12.05,12.05,0,0,0,106,200a12.38,12.38,0,0,0,6-1.41,10.37,10.37,0,0,0,5.52-9.36A11.06,11.06,0,0,0,116.06,183.55Zm-4.81,9.64a6.08,6.08,0,0,1-1.14,3.12,3.71,3.71,0,0,1-2.4,1.37,4,4,0,0,1-2.82-.54,6.41,6.41,0,0,1-2.27-2.6,16.09,16.09,0,0,1-1.47-4.59,17.06,17.06,0,0,1-.27-4.79A6,6,0,0,1,102,182a3.71,3.71,0,0,1,2.4-1.37,4.09,4.09,0,0,1,2.84.53,6.42,6.42,0,0,1,2.26,2.61A15.79,15.79,0,0,1,111,188.4,16,16,0,0,1,111.25,193.19Z" transform="translate(0 0)" style="fill:#5a4339"/><path d="M93.38,138.68c-3.5-4-6.91-8.09-10.48-12S75.75,119,72,115.38s-7.61-7.35-11.44-11v2.28c2.31,2.21,4.63,4.41,6.92,6.63,3.76,3.62,7.47,7.29,11,11.09s7,7.78,10.38,11.72c5.31,6.11,10.68,12.17,15.8,18.44h2.1C102.48,149.14,97.93,143.9,93.38,138.68Z" transform="translate(0 0)" style="fill:#b89c91"/><path d="M8.84,27.67a105.52,105.52,0,0,0-.07,26.16c.88,8.05,2.34,16,3.81,24a.82.82,0,0,0,1.21.49A166.06,166.06,0,0,0,26.91,67.88a114,114,0,0,0,7.83,11.37h2.07A114.5,114.5,0,0,1,30,69.73c-.63-1-1.23-2-1.82-3l1.69-1.57a90.36,90.36,0,0,0,10,14.06h2.2l-.17-.19A89.57,89.57,0,0,1,31.08,64a114.92,114.92,0,0,0,11.14-12.3,93.56,93.56,0,0,0,11-17.94.53.53,0,0,0,.08-.17,81,81,0,0,0,3.23-8.11V19.69a77.84,77.84,0,0,1-3.81,11.24A36.79,36.79,0,0,0,38.31,11.26c.17-.34.33-.68.5-1C40.19,7.49,41.64,4.76,43.1,2c-.74.2-1.48.42-2.21.65-1.36,2.56-2.7,5.13-4,7.73a37.49,37.49,0,0,0-12.3.44c-1.14.82-2.26,1.69-3.34,2.59A35.07,35.07,0,0,1,36.13,12q-2.77,5.66-5.31,11.4c-6.73-.61-13.69-.27-20,2.31.08-.45.17-.9.26-1.35C10.3,25.41,9.56,26.53,8.84,27.67Zm.82,10.07c5-2.08,10.63-3.69,16-2q-1.78,4.55-3.43,9.15A20.63,20.63,0,0,0,9.89,47.76C9.67,44.42,9.58,41.08,9.66,37.74ZM10,49.62a19.11,19.11,0,0,1,11.65-3.15q-1.76,5-3.35,10a22.55,22.55,0,0,0-7.19,3C10.67,56.2,10.29,52.91,10,49.62Zm3.46,24c-.75-4.11-1.47-8.23-2.09-12.36a25.22,25.22,0,0,1,3.81-2.1,17.86,17.86,0,0,1,2.56-.85Q15.42,65.91,13.48,73.63Zm1.19,2q2.15-8.67,4.78-17.2A37,37,0,0,1,23,69.06Q19,72.48,14.67,75.63Zm9.79-7.8a38.39,38.39,0,0,0-4.18-11.35.83.83,0,0,0-.16-.2c.94-3,1.92-5.92,2.95-8.85a38.53,38.53,0,0,1,4,8.14c.92,2.48,2,5.29,2,8a.29.29,0,0,1,0,.09C27.59,65.08,26,66.47,24.46,67.83Zm6.18-5.66a31.15,31.15,0,0,0-2-7,37.55,37.55,0,0,0-4.93-9.59c.3-.84.59-1.68.9-2.51q.88-2.4,1.8-4.78A30.53,30.53,0,0,1,35,57.63v0C33.6,59.2,32.13,60.7,30.64,62.17Zm6.94-49.42A35.14,35.14,0,0,1,51.66,33.31,89.43,89.43,0,0,1,44.1,46.39a34.42,34.42,0,0,0-11.92-22Q34.76,18.5,37.58,12.75ZM31.49,25.92A32.74,32.74,0,0,1,42.62,48.19a.59.59,0,0,0,.05.19q-2.89,4-6.16,7.62a31.89,31.89,0,0,0-9.42-19.41Q29.19,31.21,31.49,25.92Zm-1.37-1q-2,4.59-3.85,9.24C20.75,32.38,15,33.84,9.71,36a.53.53,0,0,1,0-.13,78.47,78.47,0,0,1,.79-8.23C16.61,24.79,23.51,24.41,30.12,25Z" transform="translate(0 0)" style="fill:#b89c91"/><path d="M56.53,16.13V12A38.32,38.32,0,0,0,48.25.87c-.67.12-1.35.25-2,.39A36.55,36.55,0,0,1,56.53,16.13Z" transform="translate(0 0)" style="fill:#b89c91"/><path d="M94.3,54a72.71,72.71,0,0,1,.53,9.67.83.83,0,0,0,1.65,0A79.38,79.38,0,0,0,89.07,30a88.3,88.3,0,0,0-4.7-8.86c-.54-.9-2-.08-1.42.83A81.8,81.8,0,0,1,94.3,54Z" transform="translate(0 0)" style="fill:#b89c91"/><path d="M37.91,96.69c.74-.94-.58-2.27-1.33-1.33a136.44,136.44,0,0,0-18.71,31.48q-2,4.8-3.7,9.74c-.38,1.15,1.42,1.64,1.81.5A134.59,134.59,0,0,1,31.85,105C33.76,102.13,35.78,99.36,37.91,96.69Z" transform="translate(0 0)" style="fill:#b89c91"/><path d="M32.6,95.8c.94-.76-.4-2.08-1.32-1.32a53.45,53.45,0,0,0-19.39,35.84c-.13,1.2,1.74,1.19,1.87,0A51.9,51.9,0,0,1,32.6,95.8Z" transform="translate(0 0)" style="fill:#b89c91"/><path d="M51.6,91.59c1.63,1.6,3.28,3.19,4.93,4.77V94.11C52.86,90.6,49.25,87,45.79,83.32H43.53C46.15,86.16,48.87,88.9,51.6,91.59Z" transform="translate(0 0)" style="fill:#b89c91"/><path d="M40.35,92.09h0l-.06,0Z" transform="translate(0 0)" style="fill:#b89c91"/><path d="M45.31,91.51c3.63,3.85,7.4,7.56,11.22,11.24v-2.3c-2.34-2.27-4.66-4.54-6.93-6.86-3.25-3.32-6.42-6.73-9.43-10.27H38l1.57,1.86a.64.64,0,0,0-.06.18,14.25,14.25,0,0,1-.38,1.72,3.58,3.58,0,0,1-.11.35l-.09.23a6.27,6.27,0,0,1-.29.58c0,.09-.1.17-.15.26a35.43,35.43,0,0,0-11.75,3,25.6,25.6,0,0,0-9,7.42,53.4,53.4,0,0,0-7.48,13.76,42.11,42.11,0,0,0-2.58,16.38c.08,2.62.28,5.24.39,7.87.07,1.39.1,2.79.1,4.18a37.76,37.76,0,0,0,0,4.12c.24,2.42,2.37,4.9,5,3.91,1.27-.48,2.46-1.27,3.69-1.86s2.5-1.22,3.74-1.85A66,66,0,0,0,34,136.81a39.76,39.76,0,0,0,9.83-12.65c4.45-9.11,6.23-20.93,1.44-30.28a20.06,20.06,0,0,0-1.86-2.95c.17-.31.32-.63.48-1ZM38.46,92a25.28,25.28,0,0,0,1.87-3,9.12,9.12,0,0,0,.79-2.17c.46.53.93,1.06,1.41,1.58A16.47,16.47,0,0,1,41,91.39c-.18.24-.39.46-.59.68,0,0,0,0,0,0l0,0,0,0s-.07,0-.06,0l0,0-.12.07,0,0a.15.15,0,0,1-.08,0l-.28.08h-.65a2.8,2.8,0,0,1-.28-.06l-.2-.06-.18-.09-.06,0Zm-.05.07,0,0s0,.08,0,0S38.41,92.12,38.41,92.11Zm5.29,27.62a37.9,37.9,0,0,1-7.82,12.7,50,50,0,0,1-11.82,9c-2.2,1.27-4.47,2.43-6.76,3.55-1.24.61-2.52,1.17-3.72,1.86a4.16,4.16,0,0,1-1.44.65,2,2,0,0,1-1.6-.88c-.69-.92-.56-2.24-.53-3.33,0-1.39.05-2.78,0-4.17-.06-2.47-.23-4.94-.36-7.41a45.81,45.81,0,0,1,1.22-14.94,52.14,52.14,0,0,1,6.6-14.29,26.52,26.52,0,0,1,7.84-8,27.82,27.82,0,0,1,10.42-3.71q.72-.12,1.44-.21a4,4,0,0,0-.59,1.11c-.36,1.23.78,2.14,1.84,2.42a3.48,3.48,0,0,0,3.32-.73,7.21,7.21,0,0,0,.58-.66C47.65,100.53,46.88,111.16,43.7,119.73Z" transform="translate(0 0)" style="fill:#b89c91"/><path d="M40.54,97.19A50.52,50.52,0,0,1,25.71,133a50.48,50.48,0,0,1-8.23,6.62c-1,.65-.07,2.27.94,1.61a52.38,52.38,0,0,0,22.63-32,52.43,52.43,0,0,0,1.36-12A.94.94,0,0,0,40.54,97.19Z" transform="translate(0 0)" style="fill:#b89c91"/><path d="M74.61,34.39a44.29,44.29,0,0,1,1.2-11.12c.25-1-1.34-1.47-1.59-.43C71,36.15,74.11,50.46,81.71,61.75a51.15,51.15,0,0,0,7.46,8.76c.77.73,1.94-.44,1.16-1.16A49.74,49.74,0,0,1,74.61,34.39Z" transform="translate(0 0)" style="fill:#b89c91"/><path d="M78.8,23.27a207.84,207.84,0,0,0,10.34,36q2,4.89,4.28,9.64c.46.95,1.89.12,1.42-.83A170.55,170.55,0,0,1,82.67,33.11c-.83-3.41-1.58-6.84-2.28-10.27C80.18,21.8,78.59,22.24,78.8,23.27Z" transform="translate(0 0)" style="fill:#b89c91"/><path d="M94.46,32a57.29,57.29,0,0,1,4.47,16.65,46.08,46.08,0,0,1,.15,9.17c-.1,1.06,1.55,1,1.64,0a51.7,51.7,0,0,0-1.57-17.11,54.26,54.26,0,0,0-6.74-16.07,33.34,33.34,0,0,0-5.62-6.75c-.79-.7-2,.46-1.17,1.17A37.3,37.3,0,0,1,94.46,32Z" transform="translate(0 0)" style="fill:#b89c91"/><path d="M101.58,104.13q-2.81-10.35-5.22-20.81H94.67c3.14,13.56,6.65,27,10.92,40.29,3.26,10.1,6.9,20.27,11.89,29.68v-3.6c-1.15-2.36-2.22-4.75-3.24-7.17A303.59,303.59,0,0,1,101.58,104.13Z" transform="translate(0 0)" style="fill:#b89c91"/><path d="M80.06,17A2.79,2.79,0,0,1,76,16.9a.77.77,0,0,0-.18-.18.7.7,0,0,0-1-.58,7.8,7.8,0,0,0-2.2,1.25A68.54,68.54,0,0,0,65.3.29c-.67-.08-1.35-.13-2-.18a66.56,66.56,0,0,1,7.9,18.08.81.81,0,0,0,.25.4c-2.18,2.54-3.2,6.28-3.79,9.41a47.46,47.46,0,0,0-.11,15.73A41.48,41.48,0,0,0,82.31,70.14a34.67,34.67,0,0,0,3.07,2.17.81.81,0,0,0,0,.3c.64,2.21,1.25,4.42,1.86,6.64H89c-.52-1.94-1-3.87-1.6-5.81.28.15.56.31.85.44.91.44,1.93.72,2.82,1.19s1.34,1,2.09,1.44c.2.91.41,1.83.62,2.74h1.69c-.21-.91-.42-1.83-.62-2.75.87-.55,1.41-1.92,1.86-2.79.56-1.09,1.4-2,2.06-3.07s1.45-2.36,2.1-3.58a39,39,0,0,0,4.43-15.42,43.28,43.28,0,0,0-2-15.65,47.59,47.59,0,0,0-7-14.2,33.06,33.06,0,0,0-5.08-5.62,12,12,0,0,0-7-2.82,14,14,0,0,0-3.42.23c-.1-.35-.22-.69-.35-1a10.27,10.27,0,0,0-1.83-3.09,6.82,6.82,0,0,0-2.66-1.84l0-.11-2-5.63c-.63-.16-1.27-.32-1.91-.46.69,2,1.39,4,2.09,5.94a2.49,2.49,0,0,0-2,1.28,2.18,2.18,0,0,0,0,2.06A4.36,4.36,0,0,0,73.68,12a4,4,0,0,1,1.81,3,.85.85,0,0,0,.83.83.83.83,0,0,0,.82-.83,5.65,5.65,0,0,0-1.07-3,5.46,5.46,0,0,0-1-1c-.45-.37-1-.58-1.42-.91-.72-.5.08-1.14.7-1.15a3.87,3.87,0,0,1,2.44,1.12,7.3,7.3,0,0,1,1.62,2.19A9.89,9.89,0,0,1,79,13.55,8.65,8.65,0,0,0,79.42,15a2.05,2.05,0,0,0,.63.68c.28.21.42.3.59.45l0,0,0,.05,0,.06A2,2,0,0,1,80.06,17Zm2.17-.25a1.59,1.59,0,0,0-.35-1.64A10.76,10.76,0,0,1,88,16a18.14,18.14,0,0,1,5.3,4.69,43.33,43.33,0,0,1,7.3,12.61c3.55,9.3,4.26,19.47.64,28.86a41.46,41.46,0,0,1-3.45,6.85c-.67,1.07-1.39,2.09-2.11,3.12-.5.72-.79,1.54-1.22,2.29-.1.17-.22.32-.32.48s-.19.15-.18.18a3.68,3.68,0,0,1-.83-.57,8.57,8.57,0,0,0-2-1.2,28,28,0,0,1-5.55-2.85c-7.92-5.23-13.46-13.86-15.67-23A49.14,49.14,0,0,1,68.66,33,35.82,35.82,0,0,1,69.78,26a16.84,16.84,0,0,1,2.75-6.15A6.56,6.56,0,0,1,74.77,18a4,4,0,0,0,2.57,1.46,4.77,4.77,0,0,0,2.91-.61A4.11,4.11,0,0,0,82.23,16.71Zm-1.53-.54h0Zm0,0s0,0,0,0h0Zm0,0h0s0,0,0,0Z" transform="translate(0 0)" style="fill:#b89c91"/><path d="M102.68,144.51c.76-1.64.49-3.59.22-5.31s-.74-3.62-1.14-5.42c-1.07-4.87-2.11-9.75-3.2-14.62C96.24,108.74,93.84,98.33,91.24,88c-.4-1.56-.8-3.11-1.21-4.66H88.34c1.55,5.94,3,11.89,4.41,17.86,2.37,10,4.61,20,6.79,30.1.45,2.09.95,4.17,1.39,6.27q.21,1,.36,1.92a398.32,398.32,0,0,0-31.75-33.09c-3-2.81-6-5.6-9-8.41v2.26c7.37,7,14.82,13.88,22,21.11,6.57,6.67,12.89,13.58,18.85,20.8a.57.57,0,0,0,.14.13,3.44,3.44,0,0,1-.27,1.41C100.82,144.64,102.24,145.48,102.68,144.51Z" transform="translate(0 0)" style="fill:#b89c91"/></svg>