<svg id="Layer_1" data-name="Layer 1" xmlns="http://www.w3.org/2000/svg" viewBox="0 0 165.36 56.51"><path d="M18.74,28a1.09,1.09,0,0,1-.52.3l-.79.18a.72.72,0,0,0-.59.72.6.6,0,0,0,.21.48,1,1,0,0,0,.64.18h6.77a1,1,0,0,0,.65-.18.6.6,0,0,0,.21-.48.72.72,0,0,0-.6-.72l-.78-.18a1.23,1.23,0,0,1-.53-.3.72.72,0,0,1-.18-.51V21.34h8.09v6.13a.72.72,0,0,1-.18.51,1.12,1.12,0,0,1-.53.3l-.78.18a.72.72,0,0,0-.59.72.63.63,0,0,0,.2.48,1,1,0,0,0,.66.18h6.77a.94.94,0,0,0,.64-.18.6.6,0,0,0,.21-.48.72.72,0,0,0-.59-.72l-.79-.18a1.14,1.14,0,0,1-.52-.3.72.72,0,0,1-.18-.51V12.71a.75.75,0,0,1,.18-.52,1.13,1.13,0,0,1,.52-.29l.79-.18a.72.72,0,0,0,.59-.72.57.57,0,0,0-.21-.48.94.94,0,0,0-.64-.18H30.1a1,1,0,0,0-.66.18.6.6,0,0,0-.2.48.72.72,0,0,0,.59.72l.78.18a1.11,1.11,0,0,1,.53.29.75.75,0,0,1,.18.52v7.14H23.23V12.71a.75.75,0,0,1,.18-.52,1.22,1.22,0,0,1,.53-.29l.78-.18a.72.72,0,0,0,.6-.72.57.57,0,0,0-.21-.48,1,1,0,0,0-.65-.18H17.69a1,1,0,0,0-.64.18.57.57,0,0,0-.21.48.72.72,0,0,0,.59.72l.79.18a1.08,1.08,0,0,1,.52.29.75.75,0,0,1,.18.52V27.47A.72.72,0,0,1,18.74,28Z" transform="translate(-16.84 -9.78)" style="fill:#5a4339"/><path d="M57.2,29.61a9.33,9.33,0,0,0,3.15-2.13,9.45,9.45,0,0,0,2-3.23,11.24,11.24,0,0,0,.7-4A12,12,0,0,0,62.36,16a9.72,9.72,0,0,0-2-3.28,9.2,9.2,0,0,0-3.17-2.14A10.8,10.8,0,0,0,53,9.84a10.5,10.5,0,0,0-4.09.76,9.19,9.19,0,0,0-3.14,2.13,9.36,9.36,0,0,0-2,3.22,11.26,11.26,0,0,0-.7,4,12,12,0,0,0,.7,4.2,9.5,9.5,0,0,0,2,3.28A9.09,9.09,0,0,0,49,29.61a11.47,11.47,0,0,0,8.21,0Zm-6.91-2.95a11.13,11.13,0,0,1-1.43-2.48,15.41,15.41,0,0,1-.94-3.12,17.74,17.74,0,0,1-.35-3.55,8.83,8.83,0,0,1,.56-3.32,4.75,4.75,0,0,1,1.57-2.12,4,4,0,0,1,2.4-.74,3.81,3.81,0,0,1,2,.59,6.52,6.52,0,0,1,1.79,1.64A11.15,11.15,0,0,1,57.34,16a16.19,16.19,0,0,1,.95,3.11,17.72,17.72,0,0,1,.34,3.54A9.07,9.07,0,0,1,58.07,26a4.93,4.93,0,0,1-1.58,2.13,4,4,0,0,1-2.41.73,3.72,3.72,0,0,1-2-.59A6.68,6.68,0,0,1,50.29,26.66Z" transform="translate(-16.84 -9.78)" style="fill:#5a4339"/><path d="M84.52,27.4a5.76,5.76,0,0,0,.78-3.11c0-.49,0-1,0-1.42s-.06-.91-.09-1.39l-.52-8.12a1.56,1.56,0,0,1,.19-.95,1.43,1.43,0,0,1,.93-.54l.61-.12a1.39,1.39,0,0,0,.6-.29.58.58,0,0,0,.19-.46.6.6,0,0,0-.21-.48,1,1,0,0,0-.62-.18h-5a.94.94,0,0,0-.61.18.6.6,0,0,0-.21.48.63.63,0,0,0,.17.47,1.19,1.19,0,0,0,.61.28l.64.14a1.34,1.34,0,0,1,.81.45,1.63,1.63,0,0,1,.3.93l.5,8.23c0,.36,0,.75.07,1.17s0,1,0,1.61a4.57,4.57,0,0,1-.55,2.37,3.88,3.88,0,0,1-1.68,1.52,6,6,0,0,1-2.62.52,4.68,4.68,0,0,1-3.36-1.13A4.56,4.56,0,0,1,74.24,24c0-.41,0-.88,0-1.4s0-1.11.09-1.75l.45-8.11a1,1,0,0,1,.22-.6,1,1,0,0,1,.59-.27l.71-.14a1.38,1.38,0,0,0,.62-.28.62.62,0,0,0,.18-.46.63.63,0,0,0-.22-.49.94.94,0,0,0-.62-.18H69a1,1,0,0,0-.62.18.62.62,0,0,0-.21.49c0,.38.26.63.78.74l.69.14a1.31,1.31,0,0,1,.71.3.74.74,0,0,1,.17.6L70,20.87c0,.54-.07,1-.09,1.48s0,.83-.06,1.16,0,.6,0,.81a5.51,5.51,0,0,0,.86,3.19,5.62,5.62,0,0,0,2.66,2.09,11.61,11.61,0,0,0,4.43.74A9.89,9.89,0,0,0,82,29.55,5.55,5.55,0,0,0,84.52,27.4Z" transform="translate(-16.84 -9.78)" style="fill:#5a4339"/><path d="M94.47,20.55a13.61,13.61,0,0,0,3.39,1.59A16,16,0,0,1,101,23.4a3.79,3.79,0,0,1,1.43,1.26,2.84,2.84,0,0,1,.35,1.44,2.53,2.53,0,0,1-.81,2,3.22,3.22,0,0,1-2.24.74,5.34,5.34,0,0,1-2-.39,5.6,5.6,0,0,1-1.88-1.3,9.76,9.76,0,0,1-1.67-2.45,1,1,0,0,0-.44-.49.71.71,0,0,0-.59,0,.74.74,0,0,0-.45.32.75.75,0,0,0-.08.54l1,4.5a1,1,0,0,0,.26.6.71.71,0,0,0,.49.18.65.65,0,0,0,.46-.17,2.49,2.49,0,0,0,.34-.38,3.16,3.16,0,0,1,.34-.38.61.61,0,0,1,.45-.17,2.12,2.12,0,0,1,.79.26A8.14,8.14,0,0,0,98,30a6.31,6.31,0,0,0,2,.27,7.44,7.44,0,0,0,3.49-.75,5.25,5.25,0,0,0,3-4.77,5.67,5.67,0,0,0-.56-2.56,5.55,5.55,0,0,0-1.82-2,15,15,0,0,0-3.43-1.67,15.45,15.45,0,0,1-3-1.36,3.78,3.78,0,0,1-1.39-1.32,3.08,3.08,0,0,1-.37-1.47,2.81,2.81,0,0,1,.83-2.11A3.12,3.12,0,0,1,99,11.43a5.59,5.59,0,0,1,2.11.42,6.18,6.18,0,0,1,2,1.42,10.93,10.93,0,0,1,1.83,2.7,1,1,0,0,0,.43.46.73.73,0,0,0,.6,0,.68.68,0,0,0,.46-.38,1,1,0,0,0,0-.67l-1.3-4.53a2,2,0,0,0-.37-.74.73.73,0,0,0-.53-.19.64.64,0,0,0-.57.27,5.49,5.49,0,0,0-.35.54.54.54,0,0,1-.48.26,2.16,2.16,0,0,1-.88-.26,8.53,8.53,0,0,0-1.35-.52A7.19,7.19,0,0,0,98.51,10a7.77,7.77,0,0,0-3.4.71,5.31,5.31,0,0,0-2.26,2,5.55,5.55,0,0,0-.8,3,6.44,6.44,0,0,0,.57,2.79A5.4,5.4,0,0,0,94.47,20.55Z" transform="translate(-16.84 -9.78)" style="fill:#5a4339"/><path d="M124.74,30c.22.09.43.17.62.26a1.42,1.42,0,0,0,.61.13.89.89,0,0,0,.71-.26,1.89,1.89,0,0,0,.39-.78l1.18-4.54a.77.77,0,0,0,0-.64.68.68,0,0,0-.51-.31.84.84,0,0,0-.55.06.85.85,0,0,0-.39.44,16,16,0,0,1-1.37,2.6,3.32,3.32,0,0,1-1.32,1.18,4.1,4.1,0,0,1-1.64.3H120a1.77,1.77,0,0,1-1.2-.34,1.3,1.3,0,0,1-.4-1V20.76h3.22a3.56,3.56,0,0,1,1,.12,1.68,1.68,0,0,1,.72.45,5.16,5.16,0,0,1,.69,1,.88.88,0,0,0,.42.35.81.81,0,0,0,.53,0,.54.54,0,0,0,.4-.3,1,1,0,0,0,0-.59l-1.06-4.12c-.11-.43-.34-.63-.7-.61a.65.65,0,0,0-.44.18,1,1,0,0,0-.27.51,2.53,2.53,0,0,1-.53,1.3,1.73,1.73,0,0,1-1.21.33h-2.8V11.78H122a5.57,5.57,0,0,1,1.23.12,2.68,2.68,0,0,1,1,.48,4.43,4.43,0,0,1,.91,1,14.7,14.7,0,0,1,1,1.73,1,1,0,0,0,.46.5.93.93,0,0,0,.64,0,.68.68,0,0,0,.43-.35.86.86,0,0,0,0-.6l-1.11-3.88a2.1,2.1,0,0,0-.4-.8.82.82,0,0,0-.65-.24,1.6,1.6,0,0,0-.67.14c-.19.1-.4.19-.62.28a2,2,0,0,1-.83.14H112.84a1,1,0,0,0-.65.18A.57.57,0,0,0,112,11a.72.72,0,0,0,.59.72l.8.18a1.14,1.14,0,0,1,.51.29.75.75,0,0,1,.18.52V27.47a.72.72,0,0,1-.18.51,1.15,1.15,0,0,1-.51.3l-.8.18a.72.72,0,0,0-.59.72.6.6,0,0,0,.21.48,1,1,0,0,0,.65.18h11.07A2.55,2.55,0,0,1,124.74,30Z" transform="translate(-16.84 -9.78)" style="fill:#5a4339"/><path d="M155.87,29.61A9.33,9.33,0,0,0,159,27.48a9.45,9.45,0,0,0,2-3.23,11.24,11.24,0,0,0,.7-4A11.74,11.74,0,0,0,161,16a9.72,9.72,0,0,0-2-3.28,9.2,9.2,0,0,0-3.17-2.14,10.8,10.8,0,0,0-4.15-.76,10.53,10.53,0,0,0-4.09.76,9.19,9.19,0,0,0-3.14,2.13,9.36,9.36,0,0,0-2,3.22,11.26,11.26,0,0,0-.7,4,12,12,0,0,0,.7,4.2,9.5,9.5,0,0,0,2,3.28,9.09,9.09,0,0,0,3.17,2.15,11.47,11.47,0,0,0,8.21,0ZM149,26.66a11.13,11.13,0,0,1-1.43-2.48,15.41,15.41,0,0,1-.94-3.12,17.74,17.74,0,0,1-.35-3.55,8.83,8.83,0,0,1,.56-3.32,4.75,4.75,0,0,1,1.57-2.12,4,4,0,0,1,2.4-.74,3.81,3.81,0,0,1,2,.59,6.52,6.52,0,0,1,1.79,1.64A11.15,11.15,0,0,1,156,16a16.19,16.19,0,0,1,1,3.11,17.72,17.72,0,0,1,.34,3.54,9.07,9.07,0,0,1-.56,3.35,4.93,4.93,0,0,1-1.58,2.13,4,4,0,0,1-2.41.73,3.72,3.72,0,0,1-2-.59A6.68,6.68,0,0,1,149,26.66Z" transform="translate(-16.84 -9.78)" style="fill:#5a4339"/><path d="M169,28a1.15,1.15,0,0,1-.51.3l-.79.18a.72.72,0,0,0-.6.72.6.6,0,0,0,.21.48,1,1,0,0,0,.65.18h7.27a1,1,0,0,0,.65-.18.6.6,0,0,0,.21-.48.72.72,0,0,0-.15-.49.91.91,0,0,0-.52-.25l-1.22-.16a.82.82,0,0,1-.53-.27.89.89,0,0,1-.17-.54V21.25h3.23a3.68,3.68,0,0,1,1,.12,1.65,1.65,0,0,1,.71.45,5.39,5.39,0,0,1,.66.93,1.11,1.11,0,0,0,.46.39.8.8,0,0,0,.53,0,.61.61,0,0,0,.38-.29.83.83,0,0,0,0-.57l-1-4.15a.68.68,0,0,0-.74-.58.67.67,0,0,0-.42.17.87.87,0,0,0-.25.45,2.71,2.71,0,0,1-.58,1.34,1.71,1.71,0,0,1-1.22.34h-2.77V11.78h3.08a4.14,4.14,0,0,1,1.52.25,2.91,2.91,0,0,1,1.24,1,11.47,11.47,0,0,1,1.25,2.16.88.88,0,0,0,.42.48.94.94,0,0,0,.55,0,.72.72,0,0,0,.51-.28.58.58,0,0,0,.08-.55l-1.13-4a1.72,1.72,0,0,0-.38-.77.94.94,0,0,0-.69-.22,1.39,1.39,0,0,0-.57.12c-.19.09-.4.17-.63.26a2.5,2.5,0,0,1-.89.13H168a1,1,0,0,0-.65.18.57.57,0,0,0-.21.48.72.72,0,0,0,.6.72l.79.18a1.14,1.14,0,0,1,.51.29.71.71,0,0,1,.19.52V27.47A.69.69,0,0,1,169,28Z" transform="translate(-16.84 -9.78)" style="fill:#5a4339"/><path d="M44,55.29a1.16,1.16,0,0,0-.69.22,4.61,4.61,0,0,0-.87.82,7.9,7.9,0,0,1-3.09,3,9.47,9.47,0,0,1-4.55,1.06A10.12,10.12,0,0,1,29.56,59,9.25,9.25,0,0,1,26,55a14.53,14.53,0,0,1-1.3-6.48,13.39,13.39,0,0,1,.89-5.18A7.65,7.65,0,0,1,28,40.05a5.63,5.63,0,0,1,3.45-1.14,4.74,4.74,0,0,1,3.49,1.27,4.5,4.5,0,0,1,1.28,3.34v.95a3.67,3.67,0,0,0,4,3.91,4.48,4.48,0,0,0,3.27-1.19,3.9,3.9,0,0,0,1.22-2.9A6.79,6.79,0,0,0,43.24,40,10.1,10.1,0,0,0,39,37a16.4,16.4,0,0,0-6.44-1.15,16.07,16.07,0,0,0-8.33,2.08,14.5,14.5,0,0,0-5.48,5.67,16.82,16.82,0,0,0-1.94,8.11,14.78,14.78,0,0,0,2,7.69,13.57,13.57,0,0,0,5.38,5.11A16.5,16.5,0,0,0,32,66.3,15.72,15.72,0,0,0,38.58,65a11.91,11.91,0,0,0,4.52-3.47,8.25,8.25,0,0,0,1.8-4.74,2,2,0,0,0-.2-1.07A.75.75,0,0,0,44,55.29Z" transform="translate(-16.84 -9.78)" style="fill:#5a4339"/><path d="M79.56,60.43a.68.68,0,0,0-.45.15,2.16,2.16,0,0,0-.37.37,6.49,6.49,0,0,1-.58.62,1.39,1.39,0,0,1-1,.32,1.21,1.21,0,0,1-1-.42,2,2,0,0,1-.36-1.29V44.29a7.56,7.56,0,0,0-2.75-6.16q-2.74-2.28-8.37-2.28A21.11,21.11,0,0,0,57,37.06a11.47,11.47,0,0,0-4.69,3.07,5.83,5.83,0,0,0-1.59,3.79,3.22,3.22,0,0,0,1,2.49,4.15,4.15,0,0,0,2.9.9,5.41,5.41,0,0,0,3.47-1,3.43,3.43,0,0,0,1.24-2.86V40.77a2.35,2.35,0,0,1,1-1.88,4.36,4.36,0,0,1,2.78-.78,4.06,4.06,0,0,1,3.09,1.18,4.75,4.75,0,0,1,1.1,3.35v8.6c-.4-.11-.8-.23-1.24-.32a17.87,17.87,0,0,0-3.59-.34q-6.15,0-9.57,2.36a7.19,7.19,0,0,0-3.42,6.17,6.33,6.33,0,0,0,2.5,5.2,10.19,10.19,0,0,0,6.51,2,14.46,14.46,0,0,0,6-1.3A11.61,11.61,0,0,0,68,62.59,4,4,0,0,0,69.49,65a7,7,0,0,0,4.39,1.26,7.3,7.3,0,0,0,3.54-.78,5.79,5.79,0,0,0,2.16-1.9,4,4,0,0,0,.72-2.15,1.3,1.3,0,0,0-.19-.75A.59.59,0,0,0,79.56,60.43Zm-16.93,2a4.26,4.26,0,0,1-3.15-1.22,4.73,4.73,0,0,1-1.22-3.48,4.61,4.61,0,0,1,1.44-3.6,5.71,5.71,0,0,1,4-1.29,9.69,9.69,0,0,1,2.34.27,11.73,11.73,0,0,1,1.27.41v7.18a7.63,7.63,0,0,1-1.47,1A7,7,0,0,1,62.63,62.38Z" transform="translate(-16.84 -9.78)" style="fill:#5a4339"/><path d="M110.59,55.29a1.16,1.16,0,0,0-.69.22,5.31,5.31,0,0,0-.87.82,7.77,7.77,0,0,1-3.09,3,9.47,9.47,0,0,1-4.55,1.06A10.12,10.12,0,0,1,96.16,59a9.32,9.32,0,0,1-3.59-4,14.53,14.53,0,0,1-1.3-6.48,13.58,13.58,0,0,1,.89-5.18,7.65,7.65,0,0,1,2.41-3.31A5.64,5.64,0,0,1,98,38.91a4.73,4.73,0,0,1,3.48,1.27,4.46,4.46,0,0,1,1.28,3.34v.95a3.93,3.93,0,0,0,1,2.83,4,4,0,0,0,3,1.08,4.46,4.46,0,0,0,3.27-1.19,3.9,3.9,0,0,0,1.22-2.9A6.79,6.79,0,0,0,109.84,40a10.13,10.13,0,0,0-4.2-3.07,16.48,16.48,0,0,0-6.45-1.15,16.07,16.07,0,0,0-8.33,2.08,14.4,14.4,0,0,0-5.47,5.67,16.71,16.71,0,0,0-1.94,8.11,14.77,14.77,0,0,0,2,7.69,13.64,13.64,0,0,0,5.38,5.11,16.52,16.52,0,0,0,7.86,1.82,15.71,15.71,0,0,0,6.54-1.3,11.91,11.91,0,0,0,4.52-3.47,8.33,8.33,0,0,0,1.81-4.74,2.07,2.07,0,0,0-.2-1.07A.77.77,0,0,0,110.59,55.29Z" transform="translate(-16.84 -9.78)" style="fill:#5a4339"/><path d="M146.17,60.43a.69.69,0,0,0-.46.15,2.58,2.58,0,0,0-.37.37,6.49,6.49,0,0,1-.58.62,1.38,1.38,0,0,1-1,.32,1.21,1.21,0,0,1-1-.42,2,2,0,0,1-.35-1.29V44.29a7.59,7.59,0,0,0-2.75-6.16q-2.76-2.28-8.38-2.28a21.11,21.11,0,0,0-7.66,1.21,11.54,11.54,0,0,0-4.69,3.07,5.83,5.83,0,0,0-1.59,3.79,3.22,3.22,0,0,0,1,2.49,4.16,4.16,0,0,0,2.91.9,5.4,5.4,0,0,0,3.46-1,3.43,3.43,0,0,0,1.24-2.86V40.77a2.35,2.35,0,0,1,1-1.88,4.36,4.36,0,0,1,2.78-.78,4,4,0,0,1,3.09,1.18,4.75,4.75,0,0,1,1.1,3.35v8.6c-.39-.11-.79-.23-1.24-.32a17.87,17.87,0,0,0-3.59-.34q-6.15,0-9.57,2.36a7.19,7.19,0,0,0-3.42,6.17,6.31,6.31,0,0,0,2.51,5.2,10.19,10.19,0,0,0,6.51,2,14.42,14.42,0,0,0,6-1.3,11.78,11.78,0,0,0,3.46-2.41A3.9,3.9,0,0,0,136.09,65a7,7,0,0,0,4.39,1.26,7.37,7.37,0,0,0,3.55-.78,5.84,5.84,0,0,0,2.15-1.9,4,4,0,0,0,.72-2.15,1.39,1.39,0,0,0-.18-.75A.61.61,0,0,0,146.17,60.43Zm-16.94,2a4.26,4.26,0,0,1-3.15-1.22,4.73,4.73,0,0,1-1.22-3.48,4.61,4.61,0,0,1,1.44-3.6,5.73,5.73,0,0,1,4-1.29,9.63,9.63,0,0,1,2.34.27,11.73,11.73,0,0,1,1.27.41v7.18a7.34,7.34,0,0,1-1.47,1A7,7,0,0,1,129.23,62.38Z" transform="translate(-16.84 -9.78)" style="fill:#5a4339"/><path d="M180.2,43.14a14.12,14.12,0,0,0-5.59-5.38,17.31,17.31,0,0,0-8.33-1.94,17.55,17.55,0,0,0-8.45,2A14.52,14.52,0,0,0,150.05,51a15.41,15.41,0,0,0,2,8,14.26,14.26,0,0,0,5.59,5.41,17.1,17.1,0,0,0,8.31,2,17.51,17.51,0,0,0,8.46-2,14.62,14.62,0,0,0,7.77-13.18A15.54,15.54,0,0,0,180.2,43.14Zm-6.77,13.57a8.56,8.56,0,0,1-1.6,4.39A5.19,5.19,0,0,1,168.45,63a5.56,5.56,0,0,1-4-.74,9.24,9.24,0,0,1-3.2-3.67,22.39,22.39,0,0,1-2.06-6.47,23.45,23.45,0,0,1-.38-6.74A8.38,8.38,0,0,1,160.43,41a5.22,5.22,0,0,1,3.37-1.93,5.68,5.68,0,0,1,4,.75,9,9,0,0,1,3.2,3.67A22.64,22.64,0,0,1,173,50,22.81,22.81,0,0,1,173.43,56.71Z" transform="translate(-16.84 -9.78)" style="fill:#5a4339"/></svg>