<svg id="Layer_1" data-name="Layer 1" xmlns="http://www.w3.org/2000/svg" viewBox="0 0 1116.11 213.31"><path d="M895.84,81.86a24.3,24.3,0,0,0-7.31-3c-2.3-.54-3.28,3-1,3.55,5.55,1.3,10,4.74,13.58,9h4.77A38,38,0,0,0,895.84,81.86Z" transform="translate(127.08 121.95)" style="fill:#44322b"/><path d="M778.77-57a113.28,113.28,0,0,1,12.1,34.15,138.76,138.76,0,0,1,2.29,21.42c.08,2.36,3.76,2.37,3.68,0-.84-25.42-8-50.81-24-71a97.38,97.38,0,0,0-14.64-14.91,1.89,1.89,0,0,0-2.6,0,1.84,1.84,0,0,0,0,2.6A97.06,97.06,0,0,1,778.77-57Z" transform="translate(127.08 121.95)" style="fill:#44322b"/><path d="M855,86a28.65,28.65,0,0,0-3.6,5.35h4.23a19.06,19.06,0,0,1,7-6.85A12.79,12.79,0,0,1,869.83,83a1.52,1.52,0,0,0,1.41-.58,3.61,3.61,0,0,0,.68.6c1.86,1.22,4.33.35,6.33,0,2.19-.42,3.84-1.49,4.21-3.84a16.36,16.36,0,0,0-.2-5.58,20,20,0,0,0-5-9.69A18.84,18.84,0,0,0,866.68,58a1.9,1.9,0,0,0-2.26,1.28,1.86,1.86,0,0,0,1.28,2.27,16.15,16.15,0,0,1,12.48,10.88,14.34,14.34,0,0,1,.75,4.3,5.18,5.18,0,0,1-.15,2.08c-.25.5-1.14.51-1.69.61-.85.16-1.72.4-2.57.48-.58.06-.63,0-.83-.55A33.88,33.88,0,0,0,872,74.77a17.43,17.43,0,0,0-7.87-7.6c-2.12-1-4,2.16-1.85,3.18a13.94,13.94,0,0,1,7.19,7.76c.14.38.25.77.36,1.17,0,0,0,0,0,0C864.15,78.83,858.65,81.78,855,86Z" transform="translate(127.08 121.95)" style="fill:#44322b"/><path d="M760.17-12.26a235.92,235.92,0,0,1-14.78-43.9,212.71,212.71,0,0,1-4.29-26.17,1.9,1.9,0,0,0-1.84-1.84,1.85,1.85,0,0,0-1.84,1.84A222.76,222.76,0,0,0,747.12-36,261,261,0,0,0,765.82,7.5c4.25,7.91,8.87,15.6,13.78,23.11,1.29,2,4.48.13,3.18-1.86A295.26,295.26,0,0,1,760.17-12.26Z" transform="translate(127.08 121.95)" style="fill:#44322b"/><path d="M989,49.26l-.33.57c-1.16,2.16-2.12,4.42-3.3,6.57-1,1.86-2.31,3.49-4.56,3.7-2,.2-2.88-1.33-3.87-2.85-3-4.53-6.5-8.72-9.61-13.17-6.1-8.72-11.63-18-15.08-28.08a74.1,74.1,0,0,1-3.78-29.95q.29-3.42.87-6.83a1.76,1.76,0,0,0,.28-1.4,74.56,74.56,0,0,1,6.06-18.46c3.91-8,9.44-15.54,16.88-20.63,1-.66,2-1.28,3-1.86a10.64,10.64,0,0,0,.49,1.78,7.09,7.09,0,0,0,6.74,4.14,3.87,3.87,0,0,0,3.38-1.87,5.14,5.14,0,0,0,.36-2.9c.85.75,1.67,1.54,2.46,2.35v-5c-.88-.77-1.78-1.51-2.71-2.21a30.63,30.63,0,0,1,1.12-7c.53.48,1.06.94,1.59,1.41v-4.93A239,239,0,0,1,968.76-98c-1.38-1.6-2.72-3.22-4-4.86.87-1.06,1.73-2.12,2.59-3.19A174,174,0,0,0,988.64-83.5l.39.34v-5a170.33,170.33,0,0,1-17.28-18.15c-.72-.89-1.42-1.79-2.12-2.7q4.92-6.33,9.43-13H974.6q-3.18,4.62-6.56,9.06c-.4-1.28-.88-2.53-1.37-3.76-.73-1.79-1.53-3.55-2.38-5.3h-4.07c2.13,4,4.23,8.35,4.93,12.77q-3.66,4.61-7.52,9.05a75.05,75.05,0,0,0-11.1-20.41,2.5,2.5,0,0,0-.46-.46c0-.32.11-.63.16-1h-3.7c-.1.59-.21,1.17-.3,1.75a40.09,40.09,0,0,0-6.91,3.28,48.57,48.57,0,0,0-6,4.35c-.91-3.12-1.78-6.24-2.6-9.38H923l.12.47c3.9,15,8.86,29.7,13.83,44.38a1.86,1.86,0,0,0,3.07.81A320.07,320.07,0,0,0,962.33-100,219.2,219.2,0,0,0,978.6-82.18a56.67,56.67,0,0,0-2.69,9.46,38.34,38.34,0,0,0-.64,5.6c-16.56,8.43-26,27-29.31,44.69C931.56-6.24,917.19,10,903.83,27.06c-6.54,8.36-12.67,17-18.56,25.79-1.23,1.84-2.67,3.88-4.75,4.8s-4.07,0-5.88-1.15S871,54,869.06,52.91c-1.37-.74-2.68-1.56-4-2.41a106.69,106.69,0,0,1-10.5-7.82,55.64,55.64,0,0,1-4.49-4.19,20.06,20.06,0,0,1-1.46-1.71c-.18-.25-.36-.5-.52-.77s-.45-.95-.3-.54a1.9,1.9,0,0,0-2-1.23v-.12c0-7.41-1.34-14.78-2.76-22a260,260,0,0,0-11.65-42.48c-2.55-6.74-5.36-13.9-10.78-18.89-4.85-4.46-12.15-7-18.51-4.41a2.2,2.2,0,0,0-1.14,1c-4.43-10.81-10.2-21-18.32-29.56a87.71,87.71,0,0,0-7.52-7,47.58,47.58,0,0,0-8.27-5.89A43.09,43.09,0,0,0,756.62-99a22.82,22.82,0,0,0-10.13-.37,26.15,26.15,0,0,0-5.1,2.12l-.24.11-.06-.15c-3.85-6.56-7.52-15.1-15.28-17.76-3.35-1.15-7.85-1-10.4,1.78-1.93-2.92-3.91-5.8-5.87-8.7h-4.4l1.71,2.5c2.54,3.7,5,7.42,7.43,11.21l.15.18a1.6,1.6,0,0,0,.1.23c1,1.7,2.87,2.88,4.46,4a24.93,24.93,0,0,1,8.15,8.63c-4.13,1.86-7.22,6.32-9.31,10.25a72.75,72.75,0,0,0-7,21.82c-.13.76-.24,1.53-.36,2.3A479.29,479.29,0,0,1,685.82-103q-4.79-9.33-9-18.9h-4a409.68,409.68,0,0,0,20.41,40c5.16,8.9,10.62,17.62,16.28,26.21a1.8,1.8,0,0,0,.36.41,82.91,82.91,0,0,0-.21,15.51,147,147,0,0,0,2.68,16.92q1.31,6.29,3,12.49a1.73,1.73,0,0,0-.44.57C707.66,4.28,700.51,19.2,700,35.32a98.27,98.27,0,0,0,1.74,21l.15.72c-.92-1.71-1.8-3.44-2.61-5.2a155.58,155.58,0,0,1-8.33-22.94A203,203,0,0,1,684.4-5.43c-.58-5.61-1-11.22-1.84-16.8s-1.94-11.15-3.15-16.68c-4.91-22.5-11.81-44.51-16.52-67q-1.67-8-3.2-16H656q.75,3.89,1.51,7.76c2.27,11.32,4.82,22.55,7.73,33.73,3,11.68,6.2,23.32,9,35.05,2.56,10.84,4.92,21.82,5.93,32.92a238.62,238.62,0,0,0,5.68,36.24,173,173,0,0,0,8.49,25.79,80.7,80.7,0,0,0,6.92,13.58,19.77,19.77,0,0,0,1.23,1.66,1.47,1.47,0,0,0,1.76.5,47.71,47.71,0,0,0,1.92,4.47,69.94,69.94,0,0,0,6.67,10.35c1.41,1.88,2.84,3.76,4.23,5.66a61.86,61.86,0,0,1,3.53,5.6h4.3c-1.22-1.93-2.21-4-3.52-5.91s-2.75-3.74-4.14-5.59A93.18,93.18,0,0,1,710.4,70c-5.07-8.95-6.19-19.41-6.68-29.51-.74-15.45,5-29.81,11.73-43.43.41-.83.83-1.65,1.24-2.48.19.61.36,1.23.55,1.83.93,3,1.92,6,3.12,9A76.46,76.46,0,0,0,712,52.56a1.87,1.87,0,0,0,2.27,1.29,1.9,1.9,0,0,0,1.28-2.27,72.21,72.21,0,0,1,6.74-41.94c.32.62.65,1.23,1,1.83A84.24,84.24,0,0,0,730.25,21q3,3.74,6.27,7.21a1.7,1.7,0,0,0-2.09,1.26,75.94,75.94,0,0,0-1.74,30.42A1.85,1.85,0,0,0,735,61.19a1.87,1.87,0,0,0,1.28-2.26A71.7,71.7,0,0,1,738,30.47a1.81,1.81,0,0,0,.06-.68l.23.24a92,92,0,0,0,14.11,11.55,1.85,1.85,0,0,0-.67,1.81,34,34,0,0,1-5.1,24.36c-1.3,2,1.89,3.83,3.18,1.85a37.79,37.79,0,0,0,5.64-26.07c3.47,2.13,7.05,4.06,10.61,6,2.54,1.41,5,3,7.54,4.41a52.23,52.23,0,0,1-5.86,17.46,34.14,34.14,0,0,1-5.26,7.3,40,40,0,0,1-8,6,49.43,49.43,0,0,1-9.34,4.46,50.7,50.7,0,0,1-5,1.47c-1.23.29-2.48.45-3.72.68h13.27c.76-.33,1.52-.67,2.27-1,6.23-3,12.14-7.14,16.24-12.78a50.89,50.89,0,0,0,7.7-16.75c2.71,10.65,7.7,20.46,12,30.56h3.88c0-.1-.09-.21-.14-.32-1.25-3-2.57-5.89-3.87-8.83a1.78,1.78,0,0,0,1.94-.87A36.81,36.81,0,0,1,812,61.57q-1.59,6.66-3.56,13.23-2.57,8.4-5.8,16.56h3.92c1.22-3.16,2.4-6.35,3.48-9.57a1.33,1.33,0,0,0,.14.19,23.29,23.29,0,0,1,3.43,5.16,18.61,18.61,0,0,1,1.11,2.7c.16.5.31,1,.45,1.52h7.25c.62-.7,1.24-1.41,1.83-2.14A87.35,87.35,0,0,0,830.76,80a1.65,1.65,0,0,0,.77-1.27c1.37-2.29,2.65-4.65,3.83-7a52.34,52.34,0,0,1,5.1,10.58,42.11,42.11,0,0,1,1.76,9.09h3.69A46.51,46.51,0,0,0,844,81.29a63.94,63.94,0,0,0-6.77-13.6,124.11,124.11,0,0,0,4.65-12.21,79.94,79.94,0,0,0,3.68-16.65,29.79,29.79,0,0,0,4.69,5,106.54,106.54,0,0,0,10,7.91c1.53,1.08,3.09,2.13,4.69,3.12s3.06,1.68,4.52,2.64c2.07,1.37,4,3,6.38,3.8a8.37,8.37,0,0,0,7.11-.77A17.24,17.24,0,0,0,888.23,55c1.47-2.16,2.87-4.38,4.35-6.54,3.1-4.53,6.34-9,9.65-13.36,7-9.28,14.44-18.27,22-27.14C931.05,0,938-8,945-15.86a77,77,0,0,0,1.71,26c.2.84.42,1.67.65,2.5l-.09.1c-7.17,9.85-15,19.23-21.69,29.47-3.75,5.78-7,11.84-10.27,17.92a49.35,49.35,0,0,0-4.44,10.26,50.48,50.48,0,0,0-1.42,11.49c-.11,3.16-.09,6.31,0,9.46h3.68c-.08-2.34-.13-4.69-.09-7A61.15,61.15,0,0,1,914,73.18a39.65,39.65,0,0,1,4.05-10.34c3.12-6,6.33-11.86,9.93-17.52,3-4.69,6.22-9.18,9.57-13.6,3.72-4.91,7.49-9.79,11.16-14.74a107.73,107.73,0,0,0,11.81,23.58c3.14,4.84,6.53,9.51,10,14.11,1.63,2.16,3.06,4.49,4.74,6.6a6.38,6.38,0,0,0,5.71,2.5c4.18-.39,6.3-3.24,8-6.48ZM937.7-86.35c-2.49-7.41-4.94-14.86-7.19-22.36a46.07,46.07,0,0,1,6.67-5,35.43,35.43,0,0,1,4.38-2.24Q939.28-101.2,937.7-86.35Zm3.26,4q1.69-16.9,4.32-33.69a71.8,71.8,0,0,1,9.55,19,.05.05,0,0,1,0,0Q948.15-89.44,941-82.36Zm38.53,10.45a53,53,0,0,1,2-7.44c1,.93,2,1.84,3,2.76a2,2,0,0,0-.09.22,33.87,33.87,0,0,0-1.72,8.5,36.32,36.32,0,0,0,.08,4.78c0,.69,0,1.49.16,2.19h-.54l-.53-.1-.54-.16a7.46,7.46,0,0,1-1-.58,3.73,3.73,0,0,1-.52-.53,1.1,1.1,0,0,0-.16-.3,8.91,8.91,0,0,1-.51-2.66,1.63,1.63,0,0,0,0-1.46v-.4A29,29,0,0,1,979.49-71.91ZM818.33-46.4c4.41,4.24,6.86,10,9,15.66a225.64,225.64,0,0,1,8.16,25.91,171,171,0,0,0-15.14-16.93,1.73,1.73,0,0,0-1.13-.54,219.64,219.64,0,0,0-5.88-27.44A17.53,17.53,0,0,1,818.33-46.4ZM803.1-50.15a12.24,12.24,0,0,1,6.56-.7,1.75,1.75,0,0,0-.08,1.23,215.47,215.47,0,0,1,6,27.93c-1.82,1.23-3.59,2.52-5.31,3.89-.09-.87-.18-1.75-.29-2.62a126.42,126.42,0,0,0-6.51-25.66c-.49-1.37-1-2.74-1.53-4.1A1.47,1.47,0,0,0,803.1-50.15Zm-80.44-55.64c-.87-.63-1.77-1.2-2.64-1.82a7.61,7.61,0,0,1-2.22-1.92C717-111,720.05-111.89,721-112c4-.44,7.51,2.25,9.86,5.2,2.61,3.27,4.57,7.12,6.66,10.74a4.33,4.33,0,0,1-1.4-.21,1.59,1.59,0,0,0-2,.79,1.73,1.73,0,0,0-.82-.42,10.35,10.35,0,0,0-2.5-.21.76.76,0,0,0-.06-.16A26,26,0,0,0,722.66-105.79ZM774.05,50c-3.95-2.4-8-4.59-12-6.86a101.08,101.08,0,0,1-13.07-8.53,97.51,97.51,0,0,1-15-14.85c-3.92-4.78-7.66-9.7-10-15.45a134.87,134.87,0,0,1-5.43-16.88c-2.89-11-5.52-22.47-5.43-33.9a95,95,0,0,1,3.36-24.76c1.67-6,4-12.32,8-17.18,1.92-2.33,4.67-4.65,7.92-3.95a1.8,1.8,0,0,0,2-.91,1.81,1.81,0,0,0,.82.54c4,1.33,7.39-1.33,11-2.68,2.85-1.07,6-.75,9-.15a38.78,38.78,0,0,1,9.75,3.45,42.77,42.77,0,0,1,7.68,5.39,81.78,81.78,0,0,1,13.39,14,91.4,91.4,0,0,1,9.76,16.87,150.32,150.32,0,0,1,7.8,21.69A96.59,96.59,0,0,1,807.15-8.3,84.82,84.82,0,0,1,803,17.76q-1.1,3.34-2.44,6.62a22.83,22.83,0,0,0-1.5,4.25,61.18,61.18,0,0,0-.84,9.17,48.82,48.82,0,0,1-.85,8.78,14.14,14.14,0,0,1-2,4.29c-.33.53-.67,1.05-1,1.55,0,0,.14-.17-.09.1-.1.12-.2.25-.31.37a10.31,10.31,0,0,1-.73.75l-.37.32-.08.07-.07,0a8.44,8.44,0,0,1-1,.58l-.39.2L791,55c-.42.13-.83.24-1.25.33a5.79,5.79,0,0,1-1,.1,12.07,12.07,0,0,1-1.59,0,16.64,16.64,0,0,1-3.43-.72A42.78,42.78,0,0,1,774.05,50Zm12.47,29.44c-1.56-3.58-3.07-7.17-4.4-10.84a87.37,87.37,0,0,1-3.42-12,34.36,34.36,0,0,0,4.21,1.59c4.18,1.24,8.79,1.35,12.33-1.48a18.21,18.21,0,0,0,5.11-7.35,30.24,30.24,0,0,0,1.41-8.92c.16-2.82.2-5.66.5-8.47a2,2,0,0,0,.5-.31,46.7,46.7,0,0,1,13.43-7.42A1.88,1.88,0,0,0,817.47,22a1.84,1.84,0,0,0-2.26-1.28,51.13,51.13,0,0,0-11.71,5.92c.78-2.13,1.76-4.2,2.5-6.33a87,87,0,0,0,3.52-13.66,89.76,89.76,0,0,0,1.15-20l.17-.12c.6-.51,1.2-1,1.82-1.5l.45-.36.22-.18s.29-.22.1-.07.06-.05.1-.08l.23-.17.51-.39c.63-.47,1.27-.94,1.92-1.39A218.94,218.94,0,0,1,818,12.66a222.27,222.27,0,0,1-5,44.83A40.19,40.19,0,0,0,786.52,79.45Zm36.87,5a70.08,70.08,0,0,1-4.74,5.67,27.18,27.18,0,0,0-5.85-10.7,1.76,1.76,0,0,0-1.8-.45q3.24-10.11,5.5-20.5a52.38,52.38,0,0,1,11.12,19.7C826.29,80.28,824.9,82.39,823.39,84.41Zm15.82-32.73a112.48,112.48,0,0,1-9.13,22.24,56.8,56.8,0,0,0-11.37-18.55,1.63,1.63,0,0,0-1.46-.55c.41-2,.81-4.11,1.16-6.17a226.43,226.43,0,0,0,2.85-24.9c8,6.73,13.06,16,17.9,25a1.73,1.73,0,0,0,.66.7C839.63,50.23,839.43,51,839.21,51.68ZM841,44.45c-4.63-8.57-9.71-17.09-17.25-23.4a1.88,1.88,0,0,0-2.33-.09,222.64,222.64,0,0,0-1.22-36.14c-.07-.57-.15-1.15-.22-1.72,6.47,6.63,12.81,13.45,17.41,21.54a2,2,0,0,0,.5.59c.34,1.52.66,3,1,4.58,1.4,6.9,2.83,13.88,3.19,20.93A56.53,56.53,0,0,1,841,44.45Z" transform="translate(127.08 121.95)" style="fill:#44322b"/><path d="M736.77-3.7a126.93,126.93,0,0,1-11-40.88,213.78,213.78,0,0,1-1-26.42c0-2.36-3.64-2.36-3.68,0-.26,15.5.73,31.14,4.42,46.24a117,117,0,0,0,17.61,39.27,136,136,0,0,0,17.48,20.25c1.71,1.63,4.32-1,2.6-2.61A122.76,122.76,0,0,1,736.77-3.7Z" transform="translate(127.08 121.95)" style="fill:#44322b"/><path d="M420.26,75.05c-6.86-7.6-14-14.9-21.33-22.08-14.58-14.33-29.69-28.13-44-42.74s-27.69-29.86-38.65-47c-1.17-1.83-2.3-3.69-3.42-5.56,1-.92,2-1.84,3-2.78A175,175,0,0,0,334-19.52c7.69,9.17,16,17.76,24.56,26.14,9.54,9.36,19.32,18.47,29.05,27.64C398.32,44.37,409,54.54,419.3,65Q432,77.87,443.94,91.36h4.85q-11-12.63-22.71-24.66C415.69,56,405,45.63,394.14,35.38,384.39,26.15,374.55,17,364.91,7.67,356.2-.77,347.63-9.39,339.66-18.54a181.2,181.2,0,0,1-19.42-26.34c-.55-.94-1.09-1.89-1.62-2.84a227.11,227.11,0,0,0,21.6-23.85,183.75,183.75,0,0,0,21.9-35.64,1.89,1.89,0,0,0,.09-.21q3.29-7.12,5.85-14.53h-3.87c-1,2.85-2.09,5.67-3.26,8.44a70.39,70.39,0,0,0-3.27-8.44h-4.14c.63,1.29,1.24,2.58,1.79,3.89a60,60,0,0,1,3.25,9.87A171.92,171.92,0,0,1,344.07-83a68.34,68.34,0,0,0-15.87-35.5c-1-1.18-2.09-2.32-3.19-3.42h-5.36a64.47,64.47,0,0,1,19.28,31.56,61.22,61.22,0,0,1,1.88,11.49,2.2,2.2,0,0,0,.06.37Q335.37-71,329.18-64c-1.67-14-8.18-28-18.43-37.73q4-10.16,8.3-20.17h-4q-3.25,7.59-6.33,15.25c-10.75-3.47-22-.64-32.2,3.41v-.08a157.1,157.1,0,0,1,1.53-15.88,55.55,55.55,0,0,1,7.22-2.7h-10.5c-2.89,17.87-2.51,36.24-.54,54.23,1.72,15.82,4.59,31.48,7.47,47.12a1.84,1.84,0,0,0,2.7,1.09,325.11,325.11,0,0,0,25.63-20.33A223.39,223.39,0,0,0,323.63-19.9a60.71,60.71,0,0,0-4,9.06,36.34,36.34,0,0,0-1.41,5.35c-18.2,6.26-30.33,24-36,41.73A77,77,0,0,0,279,67.75a93.18,93.18,0,0,0,6,23.61h3.94A97.9,97.9,0,0,1,283.83,75,73.5,73.5,0,0,1,284,43.84C287.89,26.41,298.06,8.29,314.53,0c1.11-.56,2.25-1,3.4-1.5a12,12,0,0,0,.28,2c.66,2.72,3.65,4.75,6.35,4.91A3.7,3.7,0,0,0,328,3.78a5.83,5.83,0,0,0,.62-2.49,59.79,59.79,0,0,1,10.64,19.6,96.16,96.16,0,0,1,5,28.07,80.66,80.66,0,0,1-3.67,27.78,50.56,50.56,0,0,1-7.73,14.62h4.58A46.08,46.08,0,0,0,341,85.45c4.41-8.9,6.41-19,6.88-28.83a102.19,102.19,0,0,0-3-29.86c-2.34-9.27-6.07-18.43-11.94-26a46.15,46.15,0,0,0-3.86-4.41,29.76,29.76,0,0,1,2.12-6.69c4.86,5.85,9.94,11.51,15.17,17,14.05,14.84,29.08,28.7,43.77,42.89,7.36,7.12,14.64,14.32,21.66,21.77,6.14,6.51,12,13.29,17.81,20.06h4.9C429.79,85.89,425.1,80.4,420.26,75.05ZM309.29-98a59.63,59.63,0,0,1,16.55,37.7q-4,4.35-8.25,8.5c-.21-1.33-.5-2.65-.81-3.94a88.25,88.25,0,0,0-3-9.53c-2.44-6.58-5.44-13.17-9.67-18.82.6-1.69,1.19-3.37,1.81-5Q307.6-93.64,309.29-98Zm-32.86-1.26c9.71-4,20.61-7.13,31-4q-3.43,8.76-6.61,17.63a40.77,40.77,0,0,0-23.92,5.52C276.45-86.5,276.28-92.9,276.43-99.31ZM277.16-76a37.34,37.34,0,0,1,22.37-6.11q-3.37,9.61-6.45,19.35A44.81,44.81,0,0,0,279.28-57C278.4-63.35,277.68-69.66,277.16-76Zm6.6,46.05c-1.4-7.69-2.75-15.4-3.9-23.14a46.78,46.78,0,0,1,7.34-4,34.13,34.13,0,0,1,4.63-1.58Q287.45-44.41,283.76-29.93Zm2.67,4.44q4.11-16.47,9.1-32.71a72.57,72.57,0,0,1,6.73,20.25Q294.55-31.47,286.43-25.49Zm19-15.2a75.43,75.43,0,0,0-7.87-21.46,2,2,0,0,0-.13-.25l-.17-.32a2.41,2.41,0,0,0-.25-.35q2.68-8.46,5.6-16.84a75.94,75.94,0,0,1,7.63,15.57,85.4,85.4,0,0,1,2.89,9.25,26.68,26.68,0,0,1,1,6.39.43.43,0,0,0,0,.11Q309.92-44.54,305.46-40.69ZM324.83,2l0,0C324.83,2,324.8,2,324.83,2Zm.16-.2h0l0,0Zm3.62-15.28A34.33,34.33,0,0,0,325.7-5.7,38.94,38.94,0,0,0,325-1c-.07.85-.13,1.71-.16,2.56v.19a2.31,2.31,0,0,0-.27,0,3.67,3.67,0,0,1-1.22-.43,3.18,3.18,0,0,1-1.6-1.68,9.06,9.06,0,0,1-.11-2.95,1.94,1.94,0,0,0,.14-1.21s0,0,0-.08A29.57,29.57,0,0,1,323-9.54a49.78,49.78,0,0,1,3.07-7.16c.83,1.06,1.67,2.11,2.51,3.16Z" transform="translate(127.08 121.95)" style="fill:#44322b"/><path d="M238.07-101.21a1.85,1.85,0,0,0,1.84,1.84,1.87,1.87,0,0,0,1.84-1.84,65.36,65.36,0,0,0-1-20.74H237A63.1,63.1,0,0,1,238.07-101.21Z" transform="translate(127.08 121.95)" style="fill:#44322b"/><path d="M255.8-108.07a1.85,1.85,0,0,0,1.84,1.83,1.87,1.87,0,0,0,1.84-1.83,65.06,65.06,0,0,0,.08-13.88h-3.7A63.16,63.16,0,0,1,255.8-108.07Z" transform="translate(127.08 121.95)" style="fill:#44322b"/><path d="M457.13,30.92c-4.4-16.24-8.39-32.59-12.12-49q-.57-2.52-1.13-5.06c1.72-1.22,2.8-4,3.79-5.82,1.22-2.24,3-4.25,4.33-6.4s2.72-4.51,3.93-6.85a76.72,76.72,0,0,0,8.5-30.15,85.74,85.74,0,0,0-4-30.63,99,99,0,0,0-8.09-19h-4.22A93,93,0,0,1,454.82-108a89.33,89.33,0,0,1,6,27.79,71.33,71.33,0,0,1-4.76,28.83,80.42,80.42,0,0,1-6.8,13.49c-1.35,2.17-2.85,4.21-4.29,6.32-1,1.4-1.48,3.05-2.36,4.5-.11.17-.51.6-.67.87-.38-.21-.92-.61-1.19-.8a17.84,17.84,0,0,0-4.08-2.54,53.53,53.53,0,0,1-11-5.61C410.1-45.47,399.23-62.44,394.9-80.44A95.63,95.63,0,0,1,392.47-109a70.84,70.84,0,0,1,2-13h-3.83c-.31,1.34-.57,2.65-.8,3.91a94.71,94.71,0,0,0-.06,30.75c3.06,20,13,38.91,28.95,51.59a70.38,70.38,0,0,0,6.11,4.34,1.91,1.91,0,0,0,.07.52c5.4,18.67,10,37.56,14.51,56.48,4.65,19.69,9.05,39.44,13.34,59.22.47,2.17,1,4.33,1.46,6.5H458l-.57-2.53q-3.09-14.3-6.26-28.56C446.6,39.79,441.89,19.34,436.76-1c-2.35-9.31-4.79-18.59-7.41-27.82.38.2.74.41,1.13.59.95.46,1.92.89,2.9,1.3l1.55.62.62.23c.06,0,.52.23.57.23,1.41.8,2.57,2,4,2.77h0c3.7,16.59,7.66,33.13,12,49.56,3.81,14.41,7.92,28.75,12.5,42.94q3.56,11,7.57,21.94h3.9q-3.47-9.3-6.56-18.73C465,58.85,460.91,44.92,457.13,30.92Z" transform="translate(127.08 121.95)" style="fill:#44322b"/><path d="M216.81-121.74l.19-.21h-2.88A1.75,1.75,0,0,0,216.81-121.74Z" transform="translate(127.08 121.95)" style="fill:#44322b"/><path d="M447.15-48.5a155.91,155.91,0,0,0-14.72-66.58c-1.07-2.32-2.2-4.6-3.37-6.87h-4.15a157.57,157.57,0,0,1,17.52,54.52,144.24,144.24,0,0,1,1,18.93C443.45-46.14,447.13-46.13,447.15-48.5Z" transform="translate(127.08 121.95)" style="fill:#44322b"/><path d="M443.89-40c-10.73-21.84-18.2-45.16-23.94-68.77-1.06-4.38-2-8.78-3-13.19h-3.78c4.73,22.14,10.75,44.06,19.2,65.08q3.83,9.51,8.33,18.74C441.76-36,444.93-37.87,443.89-40Z" transform="translate(127.08 121.95)" style="fill:#44322b"/><path d="M617.31-112.77c8.37,4.16,16.73,8.34,25,12.76,2.86,1.54,5.7,3.1,8.47,4.77,1,.63,2.07,1.27,3.07,1.95l1.06.76.09.07.08.06.45.38c.19.17.36.36.54.54a.94.94,0,0,1,.12.22,1.86,1.86,0,0,0,2.52.65,1.88,1.88,0,0,0,.66-2.51c-.58-1.33-2.2-2.32-3.32-3.11l-1-.69a191.85,191.85,0,0,0-3.32-25H647.9c.34,1.62.67,3.24,1,4.87,1.06,5.88,1.77,11.82,2.24,17.78l-1.52-.87c-7.22-4.11-14.66-7.87-22.08-11.61q-10.18-5.13-20.41-10.17h-8.4C604.9-118.9,611.12-115.86,617.31-112.77Z" transform="translate(127.08 121.95)" style="fill:#44322b"/><path d="M981.65,38a1.9,1.9,0,0,0,1.28,2.26,1.86,1.86,0,0,0,2.27-1.28,267.58,267.58,0,0,0,1.19-72.23q-1.21-10.08-3.17-20c-.46-2.32-4-1.34-3.55,1a263.93,263.93,0,0,1,4.23,70.41Q983.15,28,981.65,38Z" transform="translate(127.08 121.95)" style="fill:#44322b"/><path d="M974.58-53.69c1.09-2.1-2.08-4-3.17-1.86a103.1,103.1,0,0,0-6.87,78.21,103.11,103.11,0,0,0,9,20.43c1.18,2,4.36.2,3.18-1.85a99.27,99.27,0,0,1-10.06-74.38A99.65,99.65,0,0,1,974.58-53.69Z" transform="translate(127.08 121.95)" style="fill:#44322b"/><path d="M417.64-52.21a101,101,0,0,0,14.75,17.35c1.73,1.62,4.33-1,2.6-2.6a98.55,98.55,0,0,1-22.4-31.4,95,95,0,0,1-8.45-37.35,88.2,88.2,0,0,1,1.17-15.74h-3.72a94.4,94.4,0,0,0,.73,33A101.73,101.73,0,0,0,417.64-52.21Z" transform="translate(127.08 121.95)" style="fill:#44322b"/><path d="M815-99.8c2.23,9,5.06,17.94,8.09,26.75a1.79,1.79,0,0,0,.69,2c.19.55.37,1.1.57,1.64,2.1,6,4.24,12,6,18a46.88,46.88,0,0,0,3.42,7.91,115.08,115.08,0,0,0,6,10.28c4.68,7.18,10.06,14.33,16.75,19.76a34.69,34.69,0,0,0,4.58,3.23c1.93,1.12,4,1.93,6,2.92C872-4.9,876.66-2.13,881.34.56c3.39,1.95,7,4.24,10.81,5.22a5.85,5.85,0,0,0,4.12-.16,7.14,7.14,0,0,0,2.2-2.43c4.81-6.57,9.88-12.91,14.23-19.8a75.3,75.3,0,0,0,6.5-12.34,132.41,132.41,0,0,0,5-15.55,69.47,69.47,0,0,0,2.52-15.74,31.42,31.42,0,0,0-.6-7.37c-.38-1.81-1.12-3.49-1.65-5.26-2.54-8.39-3.26-17.35-4.41-26-.56-4.26-1.12-8.54-1.94-12.76-.67-3.39-1.67-6.72-2.56-10.06,0-.08-.05-.16-.07-.25h-5.23c.23.22.48.43.71.66a1.77,1.77,0,0,0,1,.49c.05.21.11.42.17.63.85,3.16,1.78,6.3,2.41,9.51,1.24,6.3,2,12.69,2.79,19.06a129.52,129.52,0,0,0-36.26-24,131.59,131.59,0,0,0-12.44-4.75,1.66,1.66,0,0,0-.9-.06c-.12-.51-.25-1-.37-1.54h-3.79c.33,1.35.66,2.7,1,4a119.61,119.61,0,0,0-34.1,32.58c-1.79,2.56-3.47,5.21-5,7.91-2.56-7.49-5-15-6.88-22.7a112.42,112.42,0,0,1,14.1-21.84H828q-3,3.81-5.64,7.84t-5,8.48c-.82-3.79-1.5-7.61-2-11.46-.2-1.61-.33-3.23-.42-4.86h-3.6A122.12,122.12,0,0,0,815-99.8Zm34.25,73.4a112.39,112.39,0,0,1-11.18-16.9,92.48,92.48,0,0,1,25.62-34,86.41,86.41,0,0,1,7.52-5.57c.44,2.6.88,5.19,1.35,7.79q2.3,12.73,5,25.4l-.13.07a67.42,67.42,0,0,0-24.52,27.58Q851-24.18,849.24-26.4ZM891.89,1.84c-3.86-1.39-7.44-3.73-11-5.78-4.55-2.63-9.1-5.29-13.87-7.52a37.33,37.33,0,0,1-9.41-5.92c-.68-.6-1.34-1.23-2-1.87A64,64,0,0,1,878.4-45.89c.63,2.81,1.27,5.62,1.94,8.43,3,12.67,6.33,25.45,11.35,37.49.29.69.6,1.36.9,2C892.35,2,892.12,1.93,891.89,1.84Zm9.83-9C899.8-4.6,897.83-2.06,895.9.53c-4.9-11-8-22.87-10.93-34.51-.76-3.08-1.5-6.17-2.2-9.26a82,82,0,0,1,23.78,29.38C905-11.59,903.33-9.37,901.72-7.19Zm14.16-23.32a68.77,68.77,0,0,1-7,13.15,85.48,85.48,0,0,0-27.35-31.3q-2.64-12-4.86-24.09-.94-5.13-1.82-10.28a122.76,122.76,0,0,1,34.22,36.36,123.65,123.65,0,0,1,7.2,13.55,1.18,1.18,0,0,0,.36.46C916.41-31.94,916.15-31.22,915.88-30.51Zm-8.58-65q5,4,9.6,8.52a1.72,1.72,0,0,0,1.2.53c.1.68.19,1.36.3,2a95.22,95.22,0,0,0,2.43,12.05c.46,1.62,1.15,3.18,1.57,4.81a25.73,25.73,0,0,1,.71,6.6,63.4,63.4,0,0,1-2.35,15.29c-.72,2.77-1.54,5.52-2.43,8.25A126.4,126.4,0,0,0,886.49-78.7,128.56,128.56,0,0,0,874.05-88q-.51-3-1-6.11-1.83-11.22-4.31-22.32A125.54,125.54,0,0,1,907.3-95.52ZM856.93-108c2.75-2.17,5.62-4.19,8.56-6.08q1.63,7.39,3,14.86c.73,4.11,1.41,8.24,2.09,12.37a95.38,95.38,0,0,0-30.09,30.92,90.26,90.26,0,0,0-4.52,8.46c-1.89-4.13-3-8.6-4.55-13-1.43-4.07-2.88-8.16-4.31-12.25A116.09,116.09,0,0,1,856.93-108Z" transform="translate(127.08 121.95)" style="fill:#44322b"/><path d="M590.5-66.19l-.21-.5c-.75-4.5-1.59-9-2.25-13.5-.47-3.23-.83-6.48-1-9.73a48.22,48.22,0,0,0-.79-7.09c-1.92-9.06-6.8-17.61-12.43-24.94h-4.65c.51.63,1,1.26,1.5,1.9a75.76,75.76,0,0,1,7.76,12.32,46.57,46.57,0,0,1,4.52,13c.44,2.52.4,5.11.63,7.66.28,3.09.69,6.16,1.16,9.23v0a117.16,117.16,0,0,0-6.5-10,93.32,93.32,0,0,0-16.79-18.26,2.34,2.34,0,0,0-.89-.45q1.56-7.68,2.78-15.42h-3.7q-1.22,7.53-2.74,15a62.34,62.34,0,0,0-30,1.78c1.12-1,2.23-2,3.36-3q3.69-3.18,7.48-6.23c.91-.74,1.82-1.46,2.74-2.19L541-117l.36-.28.74-.56c1.63-1.25,2.95-2.81,4.56-4.09h-5.4l-.17.18c.13-.13.1,0,.06,0a7.64,7.64,0,0,1-.95.72q-2.55,2-5.05,4c-13.07,10.53-25.79,22.13-35.74,35.71-5.78,7.89-9.72,16.81-13.17,25.92-3.23,8.52-5.92,17.24-8.39,26a1.58,1.58,0,0,0-.58,2.05l-.36,1.27c-1.67,6-3,12.24-5.22,18.11A36.81,36.81,0,0,0,470-.5c-.55,3.79-.89,7.62-1.06,11.44-.38,8.52-.1,17.29,1.86,25.62a36,36,0,0,0,4.12,10.34A150.74,150.74,0,0,1,482,60.75,105.63,105.63,0,0,0,488,72.48c1.35,2.13,3.53,5.17,6.48,4.4,2.51-.65,5-1.68,7.47-2.49,4.11-1.33,8.19-2.72,12.23-4.27a110.4,110.4,0,0,0,13.15-5.86A92.41,92.41,0,0,0,539.43,56a99.55,99.55,0,0,0,12.41-11.07c3.34-3.61,6.42-7.67,8.07-12.35.58-1.67.93-3.41,1.52-5.08.67-1.9,1.45-3.76,2.28-5.59,1.9-4.21,4-8.32,6.13-12.43,3.82-7.41,7.68-14.74,10.5-22.61,2.95-8.24,6-16.48,8.36-24.91a87.24,87.24,0,0,0,2.76-12.59,44.3,44.3,0,0,0-.61-12.48c-.1-.7-.22-1.4-.33-2.1A1.38,1.38,0,0,0,590.5-66.19Zm-94.21-3.22c3.94-7.76,9.51-14.62,15.39-21,2.59-2.81,5.28-5.52,8-8.17a2,2,0,0,0,.68-.18,58.26,58.26,0,0,1,35.73-4.61Q553.57-91.61,550.32-80c-.77,2.74-1.59,5.46-2.42,8.17a115.08,115.08,0,0,0-47.33,8.36q-4.51,1.84-8.84,4C493.13-62.83,494.64-66.15,496.29-69.41ZM489.64-54.2A111.54,111.54,0,0,1,535.82-68c3.64-.26,7.29-.33,10.93-.24q-4.14,13-9.21,25.68a118.65,118.65,0,0,0-46.79,7.38c-2.86,1.07-5.68,2.27-8.45,3.55C484.48-39.23,486.84-46.81,489.64-54.2ZM473.84-1.36c.82-4.74,2.64-9.25,3.91-13.88,1.07-3.88,2.13-7.77,3.21-11.65A115.06,115.06,0,0,1,525.54-38.8q5.26-.3,10.55-.12-2.9,7-6.06,13.92c-1.75,3.79-3.54,7.56-5.33,11.33a95.63,95.63,0,0,0-42.53,8.33,90.46,90.46,0,0,0-8.38,4.28C473.81-1.16,473.82-1.26,473.84-1.36ZM472.6,21.57a114.59,114.59,0,0,1,.54-17.95A90.6,90.6,0,0,1,523-10c-1.11,2.34-2.21,4.68-3.28,7q-5.4,11.85-10.42,23.87l-.29-.05a67.53,67.53,0,0,0-35.81,8.72C472.87,26.84,472.71,24.15,472.6,21.57Zm19.93,48c-.17.78-.31,1.56-.46,2.34a23,23,0,0,1-2-3.14c-2.19-3.94-4-8.09-5.92-12.15-2.13-4.48-4.54-8.74-6.94-13.08a34,34,0,0,1-3.44-10.14,63.88,63.88,0,0,1,34-9c-1.1,2.7-2.19,5.4-3.25,8.11C499.83,44.64,495.29,56.94,492.53,69.61Zm20.11-2.81c-3.91,1.48-7.87,2.8-11.83,4.09-1.7.55-3.42,1.08-5.12,1.66,2.27-11.76,6.39-23.21,10.62-34.37q1.72-4.55,3.53-9A81.49,81.49,0,0,1,512.64,66.8Zm20.83-25.62a120.67,120.67,0,0,1-1.78,15,1.92,1.92,0,0,0,0,.9,62.15,62.15,0,0,1-6.3,3.95,92,92,0,0,1-8.87,4.18A85.36,85.36,0,0,0,512,24q4.6-11.19,9.61-22.23c1.47-3.27,3-6.54,4.5-9.79A123.68,123.68,0,0,1,533.47,41.18ZM560.4,20.32a88.67,88.67,0,0,0-3.8,10.52c-1.33,4.37-4.31,8.16-7.36,11.47a95.26,95.26,0,0,1-12.18,10.88c-.44.34-.88.66-1.31,1a127.3,127.3,0,0,0-2.52-51.73,125.4,125.4,0,0,0-4.9-14.86l-.1-.2q1.26-2.65,2.53-5.33,4.95-10.37,9.29-21l.08,0A126.69,126.69,0,0,1,559.84.28a125.8,125.8,0,0,1,3,12.54,1.61,1.61,0,0,0,.6,1Q561.88,17.05,560.4,20.32Zm12.26-24.5c-2.17,4.48-4.5,8.87-6.78,13.29a129.59,129.59,0,0,0-16-40.25A126.19,126.19,0,0,0,542.46-42a2.39,2.39,0,0,0-.91-.74q4.8-12.13,8.77-24.57a93.54,93.54,0,0,1,23.75,36.12,94.62,94.62,0,0,1,3.55,12.46,1.64,1.64,0,0,0,.53.94A131.09,131.09,0,0,1,572.66-4.18Zm15-45.88c-1.34,8.6-4.23,17-7.07,25.19-.14.39-.28.78-.41,1.18a97.81,97.81,0,0,0-19.49-37.92,93.36,93.36,0,0,0-9.19-9.57c.18-.56.36-1.12.53-1.68q4.44-14.76,7.67-29.85A91.09,91.09,0,0,1,575-86a105.23,105.23,0,0,1,11.73,20.27c.25,1.5.49,3,.7,4.52A37,37,0,0,1,587.69-50.06Z" transform="translate(127.08 121.95)" style="fill:#44322b"/><path d="M698.45,88.19q-3.33-5.18-6.32-10.56-1.82-3.25-3.51-6.56c-.39-.78-.79-1.56-1.17-2.35l-.27-.6L687,67.7a90.93,90.93,0,0,1-4.27-14.1c-1.54-6.51-2.78-13.1-3.92-19.69-2.79-16.18-4.93-32.46-7-48.74-2.09-16.47-3.74-33-6.23-49.43-.86-5.65-2-11.43-4.72-16.51s-7-8.7-11.66-11.76c-1.47-1-3-1.86-4.51-2.73a1.74,1.74,0,0,0-.81-.24,30.14,30.14,0,0,0-3.16-2,1.86,1.86,0,0,0-.68-.22,1.7,1.7,0,0,0-1.49-.25l-.61.17a2.25,2.25,0,0,0-.38-.23q-24.33-11.65-48.33-24h-8q23.58,12.26,47.52,23.8L633.28-96C621.49-90.28,615-77.37,609-66.2c-5.51,10.25-12.75,19.56-18.4,29.73a1.6,1.6,0,0,0-.74,1.34c-1.31,2.43-2.52,4.92-3.59,7.48-5.09,12.22-4.84,25.74-4.68,38.75.08,6.37.1,12.77.37,19.13a72.36,72.36,0,0,0,2.46,17.13A74.86,74.86,0,0,0,588.73,58a54,54,0,0,1,3.84,10.72c.29,1.26.53,2.53.73,3.8a1.86,1.86,0,0,0,2.71,1.1c12.15-8.47,20.57-20.85,28.27-33.26,7-11.32,14.72-22.31,20.91-34.13A112.22,112.22,0,0,0,657-31.2c1.44-10.78,2.72-21.73,2.59-32.62a39,39,0,0,0-2.67-14.94,43.72,43.72,0,0,0-2-4.25c.48.57.94,1.15,1.37,1.77,3.07,4.41,4.37,9.65,5.29,14.89,1.33,7.48,2.09,15.08,3,22.62,1.05,8.5,2.08,17,3.15,25.51,2.06,16.47,4.2,32.94,6.9,49.32,1.14,6.85,2.37,13.69,3.87,20.46a119.41,119.41,0,0,0,4.17,15.08C685.14,73.45,689,79.85,692.76,86q1.63,2.68,3.36,5.33h4.42C699.83,90.31,699.13,89.26,698.45,88.19ZM634.88-92.66l.47-.22q-.42,9.6-1.49,19.13a44.2,44.2,0,0,0-19.43,5.09C619.51-78.21,625-87.76,634.88-92.66ZM608.56-57.94c.89-1.48,1.74-3,2.59-4.56a1.73,1.73,0,0,0,.74-.31,40.61,40.61,0,0,1,21.54-7.25q-1.5,11.81-4,23.44a75,75,0,0,0-32.7,6.94C600.58-45.84,604.86-51.78,608.56-57.94Zm-21,37.64a64.26,64.26,0,0,1,5.7-13.47,71.15,71.15,0,0,1,35.35-9.17q-1.73,7.52-3.84,14.93c-.86,3-1.77,6-2.71,8.92A75,75,0,0,0,585.52-6.22,63.08,63.08,0,0,1,587.58-20.3Zm-2.21,37.24c-.12-6.18-.21-12.36,0-18.53a71.49,71.49,0,0,1,35.52-13.72c-2.4,7.34-5,14.63-7.55,21.91A74.46,74.46,0,0,0,585.4,19.19Zm.1,6.78a70.15,70.15,0,0,1,26.38-13c-2.74,7.75-5.46,15.51-7.94,23.35-.2.64-.39,1.28-.59,1.92a42.73,42.73,0,0,0-16.08,7.43C585.81,37,585.57,30.35,585.47,23.72Zm10.28,42.76a54.27,54.27,0,0,0-2.5-7.34c-1.35-3.15-3-6.23-4.12-9.28-.33-.89-.63-1.79-.91-2.7a2.31,2.31,0,0,0,.52-.31,38.42,38.42,0,0,1,13.33-6.74A238.53,238.53,0,0,0,595.75,66.48Zm3.76-.26a239.32,239.32,0,0,1,6.1-25,56.1,56.1,0,0,1,4,14.11.32.32,0,0,0,0,.09A82.12,82.12,0,0,1,599.51,66.22ZM612.6,51.36a58.48,58.48,0,0,0-5-14.68,1.51,1.51,0,0,0-.44-.53c2.34-7.48,4.9-14.9,7.51-22.29a170.52,170.52,0,0,1,5.78,25.36,1.09,1.09,0,0,0,.07.24C618,43.49,615.37,47.5,612.6,51.36Zm11.6-17.8-.78,1.24a170.56,170.56,0,0,0-6.11-24.69A1.81,1.81,0,0,0,616.36,9c.18-.51.36-1,.55-1.55,2.45-6.91,4.88-13.82,7.17-20.79a74.81,74.81,0,0,1,9.2,30.76,1.82,1.82,0,0,0,.49,1.15C630.62,23.6,627.36,28.56,624.2,33.56ZM643.66,1.13c-2.14,4.38-4.53,8.63-7,12.8A79,79,0,0,0,626-17.34a2,2,0,0,0-.48-.54c.61-1.94,1.23-3.89,1.82-5.84Q630-32.36,632-41.14a53.87,53.87,0,0,1,16.17,29,1.64,1.64,0,0,0,.5.94A100,100,0,0,1,643.66,1.13Zm10.05-35.36a124.31,124.31,0,0,1-3.13,16.47,57.1,57.1,0,0,0-17.25-27.13,2.62,2.62,0,0,0-.43-.28c.84-3.89,1.61-7.81,2.28-11.74s1.29-8,1.8-12.08a42.76,42.76,0,0,1,17.4,24.35,1.7,1.7,0,0,0,.46.81C654.49-40.62,654.11-37.41,653.71-34.23Zm2.15-32a126.44,126.44,0,0,1-.27,14A46.55,46.55,0,0,0,637.54-73l-.07,0q1.2-10.53,1.61-21.12a32.06,32.06,0,0,1,12.84,13.34A33.07,33.07,0,0,1,655.86-66.27Z" transform="translate(127.08 121.95)" style="fill:#44322b"/><path d="M118.22-64.56A308.16,308.16,0,0,1,110.43-5q-1.92,8.3-4.3,16.48c-.66,2.27,2.89,3.25,3.55,1a313,313,0,0,0,11.18-59.79q.77-8.6,1-17.23C122-66.93,118.29-66.92,118.22-64.56Z" transform="translate(127.08 121.95)" style="fill:#44322b"/><path d="M54.72,40.73c-2.83-9.49-7.6-18.16-12.83-26.52C37.15,6.62,32-.66,26.59-7.82a1.93,1.93,0,0,0-1.21-1.61l-1.61-2.14c-2.36-3.1-4.74-6.18-7.07-9.3-1.36-1.84-2.55-3.8-3.9-5.65C8.7-32.17,3.13-36.92-2.3-41.24-9-46.61-16.36-51.68-24.5-54.69c-4-1.48-8.11-1.73-12.29-2.42-5.28-.88-10.47-2.11-15.7-3.21-3.62-.75-7.6-1.8-11.33-1.36a5.16,5.16,0,0,0-3.46,1.55,9.72,9.72,0,0,0-1.35,3.27c-2.7,7.91-5.61,15.74-7.62,23.86C-78.62-23.4-79-13.59-78.41-3.75a70.74,70.74,0,0,0,2.27,15,34.07,34.07,0,0,0,2.41,6.25,35.92,35.92,0,0,0,3.17,4.71,77.57,77.57,0,0,1,6.07,10.44c2.16,4.25,4.17,8.58,6.2,12.9,1.88,4,3.74,8,5.84,11.82,1.64,3,3.57,5.86,5.43,8.75,4.9,7.61,9.85,15.21,15.45,22.34.76,1,1.54,1.92,2.33,2.86h4.87c-4.91-5.09-8.95-11.18-12.86-17-1-1.44-1.93-2.9-2.89-4.35A97.54,97.54,0,0,0,2,77.61,99,99,0,0,0,15,76.12c.71,1,1.41,2,2.13,3q4.55,6.23,9.34,12.25h4.68Q27.49,86.82,24,82.14c-2.11-2.8-4.17-5.64-6.2-8.49A115.91,115.91,0,0,0,39.85,31.19c.88-3.19,1.61-6.41,2.21-9.66,1.89,3.28,3.68,6.63,5.32,10.06,3.58,7.5,5.54,15.78,7,23.93.7,3.92,1.26,7.86,1.72,11.82a2.11,2.11,0,0,0-.22.55A58.54,58.54,0,0,1,45.11,91.36h4.55A62.24,62.24,0,0,0,57,77.24c.07,1,.15,2,.22,3,.23,3.72.4,7.45.49,11.17H61.4c0-.57,0-1.14,0-1.72C60.87,73.28,59.41,56.48,54.72,40.73Zm-48.15-69a29.69,29.69,0,0,1,3.67,4.46c1.33,2.11,2.79,4.11,4.29,6.1,2.73,3.61,5.48,7.22,8.21,10.85A116.06,116.06,0,0,1,5.21,35.64c-2,3-4.14,5.84-6.41,8.61C-3.08,41-4.94,37.74-6.72,34.44c-2.62-4.82-5.12-9.7-7.62-14.59A95.55,95.55,0,0,0,4.9-19C5.62-22,6.16-25.12,6.57-28.23Zm-19.74-16.4A113.74,113.74,0,0,1,3.27-31.55a91.66,91.66,0,0,1-14,40.24,90.64,90.64,0,0,1-5.44,7.61c-1-1.87-1.94-3.74-2.93-5.61q-6.43-12.12-13.29-24l0,0a67.84,67.84,0,0,0,15-33.83C-15.95-46.39-14.54-45.53-13.17-44.63ZM-62.42-58.09c4,0,8,1.1,11.83,1.94,5.19,1.13,10.38,2.29,15.65,3a54,54,0,0,1,6,.9,34.79,34.79,0,0,1,5,1.66c1.08.46,2.15,1,3.2,1.49A63.54,63.54,0,0,1-34.35-16.73c-1.27-2.17-2.54-4.34-3.84-6.49-6.93-11.5-14.2-23-22.9-33.27-.46-.54-.94-1.06-1.41-1.59Zm-6.29,12.64c1.12-3.37,2.34-6.71,3.5-10.07l0-.06c8.22,9.21,15,19.8,21.42,30.27,1.5,2.44,3,4.89,4.44,7.36A81.8,81.8,0,0,1-70.92-38.63C-70.22-40.93-69.47-43.2-68.71-45.45Zm-6.07,26.62A71.05,71.05,0,0,1-72.1-34.56,85.43,85.43,0,0,0-36.52-13.14Q-30-1.93-23.9,9.49q2.14,4,4.21,8A123,123,0,0,1-63.39-6.64,123.92,123.92,0,0,1-74.27-17.26a1.83,1.83,0,0,0-.55-.41C-74.81-18.06-74.79-18.45-74.78-18.83Zm16.43,53a1.83,1.83,0,0,0-1.36-.13c-.48-1-1-2-1.45-2.94A83.17,83.17,0,0,0-67.09,20.8a51.21,51.21,0,0,1-3-4.3,28.14,28.14,0,0,1-2.38-5.86C-74.68,3.18-75.08-4.79-75-12.61A127,127,0,0,0-32.11,16.92,126.08,126.08,0,0,0-17.36,22h0q2.28,4.44,4.58,8.87,4.39,8.4,9.2,16.57A126.08,126.08,0,0,1-58.35,34.2ZM-30.2,69.78a89.85,89.85,0,0,1-12.07-4.72,1.93,1.93,0,0,0-1.18-.16l-.78-1.19c-1.78-2.77-3.61-5.51-5.18-8.41-2.92-5.42-5.48-11-8.1-16.6A130.71,130.71,0,0,0-15.79,50.45a129.36,129.36,0,0,0,13.35.74A1.81,1.81,0,0,0-1.51,51Q5.2,62.11,12.66,72.8A93.57,93.57,0,0,1-30.2,69.78Zm52.44-8.41a107.5,107.5,0,0,1-6.68,9.18Q7.74,59.35.77,47.61A119.53,119.53,0,0,0,23.29,6.19q1.38-4.49,2.38-9.08C30.4,3.49,35,10,39.15,16.69A112.41,112.41,0,0,1,22.24,61.37Z" transform="translate(127.08 121.95)" style="fill:#44322b"/><path d="M-105.22,87.06a1.69,1.69,0,0,0-1.06-.3c-1.68-4.51-3.29-9.05-4.94-13.56-.53-1.46-1.08-2.93-1.63-4.4A174.8,174.8,0,0,0-89.31,79,1.62,1.62,0,0,0-88,79l1.07,1.66q3.51,5.38,7.07,10.74h4.43q-4.48-6.69-8.88-13.46a74.54,74.54,0,0,0,7-29.81l2.48,1.84c4.75,3.49,9.47,7,14.05,10.74,0,0,0,.08,0,.11a71.34,71.34,0,0,1-7.44,30.58h4.08a75.21,75.21,0,0,0,6.94-27.73A62.26,62.26,0,0,1-47.09,74.09a66.81,66.81,0,0,1,7,12.52c-.22,1.59-.5,3.18-.83,4.75h6.72c-.68-1.78-1.38-3.56-2.13-5.31v0a1.52,1.52,0,0,0-.62-1.34,79.27,79.27,0,0,0-3.72-7.36C-47.13,66-57.68,58.18-67.92,50.51c-5-3.71-9.92-7.42-14.94-11a76.78,76.78,0,0,0-15.82-9.1c-7.17-2.91-15-3.37-22.11-6.59-1.18-.53-2.33-1.11-3.47-1.72A1.86,1.86,0,0,0-127,23.66c-.71,16.13,5.11,31.3,10.65,46.15,2.67,7.16,5.16,14.41,7.92,21.55h10.7A75.83,75.83,0,0,1-105.22,87.06Zm7.54-52.25c6,2.74,11.39,6.59,16.69,10.54a70.6,70.6,0,0,1-5.69,28.9c-4.47-6.85-9-13.69-13.66-20.39-.41-.58-.83-1.16-1.24-1.75A42.71,42.71,0,0,0-97.68,34.81ZM-113.89,30c3.44.87,7,1.47,10.35,2.51.75.23,1.49.49,2.23.76a1.58,1.58,0,0,0,0,.38,39.13,39.13,0,0,1-2.74,15,237.71,237.71,0,0,0-17.07-21A50,50,0,0,0-113.89,30Zm-6.86,15.3a81.06,81.06,0,0,1-2.48-14.59,236.46,236.46,0,0,1,16.16,20,55,55,0,0,1-13.37-5.3Zm6,18.33c-1.65-4.47-3.26-9-4.63-13.52A58.12,58.12,0,0,0-105,55a2.19,2.19,0,0,0,.92,0c4.54,6.42,8.88,13,13.17,19.56a167.6,167.6,0,0,1-23.41-10.71A2.09,2.09,0,0,0-114.77,63.67Z" transform="translate(127.08 121.95)" style="fill:#44322b"/><path d="M165.54-41.58c10.27,5.19,18,14.23,22.52,24.74a1.85,1.85,0,0,0,2.51.66,1.89,1.89,0,0,0,.66-2.52c-4.73-11-13.07-20.62-23.84-26.06C165.29-45.83,163.42-42.66,165.54-41.58Z" transform="translate(127.08 121.95)" style="fill:#44322b"/><path d="M177.53-7.42a169.22,169.22,0,0,1,12.54,40.7,94.61,94.61,0,0,1,1.18,23c-.19,2.36,3.49,2.34,3.68,0,1.15-14.29-1.56-28.81-5.64-42.47a187.92,187.92,0,0,0-16.11-38.22,101,101,0,0,0-9.62-14.5,1.86,1.86,0,0,0-2.6,0,1.88,1.88,0,0,0,0,2.6C167.89-27.77,173.08-17.45,177.53-7.42Z" transform="translate(127.08 121.95)" style="fill:#44322b"/><path d="M320.58,91.36h4.17A106.11,106.11,0,0,0,336.8,31.6a104,104,0,0,0-3.27-17.93,1.84,1.84,0,0,0-3.55,1,102.63,102.63,0,0,1-2.2,60.82A98.73,98.73,0,0,1,320.58,91.36Z" transform="translate(127.08 121.95)" style="fill:#44322b"/><path d="M311.72,91.36h3.81A267.66,267.66,0,0,0,324.36,30q.25-10.21-.26-20.44c-.12-2.35-3.8-2.37-3.68,0a263.9,263.9,0,0,1-6,70.84Q313.21,85.89,311.72,91.36Z" transform="translate(127.08 121.95)" style="fill:#44322b"/><path d="M130.45,61.17c.12-10.42.55-20.83,1.4-31.21.61-.82,1.23-1.64,1.81-2.48.83-1.19,1.6-2.4,2.33-3.65,1.52,6.89,4.87,13.22,8.71,19.17a88.42,88.42,0,0,0,7.51,10.41,50.78,50.78,0,0,0,9.07,8.13c7.28,5.12,15.63,7.64,24.45,8.38,2.51.21,5,.3,7.56.34,1.8,0,3.84.09,5.31-1.11,2-1.63,3.2-4.34,4.31-6.57a61.64,61.64,0,0,0,5.5-15.95,117.77,117.77,0,0,0,2-23.26A100.29,100.29,0,0,0,207.47.43a127.9,127.9,0,0,0-8.91-25.36c-3.65-7.52-8.27-14.56-14.63-20.06-6-5.22-13.4-9.2-21.34-10.46a37.6,37.6,0,0,0-5.8-.47A12.43,12.43,0,0,0,155.54-58a22.78,22.78,0,0,0-5.81-5.35,34.3,34.3,0,0,0-3-1.81,1.67,1.67,0,0,0,.69-1.4,45.31,45.31,0,0,1,1.44-12.17,43.37,43.37,0,0,1,3.92-8.84c1,1.91,2.13,3.79,3.3,5.62a1.68,1.68,0,0,0,.66,1c1,1.49,2,3,3.07,4.38A69.18,69.18,0,0,0,173-63.35c5.16,3.91,10.7,7.34,15.06,12.19a1.85,1.85,0,0,0,3.07-1.79c-1.45-4.17-.32-8.49,1.06-12.52,1.43-4.2,3.13-8.29,4.81-12.39,2.71-6.6,5.39-13.24,7-20.18a47.76,47.76,0,0,0,4.52,10,32.52,32.52,0,0,0,5.22,6.74,38.6,38.6,0,0,0,7.45,5.36,48.32,48.32,0,0,0,8.81,4,75.15,75.15,0,0,0,9,2c2.16.43,4.13,1.54,6.29,2a4.92,4.92,0,0,0,5.46-2.17,49,49,0,0,0,3.5-6,56.7,56.7,0,0,1,3.41-5.06,94,94,0,0,0,6.09-9.25c4.59-8.42,5.52-18.07,5.74-27.5,0-1.33,0-2.65-.08-4h-3.61a81.61,81.61,0,0,1-.85,15.71,43,43,0,0,1-3,11c-2.9,6.65-8.07,11.84-11.45,18.18a26.78,26.78,0,0,1-3.35,5.4c-.19.21-.16.2-.32.2.19,0-.46-.07-.61-.1a21.73,21.73,0,0,1-3.5-1.07,21.19,21.19,0,0,0-2.59-.85c-1.27-.3-2.61-.38-3.9-.63a41.52,41.52,0,0,1-8.72-2.69c-5.8-2.53-11.26-6.12-14.82-11.44a44.07,44.07,0,0,1-6.6-16.59l.64-.41c3.59-2.28,7.24-4.42,10.88-6.61,1.14-.69,2.26-1.4,3.38-2.12a32.88,32.88,0,0,0,5.58,22c1.34,1.94,4.53.1,3.17-1.85a29.26,29.26,0,0,1-5-20.79,2.18,2.18,0,0,0-.4-1.7q2.73-1.94,5.3-4.09c.6-.51,1.17-1.06,1.76-1.59h-5.62c-1.65,1.34-3.36,2.61-5.11,3.8-3.4,2.29-7,4.3-10.48,6.39-4.41,2.61-8.57,5.88-13.51,7.45a14.08,14.08,0,0,1-2.93.65,10.28,10.28,0,0,1-1.24,0l-.57,0h-.13l-.19,0c-.33-.07-.65-.16-1-.26a1.42,1.42,0,0,1-.64-.27c-.26-.15-.51-.3-.76-.47l-.06,0,0,0c-.13-.1-.25-.21-.37-.32a8.21,8.21,0,0,1-.59-.59l-.41-.49c-.3-.39-.57-.8-.84-1.21a11.76,11.76,0,0,1-1.78-3.83c-.83-3.51-.81-7.15-1.14-10.74H180.4c.22,2,.32,4.11.51,6.15a25.15,25.15,0,0,0,1.56,7.88,18,18,0,0,0,1.94,3.23,10.26,10.26,0,0,0,7.32,4.68,17.77,17.77,0,0,0,9.43-2,102.28,102.28,0,0,1-5.91,18.85,35.15,35.15,0,0,0-23.2-18q-1-4-1.79-8c-.85-4.23-1.54-8.49-2.1-12.78h-3.71q1.2,9.32,3.28,18.48a1.62,1.62,0,0,0-1.07.59,49.3,49.3,0,0,0-9.33,16,94.77,94.77,0,0,1-6.79-14.64c-.68-1.84-1.32-3.7-1.9-5.59a1.72,1.72,0,0,0,.47-.6,110.4,110.4,0,0,1,8-14.23h-4.41c-2,3.12-3.76,6.4-5.43,9.7a44.36,44.36,0,0,1-.95-6.27c-.09-1.14-.12-2.28-.12-3.43h-3.66c0,.46,0,.91,0,1.37a1.82,1.82,0,0,0-1.71,1.25l0,0a2,2,0,0,1-.1.21c-.12.21-.24.42-.37.62a10.42,10.42,0,0,1-1,1.36,40.18,40.18,0,0,1-3.09,3.17,88.89,88.89,0,0,1-7.95,6.55c-2.43,1.79-5.07,3.22-7.51,5-1.59,1.14-3.22,2.69-5.16,3.17s-3.43-.71-4.62-2a44.8,44.8,0,0,1-3.85-5.2c-1.28-1.81-2.6-3.61-3.93-5.39-2.58-3.44-5.24-6.82-7.94-10.16H90.56c.29.36.59.71.88,1.06,3.07,3.75,6.08,7.56,9,11.45,1.41,1.88,2.79,3.79,4.13,5.71a39.49,39.49,0,0,0,4.12,5.4,9.11,9.11,0,0,0,5.76,2.85A8.25,8.25,0,0,0,119-96.69a17.9,17.9,0,0,0-6.74,9.81c-.77,3-1.39,8.14,2.22,9.45a14.45,14.45,0,0,0,2.62.51,9,9,0,0,0,3,.22,3.25,3.25,0,0,0,1.92-1,1.51,1.51,0,0,0,1.17.44c10.53-1.11,15.11,11,17.42,19.11a100.35,100.35,0,0,1,3.36,31.24,161.4,161.4,0,0,1-4.3,31.09,68.75,68.75,0,0,1-5,14.65,71.92,71.92,0,0,1-8.64,12.83q-5.33,6.65-10.67,13.26c-.8,1-1.59,2-2.4,3a7.07,7.07,0,0,1-2.46,2.25c-2.1.92-4.71-.53-6.45-1.62-3.88-2.45-6.75-6.2-9.2-10a91.8,91.8,0,0,1-6.51-12.08,101.41,101.41,0,0,1-7.85-53.33,97.7,97.7,0,0,1,6.9-26.18l0-.09a2.15,2.15,0,0,0,1-1.6c0-.24,0-.49.08-.73a79.41,79.41,0,0,1,5.11-9.6,31.88,31.88,0,0,1,8.68-9.63,18.3,18.3,0,0,1,5.66-2.6c2.29-.61,1.32-4.16-1-3.55-8.09,2.15-13.6,8.81-17.69,15.84q.23-5.42,0-10.83A58.06,58.06,0,0,0,88-85.48a34.79,34.79,0,0,0-3.59-9,184.72,184.72,0,0,0-18.16-27.5H61.63c3.07,3.83,6.1,7.69,8.9,11.72,3.29,4.73,6.17,9.69,9,14.67a47.66,47.66,0,0,1,4.19,8.47,37.37,37.37,0,0,1,1.54,9.22,120.14,120.14,0,0,1-.52,21.37,100.26,100.26,0,0,0-7,22.58A105.5,105.5,0,0,0,83,23.41c.82,2.09,1.71,4.16,2.67,6.19a1.84,1.84,0,0,0-1,1.49c-1.22,14.83-2.27,29.66-3.49,44.48a114,114,0,0,1-1.32,11.66c-.26,1.4-.61,2.77-1,4.13h3.83a71.23,71.23,0,0,0,1.8-11.54c.7-7.65,1.25-15.33,1.84-23q.85-11.17,1.74-22.34c.41.76.81,1.51,1.24,2.26a51.15,51.15,0,0,0,8.72,11.81c3.38,3.19,8.82,6.94,13.65,4.94,2.47-1,4-3.43,5.63-5.44L123.08,41c1.56-1.94,3.14-3.86,4.71-5.8a485.33,485.33,0,0,0-.67,51.88c.06,1.42.12,2.85.19,4.28H131Q130.27,76.27,130.45,61.17ZM178-64.23a88.73,88.73,0,0,1-7.33-5.86,20.65,20.65,0,0,1,.62-2.67c.13-.45.28-.89.45-1.33.07-.19.14-.38.22-.57l.2-.45a21,21,0,0,1,1.33-2.47c.25-.4.51-.78.78-1.16l.3-.4.28-.35A192,192,0,0,0,183-60.56C181.38-61.81,179.68-63,178-64.23Zm14.36-16.56a1.52,1.52,0,0,0,1.54.93c-.25.62-.5,1.24-.76,1.85-1.71,4.17-3.45,8.34-4.82,12.63a35.27,35.27,0,0,0-1.2,4.76,187.76,187.76,0,0,1-14-36.48A31.65,31.65,0,0,1,192.36-80.79Zm-23.7-18.76q1.84,7.36,4.26,14.59c.24.74.51,1.48.76,2.22a1.55,1.55,0,0,0-1.32.52,23.81,23.81,0,0,0-4.79,9.15c-.52-.54-1-1.09-1.55-1.66a70.48,70.48,0,0,1-6.13-8A45.18,45.18,0,0,1,168.66-99.55ZM196.21,66.37l-.07,0,.08,0Zm-55-133.81c-.24-.54-.48-1.07-.74-1.6-2.19-4.57-5.56-8.71-10.3-10.76A14.2,14.2,0,0,0,123.4-81a11.93,11.93,0,0,1,6.07-7.42c2.11-1.08.25-4.26-1.85-3.18a15.45,15.45,0,0,0-6.23,5.9,14.92,14.92,0,0,0-1.64,4,4.54,4.54,0,0,1-.37,1.38h-.16l-1-.13c-.73-.12-1.49-.2-2.21-.37s-.52-.29-.58-.93a12,12,0,0,1,.24-3.64A14,14,0,0,1,119-91.85a13.15,13.15,0,0,1,7.22-4.09,1.86,1.86,0,0,0,1.28-2.27,1.88,1.88,0,0,0-2.26-1.28,15.57,15.57,0,0,0-4.59,1.7c1.49-1,2.94-2.11,4.52-3,1.2-.72,2.37-1.52,3.52-2.33a95,95,0,0,0,9.68-7.75,31.8,31.8,0,0,0,4.59-4.81,60.65,60.65,0,0,0,2.09,9.52,107.53,107.53,0,0,0,5.66,14.67,55,55,0,0,0-5.46,11.81,48.28,48.28,0,0,0-1.57,13.11c-.66-.27-1.31-.52-2-.76A1.55,1.55,0,0,0,141.21-67.44Zm1.73,4.49a26.72,26.72,0,0,1,8.34,5.56c1.3,1.33,2.75,3.21,2.76,5.18a1.91,1.91,0,0,1-.93,1.77c-.57.31-1.37-.39-1.9-.89A27.3,27.3,0,0,0,145-56l0,0C144.37-58.33,143.71-60.67,142.94-62.95ZM141,12.73c.35-1,.66-2.08,1-3.13a85.58,85.58,0,0,0,23,39c1.69,1.66,4.3-.94,2.6-2.6A81.63,81.63,0,0,1,144.42,4a1.56,1.56,0,0,0-.76-1.11c.46-2.13.87-4.27,1.26-6.41,1-5.53,1.77-11.11,2.24-16.72A116,116,0,0,0,146-51.06l.49.38c1,.83,1.89,1.78,2.89,2.6a5.17,5.17,0,0,0,4.57,1.26,5.21,5.21,0,0,0,3.16-2.62,6,6,0,0,0,.65-2.78c15,.43,27.57,11.12,34.79,23.69a107.14,107.14,0,0,1,9.63,23.28,103.11,103.11,0,0,1,4.34,22.05,119.45,119.45,0,0,1-.61,22.45,62.49,62.49,0,0,1-4,16.79,73.54,73.54,0,0,1-3.37,7,18.9,18.9,0,0,1-1.79,2.79c-.15.17-.33.32-.48.49a1.17,1.17,0,0,1-.3.12c-.28,0-.53.1-.83.13-.6,0-1.22,0-1.82,0-8.63-.14-17.23-1-25-5.07a46.93,46.93,0,0,1-16.8-15c-4.71-6.82-9.49-13.95-11.62-22a32.34,32.34,0,0,1-1-6c0-.07,0-.14,0-.21C139.65,16.46,140.37,14.62,141,12.73Z" transform="translate(127.08 121.95)" style="fill:#44322b"/><path d="M305.27,25.82A100.82,100.82,0,0,1,315.74,7.48c1.38-1.93-1.81-3.76-3.18-1.86a102.31,102.31,0,0,0-15.81,85.74h3.83A99.12,99.12,0,0,1,305.27,25.82Z" transform="translate(127.08 121.95)" style="fill:#44322b"/><path d="M172.26,26c-8.11-14.22-13.92-29.51-15.76-45.85a134.49,134.49,0,0,1-.81-14.88,1.84,1.84,0,0,0-3.68,0,127.13,127.13,0,0,0,2.62,26.18,116,116,0,0,0,7.74,23.32c2,4.47,4.28,8.83,6.71,13.09C170.25,29.88,173.43,28,172.26,26Z" transform="translate(127.08 121.95)" style="fill:#44322b"/><path d="M107.31-66.42c1.16-2.07-2-3.92-3.18-1.86a125.79,125.79,0,0,0-15.91,68,124.61,124.61,0,0,0,2.71,20c.5,2.31,4,1.33,3.54-1A122.16,122.16,0,0,1,99.24-49,116.54,116.54,0,0,1,107.31-66.42Z" transform="translate(127.08 121.95)" style="fill:#44322b"/><path d="M455.49-60a101.84,101.84,0,0,0-3.09-33.65,109.54,109.54,0,0,0-11.25-28.34h-4.27a96.52,96.52,0,0,1,5.86,11.28A112.2,112.2,0,0,1,451.53-78,90.73,90.73,0,0,1,451.81-60C451.6-57.6,455.28-57.62,455.49-60Z" transform="translate(127.08 121.95)" style="fill:#44322b"/><path d="M116.5,21.93c-1.18,2.06,2,3.91,3.18,1.85A120.5,120.5,0,0,0,135.4-40.76a120.51,120.51,0,0,0-2.28-18.74c-.47-2.32-4-1.34-3.55,1a116.9,116.9,0,0,1-5.24,63.87A114.06,114.06,0,0,1,116.5,21.93Z" transform="translate(127.08 121.95)" style="fill:#44322b"/></svg>