<svg id="Layer_1" data-name="Layer 1" xmlns="http://www.w3.org/2000/svg" viewBox="0 0 1922.31 217.64"><path d="M1827.23,208a25.06,25.06,0,0,0-7.46-3.11c-2.35-.55-3.35,3.07-1,3.62,5.67,1.33,10.16,4.84,13.86,9.18h4.87A38.92,38.92,0,0,0,1827.23,208Z" style="fill:#44322b"/><path d="M1707.78,66.22a115.79,115.79,0,0,1,12.34,34.85,141.86,141.86,0,0,1,2.34,21.86c.08,2.41,3.84,2.42,3.76,0-.86-25.95-8.21-51.85-24.45-72.43a99.49,99.49,0,0,0-14.94-15.21,1.94,1.94,0,0,0-2.66,0,1.89,1.89,0,0,0,0,2.65A99.17,99.17,0,0,1,1707.78,66.22Z" style="fill:#44322b"/><path d="M1785.57,212.18a29.27,29.27,0,0,0-3.66,5.46h4.31a19.36,19.36,0,0,1,7.13-7,13.09,13.09,0,0,1,7.33-1.59,1.52,1.52,0,0,0,1.44-.6,3.24,3.24,0,0,0,.7.62c1.89,1.24,4.42.35,6.46,0,2.23-.42,3.92-1.51,4.29-3.9a16.6,16.6,0,0,0-.2-5.71,20.48,20.48,0,0,0-5.14-9.88,19.24,19.24,0,0,0-10.76-6,1.93,1.93,0,0,0-2.31,1.31,1.9,1.9,0,0,0,1.31,2.31,16.49,16.49,0,0,1,12.73,11.1,14.64,14.64,0,0,1,.77,4.4,5.39,5.39,0,0,1-.15,2.12c-.25.5-1.17.51-1.73.62-.86.16-1.75.4-2.62.49-.6.06-.64,0-.85-.56a34.47,34.47,0,0,0-1.7-4.68,17.76,17.76,0,0,0-8-7.75c-2.17-1-4.07,2.2-1.89,3.24a14.23,14.23,0,0,1,7.34,7.92c.14.39.25.79.37,1.19h0C1794.89,204.85,1789.28,207.86,1785.57,212.18Z" style="fill:#44322b"/><path d="M1688.8,111.92a240.67,240.67,0,0,1-15.08-44.8,217.22,217.22,0,0,1-4.38-26.7,1.93,1.93,0,0,0-1.88-1.88,1.89,1.89,0,0,0-1.88,1.88,228.42,228.42,0,0,0,9.9,47.25,266.75,266.75,0,0,0,19.08,44.41c4.34,8.06,9,15.92,14.06,23.58,1.32,2,4.57.13,3.24-1.9A303.48,303.48,0,0,1,1688.8,111.92Z" style="fill:#44322b"/><path d="M1922.31,174.68l-.34.59c-1.18,2.2-2.17,4.51-3.37,6.7-1,1.9-2.36,3.56-4.65,3.78-2.08.2-2.94-1.36-4-2.91-3-4.63-6.63-8.9-9.8-13.44-6.23-8.9-11.87-18.33-15.39-28.65a75.5,75.5,0,0,1-3.85-30.56c.19-2.32.49-4.65.89-7a1.76,1.76,0,0,0,.27-1.42,75.59,75.59,0,0,1,6.2-18.84c4-8.2,9.62-15.86,17.21-21,1-.68,2-1.31,3.07-1.9a12.55,12.55,0,0,0,.5,1.82,7.28,7.28,0,0,0,6.89,4.22,3.93,3.93,0,0,0,3.44-1.91,5.22,5.22,0,0,0,.37-3c.87.76,1.7,1.56,2.51,2.39V58.44c-.9-.77-1.82-1.53-2.77-2.25a31.23,31.23,0,0,1,1.15-7.09c.53.48,1.08.95,1.62,1.43v-5a243,243,0,0,1-20.69-21c-1.4-1.63-2.76-3.29-4.12-5,.89-1.07,1.77-2.16,2.64-3.25a177.17,177.17,0,0,0,21.78,23c.12.12.26.23.39.35V34.52A172.35,172.35,0,0,1,1904.68,16c-.74-.9-1.46-1.82-2.16-2.75,3.34-4.31,6.56-8.73,9.61-13.25h-4.54c-2.17,3.13-4.4,6.22-6.7,9.24-.4-1.3-.89-2.59-1.4-3.83-.74-1.83-1.56-3.63-2.42-5.41h-4.16c2.18,4.08,4.32,8.52,5,13q-3.74,4.7-7.67,9.23a76.49,76.49,0,0,0-11.33-20.83,2.61,2.61,0,0,0-.47-.47c.06-.32.12-.64.17-1h-3.78c-.1.59-.21,1.19-.3,1.78a40.64,40.64,0,0,0-7,3.35,48.94,48.94,0,0,0-6.08,4.43Q1860,4.81,1858.77,0h-3.84c0,.16.07.32.11.47,4,15.31,9,30.31,14.12,45.29a1.91,1.91,0,0,0,3.14.83,329.07,329.07,0,0,0,22.77-24.16,226.29,226.29,0,0,0,16.59,18.15,58.67,58.67,0,0,0-2.74,9.65,38.33,38.33,0,0,0-.65,5.71c-16.9,8.6-26.55,27.51-29.91,45.6-14.69,16.52-29.36,33.08-43,50.5-6.68,8.53-12.93,17.3-18.94,26.31-1.25,1.87-2.72,4-4.85,4.89s-4.15,0-6-1.17-3.7-2.57-5.69-3.66c-1.39-.75-2.74-1.59-4.06-2.46a108.22,108.22,0,0,1-10.71-8,54.45,54.45,0,0,1-4.58-4.28c-.51-.54-1.16-1.27-1.5-1.73-.18-.26-.36-.52-.52-.8-.08-.13-.47-1-.31-.55a2,2,0,0,0-2-1.25.49.49,0,0,0,0-.12c0-7.57-1.37-15.08-2.82-22.48a265.34,265.34,0,0,0-11.88-43.35c-2.61-6.88-5.47-14.18-11-19.27-4.94-4.55-12.39-7.15-18.88-4.5a2.25,2.25,0,0,0-1.16,1c-4.52-11-10.41-21.42-18.69-30.16a91.26,91.26,0,0,0-7.67-7.18,48.54,48.54,0,0,0-8.45-6,43.38,43.38,0,0,0-10.46-3.85,23,23,0,0,0-10.33-.38,26,26,0,0,0-5.21,2.16l-.24.11-.06-.15c-3.92-6.7-7.67-15.41-15.6-18.13-3.41-1.17-8-1-10.61,1.82-2-3-4-5.92-6-8.87h-4.49l1.74,2.55c2.6,3.77,5.15,7.57,7.59,11.43a.94.94,0,0,0,.14.19c0,.08.07.16.11.23,1,1.73,2.93,2.94,4.55,4a25.38,25.38,0,0,1,8.31,8.81c-4.21,1.9-7.36,6.45-9.49,10.46A73.7,73.7,0,0,0,1638.49,60c-.13.78-.25,1.56-.37,2.35a491,491,0,0,1-25.19-43q-4.87-9.51-9.22-19.28h-4.1a419.58,419.58,0,0,0,20.82,40.8c5.27,9.08,10.84,18,16.61,26.74a2.18,2.18,0,0,0,.37.42,84.51,84.51,0,0,0-.21,15.82,148.43,148.43,0,0,0,2.74,17.27q1.33,6.4,3,12.74a2,2,0,0,0-.46.59c-7.3,14.41-14.6,29.63-15.14,46.08a100.35,100.35,0,0,0,1.78,21.39l.15.73q-1.41-2.61-2.66-5.3a157.39,157.39,0,0,1-8.5-23.41,207.11,207.11,0,0,1-6.66-35c-.6-5.72-1-11.44-1.88-17.14s-2-11.38-3.21-17c-5-22.95-12.05-45.41-16.86-68.41q-1.69-8.14-3.26-16.31h-3.82q.76,4,1.54,7.91,3.46,17.34,7.88,34.42c3.1,11.91,6.33,23.79,9.16,35.77,2.61,11.05,5,22.25,6,33.58a245.87,245.87,0,0,0,5.79,37,177.27,177.27,0,0,0,8.67,26.31,82.14,82.14,0,0,0,7.06,13.86,20.46,20.46,0,0,0,1.25,1.69,1.5,1.5,0,0,0,1.8.51,47.05,47.05,0,0,0,2,4.56,70.16,70.16,0,0,0,6.81,10.56c1.43,1.92,2.89,3.84,4.31,5.77a67,67,0,0,1,3.61,5.72h4.38c-1.25-2-2.25-4.12-3.59-6s-2.81-3.81-4.23-5.7a94.92,94.92,0,0,1-6.89-10c-5.18-9.13-6.32-19.8-6.82-30.11-.75-15.77,5.13-30.42,12-44.31.42-.85.85-1.69,1.27-2.53.18.62.36,1.24.55,1.86,1,3,2,6.16,3.19,9.16a78,78,0,0,0-8.51,48.11,1.89,1.89,0,0,0,2.31,1.31,1.92,1.92,0,0,0,1.31-2.3,73.69,73.69,0,0,1,6.87-42.8c.33.63.67,1.25,1,1.86a85.59,85.59,0,0,0,7.08,9.75q3,3.81,6.4,7.36a1.73,1.73,0,0,0-2.14,1.28,77.74,77.74,0,0,0-1.78,31,1.89,1.89,0,0,0,2.31,1.31,1.92,1.92,0,0,0,1.31-2.31,73.13,73.13,0,0,1,1.78-29,2.08,2.08,0,0,0,0-.69l.24.24a94.16,94.16,0,0,0,14.4,11.79,1.9,1.9,0,0,0-.69,1.85,34.65,34.65,0,0,1-5.2,24.85c-1.32,2,1.92,3.91,3.24,1.89a38.54,38.54,0,0,0,5.76-26.6c3.54,2.17,7.19,4.15,10.83,6.16,2.59,1.43,5.11,3,7.69,4.49a53.19,53.19,0,0,1-6,17.81,34.6,34.6,0,0,1-5.37,7.45,40.88,40.88,0,0,1-8.11,6.15,50,50,0,0,1-14.66,6c-1.25.3-2.53.46-3.8.7h13.54c.78-.33,1.56-.68,2.32-1,6.35-3.09,12.39-7.29,16.57-13a51.93,51.93,0,0,0,7.85-17.09c2.78,10.87,7.86,20.88,12.22,31.18h4a3.09,3.09,0,0,1-.14-.32c-1.28-3-2.62-6-3.95-9a1.82,1.82,0,0,0,2-.88,37.49,37.49,0,0,1,22.8-20.17c-1.08,4.53-2.28,9-3.64,13.49q-2.6,8.58-5.91,16.9h4c1.25-3.23,2.45-6.48,3.55-9.76,0,.06.09.13.15.19a24.21,24.21,0,0,1,3.5,5.26,19.77,19.77,0,0,1,1.12,2.75c.17.52.33,1,.46,1.56h7.41q.95-1.06,1.86-2.19a88.72,88.72,0,0,0,6.62-9.39,1.71,1.71,0,0,0,.79-1.29q2.1-3.53,3.91-7.2a53.34,53.34,0,0,1,5.2,10.79,43.37,43.37,0,0,1,1.79,9.28h3.77a47.35,47.35,0,0,0-1.94-10.28,65.86,65.86,0,0,0-6.91-13.88,123.81,123.81,0,0,0,4.74-12.44,80.75,80.75,0,0,0,3.76-17,30.63,30.63,0,0,0,4.79,5.05,109.28,109.28,0,0,0,10.25,8.08c1.57,1.1,3.16,2.17,4.79,3.17s3.12,1.72,4.61,2.71c2.11,1.39,4.09,3,6.51,3.87a8.57,8.57,0,0,0,7.25-.78,17.65,17.65,0,0,0,5.33-5.58c1.5-2.21,2.93-4.46,4.44-6.67,3.16-4.63,6.46-9.16,9.85-13.63,7.17-9.47,14.72-18.65,22.42-27.69,7-8.2,14.1-16.27,21.25-24.32a79.07,79.07,0,0,0,1.74,26.54c.21.85.44,1.7.67,2.55,0,0-.06.06-.08.1-7.33,10.06-15.37,19.62-22.14,30.07-3.82,5.9-7.18,12.08-10.48,18.28a51.07,51.07,0,0,0-4.53,10.47,51.46,51.46,0,0,0-1.45,11.73c-.11,3.22-.09,6.44,0,9.65h3.75c-.08-2.39-.12-4.79-.08-7.18a61,61,0,0,1,.94-11.37,40.57,40.57,0,0,1,4.14-10.55c3.18-6.07,6.46-12.1,10.13-17.88,3-4.78,6.34-9.36,9.76-13.87,3.8-5,7.65-10,11.39-15a110.11,110.11,0,0,0,12,24.06c3.2,4.93,6.67,9.7,10.21,14.39,1.66,2.2,3.12,4.59,4.84,6.74a6.52,6.52,0,0,0,5.83,2.55c4.26-.4,6.42-3.3,8.18-6.61ZM1869.93,36.32c-2.54-7.56-5-15.16-7.33-22.81a47.22,47.22,0,0,1,6.8-5.14,37,37,0,0,1,4.48-2.28Q1871.54,21.15,1869.93,36.32Zm3.33,4.07Q1875,23.14,1877.67,6a74,74,0,0,1,9.75,19.44s0,0,0,0Q1880.59,33.16,1873.26,40.39Zm39.32,10.67a53.53,53.53,0,0,1,2-7.6c1,.95,2,1.88,3,2.82a1.47,1.47,0,0,0-.1.22,35.24,35.24,0,0,0-1.76,8.67,37.83,37.83,0,0,0,.09,4.88c.05.7,0,1.52.16,2.24h-.55s-.46-.09-.54-.11l-.55-.16a7.2,7.2,0,0,1-1.06-.59,3.39,3.39,0,0,1-.53-.54,1,1,0,0,0-.17-.31,8.93,8.93,0,0,1-.51-2.72,1.68,1.68,0,0,0,0-1.48V56A27.9,27.9,0,0,1,1912.58,51.06Zm-164.45,26c4.51,4.32,7,10.26,9.22,16a230.48,230.48,0,0,1,8.33,26.45,173.29,173.29,0,0,0-15.45-17.28,1.79,1.79,0,0,0-1.15-.55,225,225,0,0,0-6-28A17.7,17.7,0,0,1,1748.13,77.08Zm-15.53-3.82a12.43,12.43,0,0,1,6.69-.72,1.75,1.75,0,0,0-.08,1.25,219.29,219.29,0,0,1,6.18,28.5q-2.79,1.89-5.42,4c-.1-.89-.19-1.78-.3-2.67A128.56,128.56,0,0,0,1733,77.41c-.5-1.4-1-2.8-1.56-4.19A1.48,1.48,0,0,0,1732.6,73.26Zm-82.08-56.78c-.88-.64-1.8-1.23-2.69-1.86a7.74,7.74,0,0,1-2.26-1.95c-.85-1.52,2.3-2.41,3.29-2.52,4.08-.45,7.66,2.29,10.06,5.3,2.66,3.34,4.66,7.26,6.79,11a4.78,4.78,0,0,1-1.43-.22,1.61,1.61,0,0,0-2,.81,1.72,1.72,0,0,0-.84-.43,10.24,10.24,0,0,0-2.55-.22.76.76,0,0,0-.06-.16A26.59,26.59,0,0,0,1650.52,16.48Zm52.44,159c-4-2.45-8.17-4.69-12.28-7a104.54,104.54,0,0,1-13.34-8.7,99.69,99.69,0,0,1-15.3-15.16c-4-4.87-7.82-9.89-10.23-15.76a138.66,138.66,0,0,1-5.54-17.22c-2.94-11.22-5.63-22.93-5.54-34.59a97,97,0,0,1,3.42-25.26c1.71-6.12,4.07-12.58,8.17-17.54,2-2.37,4.77-4.74,8.08-4a1.85,1.85,0,0,0,2-.93,1.88,1.88,0,0,0,.83.54c4.12,1.36,7.55-1.35,11.21-2.72,2.91-1.09,6.17-.77,9.14-.15a39.26,39.26,0,0,1,10,3.52,43,43,0,0,1,7.83,5.5,83.21,83.21,0,0,1,13.66,14.28,93.63,93.63,0,0,1,10,17.21,153.55,153.55,0,0,1,8,22.13,98.08,98.08,0,0,1,3.74,26.38,86.34,86.34,0,0,1-4.25,26.58c-.74,2.28-1.57,4.54-2.49,6.76a23.93,23.93,0,0,0-1.52,4.33,62.4,62.4,0,0,0-.86,9.36,49.91,49.91,0,0,1-.87,9,14.25,14.25,0,0,1-2,4.38c-.33.54-.68,1.06-1,1.58,0,0,.14-.17-.09.1s-.21.25-.31.37c-.24.27-.49.53-.75.77l-.38.33-.08.07-.07,0a9.89,9.89,0,0,1-1,.6l-.4.19-.34.13a11.28,11.28,0,0,1-1.27.33,5.07,5.07,0,0,1-1,.11,12.68,12.68,0,0,1-1.63-.05,16.59,16.59,0,0,1-3.49-.74A43.9,43.9,0,0,1,1703,175.45Zm12.72,30c-1.59-3.64-3.13-7.31-4.48-11a86.83,86.83,0,0,1-3.49-12.22,33.49,33.49,0,0,0,4.29,1.62c4.26,1.27,9,1.38,12.58-1.51a18.49,18.49,0,0,0,5.22-7.49,31.13,31.13,0,0,0,1.43-9.11c.17-2.87.2-5.77.51-8.63a2.72,2.72,0,0,0,.51-.32,48,48,0,0,1,13.7-7.57,1.92,1.92,0,0,0,1.31-2.31,1.9,1.9,0,0,0-2.31-1.31,52.54,52.54,0,0,0-11.94,6c.79-2.17,1.8-4.28,2.55-6.45a88.32,88.32,0,0,0,3.59-13.94,91.61,91.61,0,0,0,1.17-20.45l.17-.12c.61-.52,1.23-1,1.86-1.54l.46-.36.23-.18s.29-.22.1-.08.06,0,.1-.07l.23-.18.53-.4c.64-.48,1.3-.95,2-1.42a225.1,225.1,0,0,1-3.32,76.65A41,41,0,0,0,1715.68,205.48Zm37.62,5.07a69,69,0,0,1-4.84,5.79,27.67,27.67,0,0,0-6-10.92,1.79,1.79,0,0,0-1.84-.46q3.3-10.32,5.61-20.92a53.45,53.45,0,0,1,11.35,20.1C1756.27,206.33,1754.84,208.48,1753.3,210.55Zm16.15-33.4a115.46,115.46,0,0,1-9.33,22.7,57.64,57.64,0,0,0-11.59-18.93,1.64,1.64,0,0,0-1.49-.56c.42-2.1.82-4.19,1.18-6.3a233.11,233.11,0,0,0,2.91-25.4c8.15,6.86,13.32,16.28,18.26,25.55a1.76,1.76,0,0,0,.68.72C1769.87,175.67,1769.67,176.41,1769.45,177.15Zm1.82-7.38c-4.72-8.74-9.9-17.43-17.6-23.86a1.92,1.92,0,0,0-2.38-.1,227.06,227.06,0,0,0-1.24-36.87c-.07-.59-.15-1.17-.22-1.76,6.6,6.76,13.06,13.72,17.76,22a1.91,1.91,0,0,0,.51.6q.51,2.33,1,4.68c1.44,7,2.9,14.15,3.26,21.35A57.75,57.75,0,0,1,1771.27,169.77Z" style="fill:#44322b"/><path d="M1664.93,120.64c-6.2-13.08-9.67-27.34-11.2-41.7A218.51,218.51,0,0,1,1652.67,52c0-2.42-3.71-2.42-3.75,0-.27,15.81.74,31.77,4.5,47.17a119.51,119.51,0,0,0,18,40.07,138.2,138.2,0,0,0,17.84,20.66c1.74,1.67,4.4-1,2.65-2.66A125,125,0,0,1,1664.93,120.64Z" style="fill:#44322b"/><path d="M1342,201c-7-7.74-14.32-15.2-21.76-22.51-14.88-14.63-30.29-28.72-44.9-43.62s-28.25-30.47-39.43-48c-1.2-1.87-2.36-3.77-3.49-5.68,1-.93,2-1.88,3.07-2.83a178.51,178.51,0,0,0,18.5,26.12c7.84,9.35,16.35,18.12,25.06,26.67,9.73,9.55,19.71,18.84,29.63,28.2,10.93,10.31,21.79,20.7,32.34,31.4,8.61,8.73,17,17.67,25.14,26.86h4.95q-11.23-12.88-23.17-25.16c-10.6-10.92-21.54-21.5-32.59-32-9.95-9.42-20-18.74-29.82-28.27-8.89-8.61-17.63-17.41-25.76-26.74a183.87,183.87,0,0,1-19.82-26.88c-.57-1-1.11-1.93-1.66-2.9a230,230,0,0,0,22-24.33A187.09,187.09,0,0,0,1282.65,15a1,1,0,0,0,.1-.21q3.35-7.26,6-14.82h-4c-1,2.9-2.13,5.78-3.33,8.61A69.93,69.93,0,0,0,1278.1,0h-4.22q1,2,1.83,4A61.31,61.31,0,0,1,1279,14a177.11,177.11,0,0,1-14.79,25.67A69.55,69.55,0,0,0,1248,3.49c-1-1.21-2.12-2.37-3.25-3.49h-5.47A65.64,65.64,0,0,1,1259,32.19a62.94,62.94,0,0,1,1.91,11.73,2.32,2.32,0,0,0,.06.38c-3.74,5.1-7.73,10-11.92,14.77-1.71-14.32-8.35-28.59-18.81-38.49q4-10.36,8.47-20.58h-4q-3.33,7.74-6.46,15.56c-11-3.55-22.44-.66-32.86,3.47a.22.22,0,0,1,0-.08,157.42,157.42,0,0,1,1.56-16.2A56.37,56.37,0,0,1,1204.29,0h-10.71c-2.95,18.23-2.56,37-.56,55.33,1.76,16.14,4.68,32.12,7.62,48.07a1.89,1.89,0,0,0,2.76,1.12,330.08,330.08,0,0,0,26.15-20.75,225.48,225.48,0,0,0,13.84,20.35,60.11,60.11,0,0,0-4.12,9.24,35.42,35.42,0,0,0-1.44,5.46c-18.58,6.39-30.95,24.52-36.71,42.58a78.49,78.49,0,0,0-3.29,32.15,95.06,95.06,0,0,0,6.12,24.09h4a98.59,98.59,0,0,1-5.19-16.68,74.82,74.82,0,0,1,.13-31.81c4-17.78,14.39-36.27,31.19-44.72a34.48,34.48,0,0,1,3.47-1.53,12.8,12.8,0,0,0,.28,2c.68,2.77,3.73,4.84,6.49,5a3.75,3.75,0,0,0,3.54-1.67,5.79,5.79,0,0,0,.64-2.54,61.08,61.08,0,0,1,10.86,20,98.6,98.6,0,0,1,5.07,28.64,82.5,82.5,0,0,1-3.75,28.35,51.58,51.58,0,0,1-7.89,14.91h4.68a46.8,46.8,0,0,0,3.63-6c4.5-9.08,6.54-19.34,7-29.42a104.19,104.19,0,0,0-3.08-30.46c-2.39-9.46-6.19-18.81-12.18-26.58a49.56,49.56,0,0,0-3.94-4.5,30,30,0,0,1,2.16-6.83c5,6,10.15,11.75,15.47,17.38,14.34,15.14,29.68,29.28,44.66,43.76,7.51,7.26,14.94,14.61,22.11,22.21,6.26,6.64,12.2,13.57,18.17,20.47h5C1351.71,212.06,1346.92,206.46,1342,201ZM1228.75,24.38a60.79,60.79,0,0,1,16.89,38.47q-4.1,4.44-8.42,8.67c-.21-1.36-.51-2.71-.83-4a86.73,86.73,0,0,0-3-9.72c-2.48-6.72-5.55-13.45-9.86-19.21.61-1.72,1.22-3.44,1.85-5.15C1226.46,30.39,1227.6,27.38,1228.75,24.38Zm-33.52-1.29c9.9-4.11,21-7.27,31.58-4q-3.51,8.94-6.74,18a41.66,41.66,0,0,0-24.4,5.63C1195.25,36.16,1195.07,29.63,1195.23,23.09ZM1196,46.9a38.11,38.11,0,0,1,22.82-6.24q-3.45,9.83-6.58,19.75a45.56,45.56,0,0,0-14.08,5.8C1197.24,59.79,1196.5,53.35,1196,46.9Zm6.72,47c-1.42-7.85-2.8-15.72-4-23.62a47.32,47.32,0,0,1,7.48-4.12,34.63,34.63,0,0,1,4.73-1.6Q1206.47,79.12,1202.7,93.89Zm2.73,4.53q4.18-16.82,9.28-33.38a74.1,74.1,0,0,1,6.87,20.66Q1213.72,92.32,1205.43,98.42Zm19.42-15.51a76.89,76.89,0,0,0-8-21.9,2.15,2.15,0,0,0-.14-.26c-.06-.1-.11-.21-.17-.32a2.41,2.41,0,0,0-.25-.35q2.73-8.64,5.71-17.19a77,77,0,0,1,7.78,15.89,86.52,86.52,0,0,1,3,9.43,27.88,27.88,0,0,1,1.06,6.52s0,.08,0,.11C1230.86,77.6,1227.88,80.28,1224.85,82.91Zm19.76,43.5,0,0S1244.58,126.46,1244.61,126.41Zm.16-.2h0l0,0Zm3.7-15.59a35.11,35.11,0,0,0-3,8,40.41,40.41,0,0,0-.67,4.78c-.08.87-.14,1.74-.17,2.62v.19a2.28,2.28,0,0,0-.27,0,3.91,3.91,0,0,1-1.25-.44,3.22,3.22,0,0,1-1.63-1.71,9.2,9.2,0,0,1-.11-3,2,2,0,0,0,.14-1.23s0,0,0-.08a28.88,28.88,0,0,1,1.24-5,50.67,50.67,0,0,1,3.12-7.31c.85,1.09,1.71,2.16,2.57,3.23Z" style="fill:#44322b"/><path d="M1156.09,21.16A1.88,1.88,0,0,0,1158,23a1.92,1.92,0,0,0,1.88-1.88,66.54,66.54,0,0,0-1-21.16H1155A64.25,64.25,0,0,1,1156.09,21.16Z" style="fill:#44322b"/><path d="M1174.18,14.15a1.88,1.88,0,0,0,1.87,1.88,1.92,1.92,0,0,0,1.88-1.88A66.27,66.27,0,0,0,1178,0h-3.78A64.38,64.38,0,0,1,1174.18,14.15Z" style="fill:#44322b"/><path d="M1379.59,156c-4.48-16.57-8.56-33.25-12.36-50-.39-1.72-.77-3.44-1.16-5.17,1.77-1.25,2.87-4.1,3.87-5.94,1.25-2.28,3-4.33,4.42-6.53s2.78-4.6,4-7a78.19,78.19,0,0,0,8.68-30.77A87.62,87.62,0,0,0,1383,19.34,100.48,100.48,0,0,0,1374.73,0h-4.31a92.93,92.93,0,0,1,6.82,14.19,91.14,91.14,0,0,1,6.13,28.35A72.82,72.82,0,0,1,1378.52,72a82.52,82.52,0,0,1-6.94,13.76c-1.38,2.21-2.91,4.3-4.38,6.45-1,1.43-1.51,3.11-2.41,4.59-.11.18-.52.61-.68.89a13.55,13.55,0,0,1-1.22-.82,17.94,17.94,0,0,0-4.16-2.58,54.49,54.49,0,0,1-11.22-5.74c-15.9-10.48-27-27.8-31.41-46.16a97.52,97.52,0,0,1-2.47-29.14A71,71,0,0,1,1315.71,0h-3.92c-.31,1.36-.58,2.7-.8,4a96.06,96.06,0,0,0-.07,31.38c3.12,20.36,13.3,39.7,29.54,52.63a71.16,71.16,0,0,0,6.23,4.44,1.71,1.71,0,0,0,.08.53c5.5,19.05,10.24,38.32,14.8,57.62,4.74,20.09,9.23,40.25,13.61,60.42.48,2.22,1,4.43,1.49,6.64h3.81c-.2-.86-.4-1.72-.58-2.59q-3.17-14.56-6.39-29.14c-4.66-20.89-9.47-41.75-14.7-62.51-2.39-9.49-4.88-19-7.56-28.38.39.2.76.42,1.15.6q1.47.7,3,1.32c.52.22,1,.43,1.57.63l.64.24c.06,0,.53.23.58.24,1.44.82,2.62,2,4.08,2.82h0c3.77,16.93,7.81,33.79,12.24,50.56,3.9,14.7,8.09,29.34,12.76,43.81q3.63,11.28,7.73,22.39h4q-3.53-9.49-6.69-19.11C1387.62,184.47,1383.46,170.26,1379.59,156Z" style="fill:#44322b"/><path d="M1134.39.2a1.89,1.89,0,0,0,.2-.2h-2.94A1.78,1.78,0,0,0,1134.39.2Z" style="fill:#44322b"/><path d="M1369.42,74.93A159,159,0,0,0,1354.4,7c-1.09-2.37-2.25-4.7-3.44-7h-4.24a160.65,160.65,0,0,1,17.88,55.63,146.42,146.42,0,0,1,1.06,19.3C1365.64,77.35,1369.39,77.35,1369.42,74.93Z" style="fill:#44322b"/><path d="M1366.09,83.62c-10.95-22.28-18.57-46.08-24.43-70.17-1.08-4.47-2.08-9-3.05-13.45h-3.85c4.82,22.59,11,45,19.59,66.39q3.9,9.72,8.5,19.13C1363.91,87.69,1367.15,85.79,1366.09,83.62Z" style="fill:#44322b"/><path d="M1543,9.36c8.53,4.25,17.06,8.51,25.45,13,2.91,1.56,5.81,3.15,8.65,4.86,1,.64,2.1,1.3,3.12,2,.37.25.73.51,1.09.78l.09.06.08.06.46.39c.19.18.36.38.55.55a2.53,2.53,0,0,1,.13.22,1.88,1.88,0,0,0,2.56.68,1.93,1.93,0,0,0,.68-2.57c-.59-1.35-2.25-2.37-3.39-3.17l-1.06-.71A194.13,194.13,0,0,0,1578.08,0h-3.83c.35,1.65.67,3.3,1,5,1.08,6,1.81,12.07,2.29,18.15l-1.55-.89c-7.37-4.2-15-8-22.53-11.85Q1543.05,5.14,1532.6,0H1524Q1533.56,4.65,1543,9.36Z" style="fill:#44322b"/><path d="M1914.78,163.15a1.92,1.92,0,0,0,1.31,2.3,1.89,1.89,0,0,0,2.31-1.31,273.07,273.07,0,0,0,1.22-73.69q-1.24-10.29-3.24-20.45c-.47-2.37-4.09-1.37-3.62,1a269.2,269.2,0,0,1,4.31,71.84Q1916.32,153,1914.78,163.15Z" style="fill:#44322b"/><path d="M1907.57,69.64c1.11-2.14-2.13-4-3.24-1.89a104.45,104.45,0,0,0,2.18,100.64c1.21,2.1,4.45.21,3.24-1.89a100.74,100.74,0,0,1-2.18-96.86Z" style="fill:#44322b"/><path d="M1339.31,71.15a103.44,103.44,0,0,0,15,17.71c1.77,1.65,4.43-1,2.66-2.66a100.26,100.26,0,0,1-22.85-32,97.06,97.06,0,0,1-8.63-38.12,88,88,0,0,1,1.2-16h-3.8a96.28,96.28,0,0,0,.75,33.64A103.74,103.74,0,0,0,1339.31,71.15Z" style="fill:#44322b"/><path d="M1744.73,22.6c2.28,9.23,5.16,18.3,8.26,27.29a1.81,1.81,0,0,0,.7,2c.19.56.38,1.12.58,1.67,2.14,6.12,4.33,12.19,6.17,18.41a47.58,47.58,0,0,0,3.48,8.07,118.34,118.34,0,0,0,6.15,10.49c4.78,7.32,10.27,14.62,17.1,20.16a36.12,36.12,0,0,0,4.67,3.3c2,1.14,4.12,2,6.16,3,4.93,2.45,9.65,5.28,14.43,8,3.46,2,7.12,4.34,11,5.33a5.9,5.9,0,0,0,4.2-.17,7.22,7.22,0,0,0,2.25-2.47c4.91-6.7,10.08-13.17,14.52-20.21a76.75,76.75,0,0,0,6.63-12.59A135.82,135.82,0,0,0,1856.21,79,71.09,71.09,0,0,0,1858.79,63a32.67,32.67,0,0,0-.62-7.51c-.39-1.85-1.14-3.56-1.68-5.36-2.59-8.57-3.33-17.72-4.5-26.55-.57-4.35-1.14-8.71-2-13-.68-3.47-1.69-6.86-2.61-10.27l-.06-.25H1842l.73.66a1.82,1.82,0,0,0,1,.51l.18.65c.86,3.22,1.81,6.42,2.45,9.69,1.27,6.43,2,13,2.85,19.45a131.87,131.87,0,0,0-37-24.48,133.33,133.33,0,0,0-12.7-4.85,1.82,1.82,0,0,0-.91-.07c-.12-.52-.26-1-.38-1.56h-3.87c.34,1.37.67,2.75,1,4.13a121.9,121.9,0,0,0-34.79,33.24c-1.83,2.61-3.54,5.31-5.15,8.07-2.61-7.64-5.06-15.35-7-23.17A114.42,114.42,0,0,1,1762.81,0H1758c-2,2.58-4,5.25-5.75,8s-3.54,5.69-5.12,8.64c-.84-3.86-1.53-7.75-2-11.68-.21-1.65-.34-3.3-.43-5H1741A124.47,124.47,0,0,0,1744.73,22.6Zm34.94,74.89a116.13,116.13,0,0,1-11.4-17.24,94.37,94.37,0,0,1,26.14-34.75,88.58,88.58,0,0,1,7.68-5.69c.44,2.66.89,5.31,1.37,8q2.34,13,5.12,25.91l-.13.07a68.8,68.8,0,0,0-25,28.15C1782.13,100.47,1780.88,99,1779.67,97.49Zm43.53,28.82c-3.94-1.42-7.6-3.81-11.2-5.9-4.65-2.69-9.3-5.4-14.17-7.68a38,38,0,0,1-9.59-6c-.7-.62-1.37-1.26-2-1.91a65.21,65.21,0,0,1,23.22-27.18q1,4.31,2,8.6c3.08,12.93,6.46,26,11.58,38.26.29.7.61,1.39.91,2.08Zm10-9.23c-2,2.65-4,5.24-6,7.88-5-11.22-8.19-23.33-11.14-35.21Q1815,85,1813.88,80.3a83.54,83.54,0,0,1,24.27,30C1836.53,112.6,1834.87,114.86,1833.23,117.08Zm14.44-23.79a69.89,69.89,0,0,1-7.1,13.42,87.09,87.09,0,0,0-27.91-31.93q-2.69-12.26-5-24.59-1-5.23-1.86-10.48a125.35,125.35,0,0,1,34.93,37.09,127.91,127.91,0,0,1,7.34,13.83,1.29,1.29,0,0,0,.36.47C1848.21,91.83,1848,92.57,1847.67,93.29ZM1838.91,27a130.38,130.38,0,0,1,9.8,8.7,1.74,1.74,0,0,0,1.23.53l.3,2.08a97.06,97.06,0,0,0,2.48,12.3c.48,1.66,1.18,3.24,1.61,4.91a26.3,26.3,0,0,1,.72,6.73,64.5,64.5,0,0,1-2.4,15.61q-1.11,4.25-2.48,8.41a128.87,128.87,0,0,0-32.48-42.1A130.61,130.61,0,0,0,1805,34.6c-.34-2.08-.69-4.16-1-6.24q-1.86-11.44-4.4-22.77A128.1,128.1,0,0,1,1838.91,27Zm-51.39-12.75c2.81-2.21,5.73-4.27,8.74-6.21,1.1,5,2.12,10.09,3,15.17.75,4.2,1.44,8.41,2.14,12.62a97.44,97.44,0,0,0-30.71,31.55,92.55,92.55,0,0,0-4.6,8.63c-1.94-4.21-3.07-8.77-4.65-13.29-1.45-4.16-2.94-8.33-4.4-12.51A118.56,118.56,0,0,1,1787.52,14.21Z" style="fill:#44322b"/><path d="M1515.68,56.88c-.07-.17-.15-.33-.22-.5-.76-4.6-1.62-9.17-2.29-13.78-.48-3.29-.85-6.6-1.06-9.92a48.75,48.75,0,0,0-.8-7.24c-2-9.25-6.94-18-12.69-25.44h-4.75c.53.64,1,1.28,1.54,1.93a77.08,77.08,0,0,1,7.91,12.58,47.52,47.52,0,0,1,4.62,13.23c.44,2.58.4,5.23.64,7.83.28,3.15.7,6.28,1.18,9.41v0a119.42,119.42,0,0,0-6.63-10.2A95.36,95.36,0,0,0,1486,16.18a2.61,2.61,0,0,0-.91-.46q1.59-7.83,2.84-15.72h-3.78q-1.25,7.68-2.79,15.3a63.59,63.59,0,0,0-30.64,1.81c1.13-1,2.27-2,3.43-3,2.5-2.16,5-4.29,7.62-6.36.93-.75,1.86-1.5,2.8-2.23l.59-.46.37-.29.75-.57c1.67-1.27,3-2.87,4.66-4.17h-5.51l-.18.18c.13-.13.11,0,.07,0a7.69,7.69,0,0,1-1,.73c-1.74,1.33-3.45,2.68-5.15,4.05-13.34,10.73-26.32,22.57-36.47,36.43-5.9,8.06-9.92,17.15-13.44,26.44-3.29,8.7-6,17.6-8.57,26.54a1.62,1.62,0,0,0-.58,2.1c-.12.43-.25.86-.37,1.3-1.7,6.15-3.1,12.48-5.33,18.47a37.55,37.55,0,0,0-1.71,7.64,116.86,116.86,0,0,0-1.08,11.67c-.39,8.69-.1,17.63,1.9,26.13a36.45,36.45,0,0,0,4.2,10.56,155.63,155.63,0,0,1,7.27,14.13,108.15,108.15,0,0,0,6,12c1.38,2.17,3.6,5.27,6.62,4.49,2.56-.66,5.1-1.72,7.62-2.54,4.19-1.37,8.36-2.78,12.47-4.36a111,111,0,0,0,13.42-6,92.94,92.94,0,0,0,12.38-8.45,102,102,0,0,0,12.66-11.29c3.41-3.69,6.55-7.83,8.23-12.6.6-1.7,1-3.48,1.55-5.19.69-1.93,1.49-3.83,2.33-5.7,1.94-4.3,4.09-8.49,6.26-12.68,3.9-7.57,7.84-15,10.71-23.07,3-8.42,6.09-16.82,8.53-25.42a91.06,91.06,0,0,0,2.82-12.84A45.4,45.4,0,0,0,1516,60c-.11-.72-.23-1.43-.34-2.14A1.41,1.41,0,0,0,1515.68,56.88Zm-96.12-3.27c4-7.93,9.7-14.92,15.7-21.42,2.64-2.87,5.38-5.63,8.18-8.34a1.88,1.88,0,0,0,.7-.19,59.45,59.45,0,0,1,36.45-4.7q-2.58,12-5.91,23.81c-.79,2.79-1.62,5.57-2.47,8.34a117.19,117.19,0,0,0-48.29,8.53c-3.07,1.24-6.07,2.62-9,4.11C1416.33,60.32,1417.87,56.93,1419.56,53.61Zm-6.79,15.51a113.77,113.77,0,0,1,47.11-14.06c3.72-.27,7.44-.34,11.16-.24q-4.21,13.26-9.39,26.2a121.25,121.25,0,0,0-47.75,7.53q-4.38,1.65-8.62,3.63C1407.51,84.4,1409.91,76.67,1412.77,69.12ZM1396.65,123c.83-4.84,2.69-9.44,4-14.17,1.09-4,2.17-7.92,3.28-11.89a117.54,117.54,0,0,1,45.47-12.14q5.38-.32,10.77-.13-3,7.16-6.18,14.21c-1.78,3.86-3.61,7.71-5.44,11.55a97.58,97.58,0,0,0-43.39,8.5,92.9,92.9,0,0,0-8.55,4.37C1396.62,123.24,1396.63,123.14,1396.65,123Zm-1.27,23.4a118.1,118.1,0,0,1,.55-18.32,93.4,93.4,0,0,1,41.46-13.67,89.43,89.43,0,0,1,9.4-.28c-1.12,2.38-2.25,4.78-3.34,7.18q-5.52,12.09-10.63,24.35l-.3,0a68.87,68.87,0,0,0-36.54,8.9C1395.66,151.81,1395.49,149.07,1395.38,146.44Zm20.34,49c-.18.79-.32,1.59-.47,2.39a23,23,0,0,1-2-3.21c-2.23-4-4.07-8.25-6-12.4-2.17-4.57-4.63-8.92-7.08-13.34a34.5,34.5,0,0,1-3.51-10.35,65.22,65.22,0,0,1,34.7-9.15q-1.68,4.13-3.32,8.28C1423.16,170,1418.53,182.52,1415.72,195.45Zm20.52-2.87c-4,1.51-8,2.86-12.07,4.17-1.74.57-3.49,1.1-5.23,1.69,2.32-12,6.52-23.67,10.84-35.06q1.76-4.63,3.6-9.24A83.16,83.16,0,0,1,1436.24,192.58Zm21.25-26.14a123.75,123.75,0,0,1-1.81,15.36,2,2,0,0,0,0,.91,64.67,64.67,0,0,1-6.42,4c-2.94,1.58-6,3-9,4.26a87.14,87.14,0,0,0-4.71-42.11q4.71-11.43,9.8-22.69,2.27-5,4.6-10A126.29,126.29,0,0,1,1457.49,166.44ZM1485,145.16a89.2,89.2,0,0,0-3.88,10.73c-1.36,4.46-4.4,8.33-7.51,11.71a98.47,98.47,0,0,1-12.43,11.1l-1.33,1a129.9,129.9,0,0,0-2.58-52.77,125.6,125.6,0,0,0-5-15.16c0-.08-.07-.14-.1-.21.85-1.81,1.71-3.63,2.57-5.44q5.05-10.57,9.48-21.43l.08,0a129,129,0,0,1,20.11,40.06,127.61,127.61,0,0,1,3.11,12.8,1.62,1.62,0,0,0,.61,1C1487,140.73,1486,142.93,1485,145.16Zm12.5-25c-2.21,4.56-4.59,9.05-6.91,13.56a130.93,130.93,0,0,0-23.89-52.12,2.36,2.36,0,0,0-.93-.75q4.89-12.39,8.94-25.08a95.64,95.64,0,0,1,24.24,36.86,96.83,96.83,0,0,1,3.61,12.71,1.74,1.74,0,0,0,.55,1A132,132,0,0,1,1497.47,120.16Zm15.34-46.81c-1.36,8.77-4.32,17.33-7.22,25.69-.14.41-.27.81-.41,1.21a99.7,99.7,0,0,0-19.89-38.69,97.07,97.07,0,0,0-9.37-9.76l.54-1.72Q1481,35,1484.28,19.62a93.12,93.12,0,0,1,15.61,17.09,107.36,107.36,0,0,1,12,20.69c.25,1.53.5,3.07.72,4.61A37.83,37.83,0,0,1,1512.81,73.35Z" style="fill:#44322b"/><path d="M1625.82,214.41q-3.39-5.28-6.45-10.78-1.84-3.31-3.57-6.7c-.41-.79-.82-1.58-1.2-2.39-.09-.2-.19-.41-.28-.62l-.19-.42a91.08,91.08,0,0,1-4.35-14.39c-1.58-6.64-2.85-13.36-4-20.09-2.84-16.5-5-33.12-7.12-49.73-2.13-16.8-3.81-33.69-6.35-50.43-.88-5.77-2-11.67-4.82-16.85s-7.13-8.87-11.9-12c-1.5-1-3-1.9-4.6-2.78a1.84,1.84,0,0,0-.83-.25,31.32,31.32,0,0,0-3.22-2,2,2,0,0,0-.69-.22,1.73,1.73,0,0,0-1.52-.26c-.22,0-.42.12-.63.18a1.76,1.76,0,0,0-.38-.24Q1538.89,12.57,1514.4,0h-8.17q24.06,12.5,48.49,24.28l4.61,2.22c-12,5.81-18.65,19-24.78,30.38-5.62,10.45-13,20-18.77,30.33a1.67,1.67,0,0,0-.76,1.37c-1.33,2.48-2.57,5-3.66,7.63-5.2,12.47-4.93,26.26-4.77,39.54.08,6.5.1,13,.37,19.52a74.14,74.14,0,0,0,2.52,17.47,75.22,75.22,0,0,0,4.39,10.88,54.46,54.46,0,0,1,3.92,10.94q.43,1.92.75,3.87a1.88,1.88,0,0,0,2.76,1.12c12.39-8.64,21-21.27,28.84-33.93,7.17-11.56,15-22.77,21.34-34.83a114.47,114.47,0,0,0,12.06-38.2c1.47-11,2.77-22.17,2.65-33.28a39.66,39.66,0,0,0-2.74-15.25,43,43,0,0,0-2.08-4.33c.49.58,1,1.17,1.4,1.8,3.13,4.5,4.45,9.85,5.4,15.19,1.35,7.64,2.13,15.39,3.08,23.08,1.07,8.68,2.12,17.36,3.21,26,2.1,16.81,4.28,33.62,7,50.33,1.16,7,2.41,14,4,20.88a120.19,120.19,0,0,0,4.25,15.37c2.54,7,6.48,13.49,10.32,19.79,1.11,1.83,2.26,3.65,3.43,5.44H1628C1627.23,216.57,1626.52,215.49,1625.82,214.41ZM1561,29.88l.47-.22q-.42,9.78-1.52,19.51a44.91,44.91,0,0,0-19.82,5.2C1545.27,44.63,1550.89,34.88,1561,29.88ZM1534.11,65.3c.9-1.5,1.77-3.06,2.63-4.65a1.68,1.68,0,0,0,.76-.31,41.47,41.47,0,0,1,22-7.4q-1.53,12-4.07,23.92a76.29,76.29,0,0,0-33.36,7.08C1526,77.65,1530.33,71.59,1534.11,65.3Zm-21.42,38.41A67,67,0,0,1,1518.51,90a72.68,72.68,0,0,1,36.07-9.35q-1.74,7.67-3.91,15.24c-.88,3-1.81,6.07-2.77,9.09a76.43,76.43,0,0,0-37.3,13.14A65.09,65.09,0,0,1,1512.69,103.71Zm-2.25,38c-.12-6.3-.21-12.61,0-18.91a73,73,0,0,1,36.24-14c-2.44,7.49-5.06,14.93-7.69,22.36A75.78,75.78,0,0,0,1510.48,144C1510.47,143.24,1510.46,142.47,1510.44,141.71Zm.1,6.92a71.67,71.67,0,0,1,26.92-13.26c-2.8,7.91-5.57,15.82-8.1,23.82l-.6,2a43.69,43.69,0,0,0-16.41,7.57C1510.89,162.17,1510.64,155.39,1510.54,148.63ZM1521,192.25a53.19,53.19,0,0,0-2.55-7.48c-1.37-3.22-3-6.36-4.2-9.47-.34-.91-.64-1.83-.92-2.76a2.35,2.35,0,0,0,.52-.32,39.3,39.3,0,0,1,13.61-6.87A241.43,241.43,0,0,0,1521,192.25Zm3.84-.26a243.42,243.42,0,0,1,6.22-25.56,57.21,57.21,0,0,1,4.05,14.39s0,.06,0,.1A82.78,82.78,0,0,1,1524.87,192Zm13.36-15.17a60.25,60.25,0,0,0-5.13-15,1.59,1.59,0,0,0-.45-.54c2.38-7.63,5-15.21,7.66-22.75a174.72,174.72,0,0,1,5.9,25.88,1.09,1.09,0,0,0,.07.24C1543.69,168.79,1541.06,172.89,1538.23,176.82Zm11.83-18.15c-.27.42-.53.84-.79,1.26a173.7,173.7,0,0,0-6.24-25.2,1.8,1.8,0,0,0-1-1.12c.19-.53.38-1.06.56-1.59,2.5-7,5-14.1,7.32-21.2a76.45,76.45,0,0,1,9.39,31.38,1.8,1.8,0,0,0,.5,1.17C1556.61,148.5,1553.28,153.56,1550.06,158.67Zm19.86-33.09c-2.18,4.47-4.62,8.8-7.19,13.06a80.39,80.39,0,0,0-10.8-31.9,1.94,1.94,0,0,0-.49-.56c.63-2,1.26-4,1.86-6q2.63-8.82,4.71-17.77a54.89,54.89,0,0,1,16.5,29.57,1.68,1.68,0,0,0,.51,1A102,102,0,0,1,1569.92,125.58Zm10.26-36.08a127.69,127.69,0,0,1-3.2,16.8,58.2,58.2,0,0,0-17.61-27.67,1.81,1.81,0,0,0-.43-.29q1.29-6,2.33-12T1563.11,54a43.59,43.59,0,0,1,17.75,24.85,1.82,1.82,0,0,0,.46.82C1581,83,1580.58,86.25,1580.18,89.5Zm2.19-32.69a129,129,0,0,1-.28,14.31,47.53,47.53,0,0,0-18.41-21.19l-.07,0q1.22-10.74,1.63-21.55A32.72,32.72,0,0,1,1578.35,42,33.73,33.73,0,0,1,1582.37,56.81Z" style="fill:#44322b"/><path d="M1033.8,58.55a315.2,315.2,0,0,1-7.94,60.79q-2,8.46-4.39,16.8c-.68,2.33,2.94,3.32,3.62,1a320.19,320.19,0,0,0,11.41-61q.76-8.77,1-17.59C1037.63,56.14,1033.88,56.14,1033.8,58.55Z" style="fill:#44322b"/><path d="M969,166c-2.88-9.68-7.75-18.53-13.09-27.06-4.84-7.74-10.14-15.17-15.61-22.48a2,2,0,0,0-1.24-1.64c-.54-.73-1.09-1.45-1.64-2.18-2.4-3.16-4.84-6.3-7.21-9.49-1.4-1.88-2.61-3.88-4-5.77-4.18-5.76-9.87-10.6-15.41-15-6.88-5.48-14.35-10.66-22.65-13.73-4.09-1.51-8.28-1.76-12.54-2.47-5.38-.89-10.69-2.15-16-3.27-3.69-.77-7.76-1.84-11.56-1.39a5.27,5.27,0,0,0-3.53,1.58,9.84,9.84,0,0,0-1.38,3.34c-2.75,8.07-5.72,16-7.77,24.34-2.42,9.8-2.79,19.8-2.2,29.85a71.65,71.65,0,0,0,2.31,15.34,34.76,34.76,0,0,0,2.46,6.38,36.47,36.47,0,0,0,3.24,4.81,77.87,77.87,0,0,1,6.18,10.65c2.21,4.34,4.26,8.75,6.33,13.16,1.92,4.05,3.82,8.12,6,12.06,1.68,3.08,3.64,6,5.54,8.93,5,7.76,10.06,15.52,15.77,22.79.77,1,1.56,2,2.37,2.92h5c-5-5.2-9.13-11.41-13.12-17.32q-1.49-2.22-3-4.45a99.33,99.33,0,0,0,42.93,7.74,101.29,101.29,0,0,0,13.33-1.52c.73,1,1.44,2,2.18,3q4.64,6.35,9.53,12.5H945q-3.75-4.65-7.36-9.41c-2.15-2.85-4.25-5.75-6.33-8.66a118.18,118.18,0,0,0,22.55-43.33c.9-3.25,1.64-6.54,2.25-9.85,1.93,3.35,3.75,6.76,5.43,10.26,3.66,7.66,5.66,16.1,7.15,24.42.72,4,1.29,8,1.76,12.06a1.62,1.62,0,0,0-.22.57,59.75,59.75,0,0,1-11,23.94h4.65a63.53,63.53,0,0,0,7.51-14.41c.08,1,.16,2,.23,3q.36,5.69.5,11.39h3.74c0-.58,0-1.17,0-1.75C975.29,199.19,973.8,182.05,969,166ZM919.88,95.62a29.65,29.65,0,0,1,3.74,4.55c1.36,2.15,2.86,4.19,4.39,6.22,2.77,3.69,5.58,7.37,8.37,11.08a118.59,118.59,0,0,1-17.88,43.31c-2,3-4.23,6-6.54,8.79-1.93-3.31-3.82-6.64-5.64-10-2.67-4.92-5.22-9.91-7.77-14.89a97.5,97.5,0,0,0,19.63-39.6A94.65,94.65,0,0,0,919.88,95.62ZM899.74,78.89a115.68,115.68,0,0,1,16.77,13.34,93.4,93.4,0,0,1-14.27,41.06,90.53,90.53,0,0,1-5.55,7.77c-1-1.91-2-3.82-3-5.73Q887.13,123,880.14,110.8s0,0,0,0a69.15,69.15,0,0,0,15.28-34.52C896.91,77.1,898.34,78,899.74,78.89ZM849.49,65.16c4,0,8.14,1.11,12.07,2,5.3,1.15,10.59,2.34,16,3.08a56.05,56.05,0,0,1,6.1.92,35,35,0,0,1,5.06,1.7c1.1.46,2.19,1,3.27,1.51a64.84,64.84,0,0,1-13.82,33c-1.29-2.21-2.59-4.42-3.92-6.62C867.14,89,859.72,77.26,850.85,66.79c-.47-.55-1-1.09-1.44-1.63Zm-6.42,12.89c1.15-3.44,2.39-6.85,3.57-10.28l0,0c8.39,9.39,15.28,20.19,21.86,30.87q2.29,3.73,4.52,7.52A83.54,83.54,0,0,1,840.82,85C841.53,82.66,842.3,80.34,843.07,78.05Zm-6.19,27.16a72.18,72.18,0,0,1,2.73-16A87.19,87.19,0,0,0,875.92,111q6.65,11.43,12.87,23.09c1.46,2.72,2.88,5.45,4.3,8.19a125.47,125.47,0,0,1-44.59-24.65,127.49,127.49,0,0,1-11.1-10.83,1.86,1.86,0,0,0-.57-.43C836.85,106,836.86,105.6,836.88,105.21Zm16.76,54.11a1.86,1.86,0,0,0-1.39-.13c-.48-1-1-2-1.48-3a84.14,84.14,0,0,0-6-10.55c-1-1.47-2.2-2.81-3.09-4.38a28.18,28.18,0,0,1-2.42-6c-2.23-7.61-2.64-15.74-2.52-23.72a129.43,129.43,0,0,0,43.73,30.12,126.83,126.83,0,0,0,15,5.24h0c1.56,3,3.11,6,4.68,9.05q4.49,8.58,9.39,16.91A128.79,128.79,0,0,1,853.64,159.32Zm28.72,36.3A92.73,92.73,0,0,1,870,190.81a1.84,1.84,0,0,0-1.2-.16c-.26-.41-.52-.82-.79-1.22-1.82-2.83-3.69-5.62-5.29-8.58-3-5.53-5.58-11.26-8.26-16.94a133.41,133.41,0,0,0,42.56,12,129.24,129.24,0,0,0,13.63.75,1.75,1.75,0,0,0,.94-.25q6.86,11.4,14.46,22.31A95.53,95.53,0,0,1,882.36,195.62ZM935.87,187a112,112,0,0,1-6.82,9.37Q921.09,185,914,173a121.74,121.74,0,0,0,23-42.26c.94-3.05,1.74-6.15,2.43-9.26,4.82,6.5,9.5,13.11,13.76,20A114.67,114.67,0,0,1,935.87,187Z" style="fill:#44322b"/><path d="M805.82,213.26a1.65,1.65,0,0,0-1.08-.31c-1.72-4.6-3.35-9.24-5-13.84q-.83-2.24-1.66-4.49a176.14,176.14,0,0,0,24,10.43,1.59,1.59,0,0,0,1.33-.06l1.1,1.69q3.59,5.49,7.21,11h4.52q-4.58-6.82-9.05-13.73a76.3,76.3,0,0,0,7.13-30.42l2.52,1.88c4.85,3.56,9.67,7.16,14.34,11,0,0,0,.07,0,.11a72.65,72.65,0,0,1-7.59,31.2h4.16a76.55,76.55,0,0,0,7.08-28.29A63.71,63.71,0,0,1,865.14,200a67.75,67.75,0,0,1,7.17,12.78c-.22,1.62-.51,3.24-.85,4.84h6.87c-.7-1.82-1.41-3.63-2.18-5.42v0a1.56,1.56,0,0,0-.63-1.38,78.7,78.7,0,0,0-3.8-7.5c-6.64-11.5-17.41-19.52-27.85-27.34-5.06-3.79-10.12-7.57-15.24-11.26a79,79,0,0,0-16.15-9.28c-7.32-3-15.34-3.44-22.56-6.72-1.2-.54-2.37-1.14-3.54-1.76a1.9,1.9,0,0,0-2.82,1.62c-.72,16.46,5.21,31.94,10.86,47.09,2.73,7.31,5.27,14.71,8.08,22h10.92A78.85,78.85,0,0,1,805.82,213.26Zm7.69-53.32c6.09,2.8,11.63,6.73,17,10.75a72,72,0,0,1-5.82,29.5c-4.55-7-9.13-14-13.93-20.81-.42-.6-.84-1.19-1.27-1.78A43.64,43.64,0,0,0,813.51,159.94ZM797,155.08c3.51.88,7.09,1.49,10.56,2.56.77.23,1.53.49,2.28.77a1.63,1.63,0,0,0,0,.39,39.9,39.9,0,0,1-2.8,15.25,244,244,0,0,0-17.41-21.47A52.78,52.78,0,0,0,797,155.08Zm-7,15.6a83.25,83.25,0,0,1-2.53-14.88,237.49,237.49,0,0,1,16.49,20.43,56.5,56.5,0,0,1-13.64-5.41A2.22,2.22,0,0,0,790,170.68Zm6.11,18.7c-1.69-4.55-3.33-9.14-4.73-13.78a59.41,59.41,0,0,0,14.74,5,2.12,2.12,0,0,0,.94,0c4.62,6.55,9.05,13.25,13.43,20a172.17,172.17,0,0,1-23.89-10.93A2,2,0,0,0,796.08,189.38Z" style="fill:#44322b"/><path d="M1082.08,82c10.48,5.31,18.38,14.52,23,25.25a1.88,1.88,0,0,0,2.56.67,1.93,1.93,0,0,0,.68-2.57c-4.83-11.24-13.34-21-24.33-26.59C1081.82,77.66,1079.92,80.9,1082.08,82Z" style="fill:#44322b"/><path d="M1094.31,116.85a172.83,172.83,0,0,1,12.8,41.53,95.89,95.89,0,0,1,1.2,23.5c-.19,2.41,3.56,2.4,3.76,0,1.18-14.58-1.6-29.39-5.75-43.32a191.61,191.61,0,0,0-16.45-39,102.5,102.5,0,0,0-9.81-14.79,1.9,1.9,0,0,0-2.65,0,1.92,1.92,0,0,0,0,2.66C1084.48,96.09,1089.78,106.62,1094.31,116.85Z" style="fill:#44322b"/><path d="M1240.27,217.64h4.26a108.33,108.33,0,0,0,12.29-61,106.21,106.21,0,0,0-3.33-18.29,1.88,1.88,0,0,0-3.62,1,104.69,104.69,0,0,1-2.25,62A100.29,100.29,0,0,1,1240.27,217.64Z" style="fill:#44322b"/><path d="M1231.24,217.64h3.88a272.33,272.33,0,0,0,9-62.65c.19-7,.09-13.91-.26-20.86-.12-2.4-3.87-2.42-3.75,0a269.3,269.3,0,0,1-6.09,72.28Q1232.75,212.05,1231.24,217.64Z" style="fill:#44322b"/><path d="M1046.28,186.84c.12-10.63.56-21.26,1.43-31.85.62-.84,1.25-1.67,1.85-2.53q1.26-1.82,2.37-3.72c1.56,7,5,13.49,8.89,19.56a89.68,89.68,0,0,0,7.66,10.62,51.76,51.76,0,0,0,9.25,8.3c7.44,5.22,16,7.79,25,8.55,2.57.21,5.14.3,7.72.34,1.83,0,3.92.1,5.41-1.14,2-1.65,3.26-4.41,4.4-6.69a62.61,62.61,0,0,0,5.61-16.27,119.61,119.61,0,0,0,2-23.74,102.66,102.66,0,0,0-3-23.41A130,130,0,0,0,1115.77,99c-3.72-7.67-8.44-14.86-14.93-20.47-6.16-5.33-13.66-9.39-21.77-10.67a37.82,37.82,0,0,0-5.92-.48,13,13,0,0,0-1.27-2.14,23.33,23.33,0,0,0-5.93-5.45,33.36,33.36,0,0,0-3.1-1.85,1.73,1.73,0,0,0,.71-1.43A45.56,45.56,0,0,1,1065,44.08a44.8,44.8,0,0,1,4-9c1,2,2.18,3.87,3.37,5.74a1.74,1.74,0,0,0,.67,1c1,1.52,2,3,3.14,4.47a70.28,70.28,0,0,0,13.53,13.49c5.25,4,10.91,7.49,15.36,12.43a1.89,1.89,0,0,0,3.14-1.82c-1.49-4.26-.33-8.67,1.07-12.78,1.46-4.28,3.2-8.46,4.91-12.64,2.76-6.73,5.5-13.51,7.18-20.59a48.88,48.88,0,0,0,4.6,10.24,33.32,33.32,0,0,0,5.34,6.88,39.12,39.12,0,0,0,7.6,5.47,48.33,48.33,0,0,0,9,4,77.32,77.32,0,0,0,9.15,2c2.2.44,4.21,1.57,6.41,2a5,5,0,0,0,5.57-2.21,49.72,49.72,0,0,0,3.57-6.11,60,60,0,0,1,3.49-5.17,98.45,98.45,0,0,0,6.21-9.44C1187,23.5,1188,13.66,1188.17,4c0-1.35,0-2.7-.08-4h-3.68a82.57,82.57,0,0,1-.87,16,43.94,43.94,0,0,1-3,11.21c-3,6.78-8.24,12.08-11.69,18.55a27.07,27.07,0,0,1-3.42,5.5c-.19.23-.16.21-.32.21a4.82,4.82,0,0,0-.63-.1,21,21,0,0,1-3.56-1.1,27.29,27.29,0,0,0-2.65-.86c-1.3-.31-2.67-.38-4-.64a43.26,43.26,0,0,1-8.9-2.75c-5.92-2.58-11.49-6.25-15.12-11.67a45.25,45.25,0,0,1-6.74-16.93l.67-.42c3.65-2.32,7.38-4.51,11.09-6.74q1.74-1,3.45-2.16a33.56,33.56,0,0,0,5.69,22.5c1.37,2,4.62.1,3.24-1.9a29.86,29.86,0,0,1-5.12-21.21,2.21,2.21,0,0,0-.4-1.73c1.85-1.32,3.66-2.7,5.4-4.17.62-.53,1.2-1.08,1.8-1.62h-5.73c-1.69,1.36-3.43,2.66-5.22,3.87-3.46,2.34-7.09,4.39-10.69,6.52-4.5,2.67-8.74,6-13.79,7.61a14.5,14.5,0,0,1-3,.66,8.84,8.84,0,0,1-1.26,0,5.49,5.49,0,0,1-.58,0H1109l-.19,0c-.33-.07-.66-.16-1-.26a1.56,1.56,0,0,1-.65-.29,8.81,8.81,0,0,1-.77-.47l-.07-.05h0l-.38-.33c-.2-.19-.4-.39-.59-.6l-.43-.51c-.3-.39-.58-.81-.85-1.23a12,12,0,0,1-1.82-3.91c-.85-3.58-.82-7.29-1.16-10.95h-3.78c.22,2.09.32,4.19.51,6.27a25.82,25.82,0,0,0,1.59,8,18.66,18.66,0,0,0,2,3.29,10.47,10.47,0,0,0,7.47,4.78,18.06,18.06,0,0,0,9.62-2.07,103.46,103.46,0,0,1-6,19.24,35.83,35.83,0,0,0-23.67-18.37q-1-4-1.82-8.14-1.31-6.48-2.15-13H1081c.82,6.33,1.93,12.63,3.34,18.85a1.66,1.66,0,0,0-1.09.6,50.54,50.54,0,0,0-9.51,16.32,97.78,97.78,0,0,1-6.94-14.94c-.69-1.87-1.34-3.78-1.93-5.7a1.83,1.83,0,0,0,.48-.62A113.57,113.57,0,0,1,1073.49,0H1069a112.57,112.57,0,0,0-5.54,9.89,44.62,44.62,0,0,1-1-6.39c-.09-1.17-.12-2.33-.12-3.5h-3.73c0,.46,0,.93,0,1.39a1.87,1.87,0,0,0-1.74,1.28l0,.05a1.36,1.36,0,0,1-.1.21c-.13.22-.24.43-.38.64A11.61,11.61,0,0,1,1055.35,5a41.73,41.73,0,0,1-3.15,3.23,89.86,89.86,0,0,1-8.12,6.69c-2.47,1.82-5.17,3.27-7.66,5.06-1.62,1.15-3.29,2.74-5.27,3.22s-3.49-.72-4.7-2a45.13,45.13,0,0,1-3.93-5.3c-1.31-1.86-2.65-3.69-4-5.51-2.63-3.51-5.34-6.95-8.1-10.36h-4.82c.29.36.6.71.89,1.08,3.14,3.83,6.21,7.71,9.17,11.68q2.15,2.88,4.22,5.83a38.81,38.81,0,0,0,4.2,5.5,9.32,9.32,0,0,0,5.87,2.92,8.49,8.49,0,0,0,4.62-1.24,18.29,18.29,0,0,0-6.87,10c-.79,3-1.42,8.3,2.27,9.64a14,14,0,0,0,2.67.52,9.37,9.37,0,0,0,3,.22,3.31,3.31,0,0,0,1.95-1,1.59,1.59,0,0,0,1.2.44c10.75-1.13,15.42,11.21,17.77,19.5A102.28,102.28,0,0,1,1060,96.94a164.81,164.81,0,0,1-4.39,31.72,70.14,70.14,0,0,1-5.12,14.94,73.73,73.73,0,0,1-8.83,13.1q-5.42,6.77-10.88,13.52c-.82,1-1.62,2-2.44,3a7.6,7.6,0,0,1-2.52,2.3c-2.14.93-4.81-.55-6.58-1.67-4-2.49-6.89-6.32-9.38-10.21a94.45,94.45,0,0,1-6.65-12.33,103.54,103.54,0,0,1-8-54.42,99.89,99.89,0,0,1,7-26.7.36.36,0,0,0,0-.09,2.2,2.2,0,0,0,1-1.64c0-.25,0-.5.08-.75a81.2,81.2,0,0,1,5.22-9.79,32.53,32.53,0,0,1,8.85-9.83,18.83,18.83,0,0,1,5.78-2.65c2.33-.62,1.34-4.24-1-3.62-8.26,2.19-13.88,9-18,16.16q.23-5.52,0-11a58.24,58.24,0,0,0-1.11-9.77,35.18,35.18,0,0,0-3.66-9.15A188.34,188.34,0,0,0,980.79,0h-4.73c3.14,3.9,6.22,7.84,9.08,12,3.35,4.83,6.29,9.89,9.23,15a48,48,0,0,1,4.28,8.65,37.89,37.89,0,0,1,1.57,9.4,121.19,121.19,0,0,1-.53,21.8,102.12,102.12,0,0,0-7.17,23,107.71,107.71,0,0,0,5.37,58.5q1.26,3.19,2.72,6.32a1.87,1.87,0,0,0-1,1.52c-1.25,15.12-2.31,30.26-3.56,45.38a112.63,112.63,0,0,1-1.35,11.89c-.26,1.43-.62,2.83-1,4.22h3.91a73.15,73.15,0,0,0,1.84-11.77c.72-7.81,1.28-15.64,1.87-23.47q.87-11.39,1.78-22.79c.42.78.83,1.55,1.27,2.31a51.65,51.65,0,0,0,8.9,12.05c3.44,3.25,9,7.08,13.92,5,2.52-1,4.09-3.5,5.74-5.55l5.8-7.2c1.59-2,3.21-3.94,4.8-5.92a494.48,494.48,0,0,0-.68,52.93c.06,1.46.13,2.91.19,4.37h3.75Q1046.11,202.25,1046.28,186.84Zm48.52-128a87,87,0,0,1-7.48-6,21,21,0,0,1,.63-2.72c.13-.46.29-.91.45-1.36.08-.2.15-.39.23-.58l.2-.46a23.48,23.48,0,0,1,1.36-2.52c.26-.41.52-.8.8-1.19l.3-.4.3-.36a193.86,193.86,0,0,0,8.35,19.31C1098.24,61.35,1096.51,60.12,1094.8,58.88ZM1109.44,42a1.55,1.55,0,0,0,1.58.94c-.26.63-.52,1.26-.77,1.89-1.75,4.25-3.52,8.51-4.93,12.88a34.9,34.9,0,0,0-1.22,4.86,190.76,190.76,0,0,1-14.3-37.22A32.25,32.25,0,0,1,1109.44,42Zm-24.17-19.15q1.88,7.51,4.34,14.88c.25.76.52,1.51.78,2.27a1.59,1.59,0,0,0-1.35.53,24.51,24.51,0,0,0-4.89,9.34c-.53-.55-1.06-1.11-1.57-1.69a69.22,69.22,0,0,1-6.26-8.21A46,46,0,0,1,1085.27,22.85Zm28.11,169.29-.07,0,.07-.05ZM1057.25,55.61c-.24-.55-.48-1.09-.74-1.63-2.25-4.66-5.68-8.89-10.52-11a14.5,14.5,0,0,0-6.9-1.22,12.15,12.15,0,0,1,6.19-7.57c2.15-1.1.26-4.34-1.89-3.24a15.82,15.82,0,0,0-6.36,6,15.58,15.58,0,0,0-1.67,4.1,4.68,4.68,0,0,1-.38,1.4h-.15l-1-.13c-.75-.12-1.52-.21-2.26-.38s-.53-.29-.58-.95a12.5,12.5,0,0,1,.23-3.71,14.37,14.37,0,0,1,3.46-6.6,13.45,13.45,0,0,1,7.36-4.18,1.9,1.9,0,0,0,1.31-2.31,1.92,1.92,0,0,0-2.31-1.31,15.64,15.64,0,0,0-4.68,1.74c1.52-1.07,3-2.16,4.61-3.11,1.23-.73,2.42-1.54,3.6-2.37a100.07,100.07,0,0,0,9.88-7.91,33.62,33.62,0,0,0,4.68-4.91,60.1,60.1,0,0,0,2.13,9.72A107.45,107.45,0,0,0,1067,31a56.16,56.16,0,0,0-5.58,12.06,49.76,49.76,0,0,0-1.61,13.37c-.66-.27-1.33-.54-2-.77A1.68,1.68,0,0,0,1057.25,55.61Zm1.77,4.58a27.24,27.24,0,0,1,8.51,5.68c1.32,1.35,2.81,3.27,2.82,5.28a2,2,0,0,1-.95,1.81c-.58.31-1.39-.4-1.93-.91a28.38,28.38,0,0,0-6.37-4.74l0,0C1060.48,64.91,1059.81,62.52,1059,60.19Zm-2,77.22c.36-1,.68-2.12,1-3.19a87.39,87.39,0,0,0,23.43,39.83c1.73,1.69,4.39-1,2.66-2.65a83.32,83.32,0,0,1-23.59-42.91,1.6,1.6,0,0,0-.77-1.14c.47-2.17.89-4.35,1.28-6.53,1-5.65,1.81-11.35,2.29-17.07a118.11,118.11,0,0,0-1.24-31.42l.51.38c1,.85,1.93,1.82,3,2.66a5.25,5.25,0,0,0,4.66,1.28,5.34,5.34,0,0,0,3.22-2.67,6,6,0,0,0,.66-2.84c15.35.44,28.13,11.34,35.5,24.18a109.57,109.57,0,0,1,9.83,23.75,105.84,105.84,0,0,1,4.43,22.5,122.55,122.55,0,0,1-.63,22.9,63.41,63.41,0,0,1-4.06,17.13,73,73,0,0,1-3.44,7.15,18.41,18.41,0,0,1-1.83,2.85c-.15.18-.33.33-.48.5l-.31.13a7.56,7.56,0,0,1-.85.12c-.61.05-1.24,0-1.85,0-8.81-.14-17.58-1.05-25.5-5.18a47.78,47.78,0,0,1-17.15-15.27c-4.8-6.95-9.68-14.22-11.85-22.49a33.5,33.5,0,0,1-1-6.14c0-.08,0-.14,0-.22C1055.66,141.22,1056.4,139.34,1057,137.41Z" style="fill:#44322b"/><path d="M1224.65,150.76a103.28,103.28,0,0,1,10.68-18.7c1.41-2-1.84-3.85-3.24-1.9a105.06,105.06,0,0,0-18.4,76.48,102.66,102.66,0,0,0,2.27,11h3.91A101.18,101.18,0,0,1,1224.65,150.76Z" style="fill:#44322b"/><path d="M1088.94,150.91c-8.27-14.51-14.21-30.11-16.09-46.78A137.46,137.46,0,0,1,1072,89c0-2.41-3.76-2.42-3.76,0a128.72,128.72,0,0,0,2.67,26.7,117.86,117.86,0,0,0,7.9,23.8c2.05,4.57,4.37,9,6.84,13.36C1086.89,154.91,1090.14,153,1088.94,150.91Z" style="fill:#44322b"/><path d="M1022.66,56.65c1.19-2.11-2-4-3.24-1.89A127.42,127.42,0,0,0,1006,144.55c.52,2.36,4.14,1.37,3.62-1a124.64,124.64,0,0,1,4.86-69.13A121.36,121.36,0,0,1,1022.66,56.65Z" style="fill:#44322b"/><path d="M1377.93,63.24a104.31,104.31,0,0,0-3.15-34.33A111.76,111.76,0,0,0,1363.29,0h-4.36a97.28,97.28,0,0,1,6,11.5,114.19,114.19,0,0,1,9,33.33,92.1,92.1,0,0,1,.29,18.41C1374,65.65,1377.71,65.63,1377.93,63.24Z" style="fill:#44322b"/><path d="M1032,146.8c-1.2,2.1,2,4,3.25,1.89a122.09,122.09,0,0,0,13.71-85c-.48-2.37-4.1-1.37-3.62,1a119.2,119.2,0,0,1-5.35,65.17A115.12,115.12,0,0,1,1032,146.8Z" style="fill:#44322b"/></svg>