<svg id="Layer_1" data-name="Layer 1" xmlns="http://www.w3.org/2000/svg" viewBox="0 0 345.29 260.94"><path d="M-71.64,126.14l23.84-82c.88-3,1.57-6.17,3.08-8.94,1.13-2.08,2.76-4.08,5.33-4,1.92.06,1.92-2.93,0-3-5.34-.16-8.18,5.19-9.64,9.57-2.28,6.79-4,13.8-6,20.67l-12.48,42.94-7,24c-.54,1.84,2.34,2.63,2.88.79Z" transform="translate(74.59 92.06)" style="fill:#c9b1ac"/><path d="M-42,28.91c-2-8.44,5.8-14.72,12.26-18.36,8.08-4.55,16.42-8.7,24.63-13,7.39-3.9,15.32-9,24-6A33.11,33.11,0,0,1,29-2.18a70.78,70.78,0,0,1,8.81,8.76c5.91,7.14,9.92,16.58,7.74,25.93-.44,1.86,2.44,2.66,2.87.79,2.09-8.92-.76-18.12-5.92-25.47A61.76,61.76,0,0,0,33.31-2.33,47.88,47.88,0,0,0,22.78-10a20.56,20.56,0,0,0-12.55-2.2C5.62-11.52,1.4-9.29-2.68-7.14-11.83-2.32-21,2.39-30.13,7.35c-4.29,2.34-8.54,5.06-11.52,9a16.27,16.27,0,0,0-3.24,13.34c.44,1.87,3.32,1.08,2.88-.8Z" transform="translate(74.59 92.06)" style="fill:#c9b1ac"/><path d="M-16.47,24.12l26.32,4.3c8.54,1.39,17.19,2.51,25.66,4.25,3.7.76,7.37,1.91,10.32,4.36a38.14,38.14,0,0,1,7.08,8.57c4.08,6.18,8.44,13.15,8.28,20.84-.13,6.34-4.61,13.71-11.54,13.9-1.92,0-1.93,3,0,3,6.81-.19,11.91-5.74,13.75-12,2.27-7.63-.85-15.56-4.68-22.12S50.23,35,42.83,31.76c-3.89-1.68-8.1-2.28-12.25-3L16.31,26.46l-32-5.22c-1.88-.31-2.68,2.57-.79,2.88Z" transform="translate(74.59 92.06)" style="fill:#c9b1ac"/><path d="M-7.56,53.28l20,4.07c6.31,1.28,12.68,2.4,19,3.9,5,1.21,10.23,3.14,13,7.82,2.6,4.41,2.75,10,1.75,14.85C45,89.64,41.49,96.7,34.57,96c-1.91-.19-1.9,2.8,0,3,6.42.63,11.21-4.56,13.28-10.1a27.74,27.74,0,0,0,.89-17.29C47,65.94,42.85,62.1,37.42,60a50.33,50.33,0,0,0-8.27-2.26c-3.67-.76-7.34-1.49-11-2.24L-6.77,50.4c-1.87-.38-2.68,2.5-.79,2.88Z" transform="translate(74.59 92.06)" style="fill:#c9b1ac"/><path d="M-8.89,78.46l22.73,5.82L25,87.14c2.75.71,5.89,1.54,7,4.49,2.09,5.5-2.51,11.28-7,13.82a16.42,16.42,0,0,1-8.62,2.09c-3.54-.12-7-1.16-10.53-1.22a17.49,17.49,0,0,0-15.91,9.81c-.83,1.73,1.75,3.24,2.57,1.51a14.67,14.67,0,0,1,6.12-6.54,15.36,15.36,0,0,1,9.51-1.63c3.57.4,7.09,1.35,10.7,1a19.72,19.72,0,0,0,9-3.23c4.85-3.3,8.57-9,7.43-15.11a9,9,0,0,0-5.54-6.61c-3.35-1.45-7.13-2.08-10.66-3L-8.1,75.58a1.49,1.49,0,0,0-.79,2.88Z" transform="translate(74.59 92.06)" style="fill:#c9b1ac"/><path d="M-6.52,113.1c-.47,7.75-.88,16-4.5,23-2.92,5.7-7.91,10.51-14.41,11.54-1.89.3-1.09,3.18.79,2.88,7.07-1.12,12.77-6.42,16-12.58,4-7.61,4.57-16.45,5.07-24.87.12-1.92-2.87-1.91-3,0Z" transform="translate(74.59 92.06)" style="fill:#c9b1ac"/><path d="M-22.42,148.7A36.15,36.15,0,0,0-26,167.45c.16,1.9,3.15,1.92,3,0a33.07,33.07,0,0,1,3.14-17.24c.84-1.72-1.74-3.24-2.58-1.51Z" transform="translate(74.59 92.06)" style="fill:#c9b1ac"/><path d="M12.41,56.89A25.07,25.07,0,0,1,5.57,78.74a1.49,1.49,0,0,0,2.11,2.11A28.18,28.18,0,0,0,15.29,56.1c-.35-1.89-3.23-1.09-2.88.79Z" transform="translate(74.59 92.06)" style="fill:#c9b1ac"/><path d="M20.28,58.51a32.87,32.87,0,0,1-5,22.43c-1.05,1.62,1.54,3.12,2.58,1.51a36.08,36.08,0,0,0,5.34-24.73,1.5,1.5,0,0,0-1.84-1,1.52,1.52,0,0,0-1,1.83Z" transform="translate(74.59 92.06)" style="fill:#c9b1ac"/><path d="M4.91,26.1a27.29,27.29,0,0,0,17-8.83c1.28-1.43-.83-3.54-2.11-2.11a24.25,24.25,0,0,1-14.9,8,1.53,1.53,0,0,0-1.49,1.49A1.49,1.49,0,0,0,4.91,26.1Z" transform="translate(74.59 92.06)" style="fill:#c9b1ac"/><path d="M19.42,20.07l6.78,8.78a1.5,1.5,0,0,0,2.11,0,1.53,1.53,0,0,0,0-2.11L21.53,18a1.5,1.5,0,0,0-2.11,0,1.54,1.54,0,0,0,0,2.11Z" transform="translate(74.59 92.06)" style="fill:#c9b1ac"/><path d="M26-7.27a18.31,18.31,0,0,1,19.5,9.48C46.4,3.92,49,2.41,48.1.7A21.36,21.36,0,0,0,25.22-10.15c-1.88.38-1.08,3.26.8,2.88Z" transform="translate(74.59 92.06)" style="fill:#c9b1ac"/><path d="M46.39,27.94A50.21,50.21,0,0,0,62,53.74a76.88,76.88,0,0,0,29.45,16,76.81,76.81,0,0,0,20.67,2.84,1.5,1.5,0,0,0,0-3,72.94,72.94,0,0,1-33.4-8.09C70,56.94,61.46,50.73,55.9,42.45a48.66,48.66,0,0,1-6.63-15.31c-.47-1.86-3.35-1.07-2.88.8Z" transform="translate(74.59 92.06)" style="fill:#c9b1ac"/><path d="M75.5,64.26A52.25,52.25,0,0,0,91.82,74.4a63.36,63.36,0,0,0,23.24,3.75,1.49,1.49,0,0,0,0-3,61.24,61.24,0,0,1-22.13-3.53,48.17,48.17,0,0,1-15.32-9.49c-1.42-1.28-3.54.82-2.11,2.11Z" transform="translate(74.59 92.06)" style="fill:#c9b1ac"/><path d="M33.46-9.67c3.46-5.52,6.93-11.08,11.35-15.89,1.93-2.1,4.15-4.29,7-5,2.26-.58,5,0,6.19,2.18a1.5,1.5,0,0,0,2.58-1.51,8.08,8.08,0,0,0-7.33-3.85c-3.41.07-6.39,2-8.79,4.29-5.52,5.21-9.58,11.91-13.58,18.29-1,1.63,1.56,3.13,2.58,1.51Z" transform="translate(74.59 92.06)" style="fill:#c9b1ac"/><path d="M198-12.92c0-2.19.56-4.67-.22-6.77-.6-1.63-1.93-2.3-3.44-2.89a54.35,54.35,0,0,0-5.71-1.86,140.6,140.6,0,0,0-15.22-3.12,404.8,404.8,0,0,0-41-4c-14.53-.78-29.09-1.08-43.63-.72-11.19.27-22.59.7-33.61,2.8-3.06.59-6.37,1.26-9.08,2.86a5.79,5.79,0,0,0-2.29,2.18,3.91,3.91,0,0,0-.39,1.81c-.09,3.25,0,6.52,0,9.78s0,6.35-.05,9.53a1.49,1.49,0,0,0,3,0c0-6.36.1-12.71.08-19.07q0-.33,0-.66c0,.16-.12.37,0,.14.21-.45-.21.18.06-.16.05-.07.09-.16.15-.23s-.29.31-.06.08l.45-.44c.27-.25-.28.19,0,0l.28-.18.69-.41.78-.37c.38-.17-.2.08.13-.05l.53-.21a36.23,36.23,0,0,1,4.58-1.3c9.93-2.21,20.37-2.62,30.6-3,14-.48,28-.31,41.91.31,13.57.59,27.14,1.57,40.6,3.39,5.44.73,10.86,1.61,16.22,2.81,2.16.49,4.31,1,6.43,1.67.92.28,1.83.58,2.74.91s1.83.49,2.29,1.1a3.88,3.88,0,0,1,.35,2.31c0,1.26-.14,2.5-.15,3.76a1.49,1.49,0,0,0,3,0Z" transform="translate(74.59 92.06)" style="fill:#c9b1ac"/><path d="M50.77-19.31a373.18,373.18,0,0,0,54.71,8.73,344.15,344.15,0,0,0,55.05.35A289.65,289.65,0,0,0,190.17-14c1.89-.35,1.09-3.22-.79-2.88a300,300,0,0,1-52.84,4.62,361.43,361.43,0,0,1-54.79-4.07q-15.21-2.29-30.19-5.84c-1.86-.44-2.66,2.43-.79,2.88Z" transform="translate(74.59 92.06)" style="fill:#c9b1ac"/><path d="M-35.44,54.12A15.8,15.8,0,0,0-46.57,71.25a1.51,1.51,0,0,0,1.84,1,1.54,1.54,0,0,0,1-1.84c-.8-5.87,3.41-11.91,9-13.46a1.5,1.5,0,0,0-.8-2.88Z" transform="translate(74.59 92.06)" style="fill:#c9b1ac"/><path d="M-27,78.29a11.21,11.21,0,0,0-9.13,11.76,1.53,1.53,0,0,0,1.49,1.49,1.5,1.5,0,0,0,1.5-1.49,7.86,7.86,0,0,1,1.71-5.8l.15-.19c.1-.11.19-.22.29-.32s.4-.42.61-.62l.33-.28s.36-.28.15-.12c.23-.17.46-.34.71-.49s.49-.28.75-.41.26-.13.39-.18c-.23.1.13,0,.18-.06a8.69,8.69,0,0,1,1.67-.42,1.49,1.49,0,0,0,1-1.83,1.53,1.53,0,0,0-1.84-1Z" transform="translate(74.59 92.06)" style="fill:#c9b1ac"/><path d="M219.58,15.65c1.77-4.51,3.58-9.22,3.52-14.15C223-2.65,221.65-7,218.44-9.82s-7.73-3.69-12-3.79a86.85,86.85,0,0,0-15.36,1.18,68.18,68.18,0,0,0-14.26,3.36C173.58-7.81,170-5.69,169.29-2c-1,5.39,1.92,10.94,6.37,13.86,3.76,2.46,8.44,3.31,12.8,4.08,2.79.5,5.61.92,8.43,1.24,1.91.22,1.89-2.77,0-3A76.92,76.92,0,0,1,181,11.17c-5-1.67-8.65-5.45-8.87-10.79a5.45,5.45,0,0,1,.53-3,8.08,8.08,0,0,1,3.42-2.86c3.57-1.84,7.85-2.58,11.76-3.34a95.4,95.4,0,0,1,14.1-1.7c3.89-.18,8.11-.33,11.76,1.24,4,1.73,6.08,5.65,6.36,9.86.32,5-1.6,9.76-3.38,14.31-.7,1.79,2.18,2.57,2.88.79Z" transform="translate(74.59 92.06)" style="fill:#c9b1ac"/><path d="M203.19,45.57c-10.06-4.66-21.81-5.14-32.7-5.74-5.71-.31-11.42-.51-17.1-1-4.27-.39-8.8-.85-12.8-2.5a4.91,4.91,0,0,1-3.05-3.61,10.33,10.33,0,0,1,.18-6.34c.66-1.66,1.75-2.12,3.33-2.58a55.19,55.19,0,0,1,5.67-1.26c11-2,22.28-2.72,33.42-3.72,5.31-.48,10.62-1.13,15.94-1.51,6.17-.44,12.95-.47,18.54,2.56a17,17,0,0,1,3.77,2.77c1.38,1.34,3.49-.77,2.11-2.11-9.52-9.22-24.27-6.18-36.11-5.08s-23.71,1.93-35.45,3.72c-2.28.35-4.56.74-6.81,1.27a13,13,0,0,0-5.06,1.88c-3.7,2.88-3.53,9.35-1.65,13.19s6.93,4.72,10.76,5.39a141.19,141.19,0,0,0,16.56,1.55c11.77.62,24.17.58,35.47,4.36a35.72,35.72,0,0,1,3.47,1.37c1.74.8,3.25-1.77,1.51-2.58Z" transform="translate(74.59 92.06)" style="fill:#c9b1ac"/><path d="M220.33,72.84c-15.8,1.83-31.66,2.59-47.49,4-6.74.61-13.46,1.34-20.16,2.36-6.35,1-12.7,2-19.1,2.65a32.43,32.43,0,0,1-7.87.34,13.76,13.76,0,0,1-9.62-6.77c-1.72-3.06-1.83-7.42.53-10.19,2.94-3.45,8.18-3.6,12.33-4,7.56-.77,15.16-.81,22.71-1.52,9.14-.86,18.08-3,27-5.06,9.63-2.18,19.28-4.44,29.08-5.73,2.12-.27,4.29-.34,6.4-.71a12,12,0,0,0,4.35-1.85,30.8,30.8,0,0,0,6.63-6c.42-.49.82-1,1.2-1.49,1.16-1.54-1.43-3-2.58-1.51-.11.16.11-.13.12-.15l-.24.31-.94,1.11a36.27,36.27,0,0,1-3.07,3.13,18,18,0,0,1-4.07,2.86c-1.66.82-3.45.82-5.26,1-9.92,1.1-19.68,3.27-29.41,5.46-9.32,2.1-18.67,4.55-28.2,5.53-7.67.8-15.4.81-23.07,1.56-4.51.44-9.5.64-13.31,3.4a11,11,0,0,0-4.4,10c.72,7.93,8.44,13.89,16.19,13.67,6.27-.18,12.56-1.27,18.75-2.18s12-1.82,18.09-2.47c16-1.71,32-2.37,48-4,2.47-.25,4.93-.52,7.4-.81,1.88-.22,1.9-3.21,0-3Z" transform="translate(74.59 92.06)" style="fill:#c9b1ac"/><path d="M123.23,86.08c3.4,4.74,8.59,7.67,14,9.65a60.23,60.23,0,0,0,18,3.47c3.61.16,7.24,0,10.85.13s7.3.29,10.94.57c6.38.5,12.72,1.28,19.07,2,7.28.86,14.57,1.57,21.89,1.82,1.92.06,1.92-2.92,0-3-12.47-.41-24.77-2.37-37.17-3.52q-10.81-1-21.68-1a63.62,63.62,0,0,1-17.31-2.19c-5.9-1.64-12.32-4.37-16-9.5-1.11-1.55-3.71-.06-2.58,1.5Z" transform="translate(74.59 92.06)" style="fill:#c9b1ac"/><path d="M202.11,103.64c2.16,8.14,6,16.16,12.35,21.84s14.75,8.61,23.09,7c1.89-.36,1.09-3.24-.79-2.88-7.52,1.43-15.33-1.64-20.79-6.79-5.65-5.34-9-12.56-11-20a1.49,1.49,0,0,0-2.88.79Z" transform="translate(74.59 92.06)" style="fill:#c9b1ac"/><path d="M211.26,124.37a102.42,102.42,0,0,1-1.11,27.53c-.33,1.88,2.54,2.68,2.88.79a105,105,0,0,0,1.21-28.32c-.18-1.89-3.16-1.91-3,0Z" transform="translate(74.59 92.06)" style="fill:#c9b1ac"/><path d="M220,11c13.09,24,29,46.38,40.53,71.21q2.16,4.68,4.09,9.47a38.55,38.55,0,0,1,2.86,9.67c.7,6.11-.49,12.17-1.2,18.22a58.66,58.66,0,0,0,0,9.74q.28,5.94.56,11.88.45,9.76.88,19.53c.09,1.91,3.07,1.92,3,0q-.37-8.37-.76-16.73l-.57-12.4c-.14-3-.49-6.12-.35-9.15.29-5.79,1.71-11.45,1.68-17.28a31.83,31.83,0,0,0-1.44-9.69c-1.07-3.22-2.44-6.36-3.77-9.47-5.41-12.6-12.13-24.59-19.14-36.37-7.95-13.35-16.3-26.48-23.75-40.13-.92-1.69-3.5-.18-2.58,1.5Z" transform="translate(74.59 92.06)" style="fill:#c9b1ac"/><path d="M191.32-8.78c0,.06.25.55.12.25.08.19.15.38.22.57.21.62.4,1.25.57,1.88a42.74,42.74,0,0,1,1,4.21c.09.53.17,1.06.22,1.59,0,.3,0,.59,0,.88s.08.72,0,.43a1,1,0,0,1-.05.2c.06,0,.19-.26,0-.07.15-.15,0,0-.15.14a1.19,1.19,0,0,1-.23.17c-.25.16-.5.31-.76.45a27.68,27.68,0,0,1-7.54,2.47,17.62,17.62,0,0,1-3.23.41c-.24,0-.48,0-.72,0s.18.06-.17,0,.2.23-.24-.14a8.51,8.51,0,0,1-.76-.71c-2.14-2.27-3.14-5.61-3.94-8.56a1.5,1.5,0,0,0-2.88.8,25.2,25.2,0,0,0,4.15,9.21,5.55,5.55,0,0,0,3.6,2.4,14.51,14.51,0,0,0,3.72-.24,32.7,32.7,0,0,0,9-2.72A6.43,6.43,0,0,0,196,2.71a5.36,5.36,0,0,0,.39-3.38,39.24,39.24,0,0,0-1.07-5.56,17.71,17.71,0,0,0-1.39-4.06c-.92-1.68-3.5-.17-2.57,1.51Z" transform="translate(74.59 92.06)" style="fill:#c9b1ac"/><path d="M139.1,22.34c-.86,3.46-1,7.6.57,10.88a5,5,0,0,0,3,2.81,17.51,17.51,0,0,0,4,.6,46.28,46.28,0,0,0,9.7-.39,7.93,7.93,0,0,0,3-.83c1.2-.74,1.47-2.3,1.62-3.58a28,28,0,0,0,0-5.86,27,27,0,0,0-.81-5.21c-.54-1.84-3.42-1.06-2.88.79A28.33,28.33,0,0,1,158.1,30a17.79,17.79,0,0,1-.14,1.84,6.08,6.08,0,0,1-.16.74c0,.13-.08.26-.13.38.1-.23,0-.06,0,.05s.29-.26.12-.14.29-.06-.1,0-.88.24-1.33.32a29.06,29.06,0,0,1-3.58.39c-1.45.09-2.9.12-4.34.08q-1,0-2.07-.09l-.86-.08c-.34,0-.31,0-.7-.1a13.54,13.54,0,0,1-1.4-.33c-.41-.11.13.1-.19-.08L143,32.9c.45.29,0-.08-.14-.22a8.43,8.43,0,0,1-1.3-4.8,17.09,17.09,0,0,1,.47-4.74c.47-1.87-2.41-2.66-2.88-.8Z" transform="translate(74.59 92.06)" style="fill:#c9b1ac"/><path d="M116.51,67.36l12.11-1.15c1.6-.15,3.48-.57,5.08-.16s1.89,1.85,2.07,3.25.54,3.53-.42,4.75-2.56,1.35-3.83,1.61c-4.07.85-8.14,1.67-12.21,2.5-1.88.38-1.08,3.26.8,2.88l11.18-2.29c3-.61,6.21-1.34,7.3-4.58a11.11,11.11,0,0,0,.2-4.56,9.31,9.31,0,0,0-1.2-4.26c-1.9-2.87-5.39-2.47-8.37-2.18l-12.71,1.21c-1.9.18-1.91,3.17,0,3Z" transform="translate(74.59 92.06)" style="fill:#c9b1ac"/><path d="M211.52,23.6a11.08,11.08,0,0,1-2.08,11.54c-1.31,1.41.8,3.53,2.11,2.12a14.06,14.06,0,0,0,2.85-14.45,1.54,1.54,0,0,0-1.84-1,1.51,1.51,0,0,0-1,1.84Z" transform="translate(74.59 92.06)" style="fill:#c9b1ac"/><path d="M125.41-40.21c4.48-4.17,3.34-11.12.58-15.93-3.15-5.48-9-9.42-10.65-15.78a14,14,0,0,1,6.47-15.39c5.22-2.93,12.4-2.24,16.54,2.24,2.16,2.35,3.6,6.09,2,9.11-1.3,2.41-4.47,4.36-7.19,3.09l-.35,2.73a7,7,0,0,1,8.54,5.27c.67,4.06-3.19,7.79-7.12,7.6A1.51,1.51,0,0,0,132.91-55a6.58,6.58,0,0,1-.53,7.12c-1.17,1.49.92,3.62,2.11,2.11a9.66,9.66,0,0,0,1-10.74l-1.29,2.24c5.77.29,11-5.28,10.05-11.05-.88-5.49-7-9.19-12.27-7.68-1.14.33-1.56,2.17-.35,2.73,6.27,2.93,13-3.12,12.3-9.61-.82-7.33-8-12-15-12.16a16.63,16.63,0,0,0-15.9,10.76,17.09,17.09,0,0,0-.66,10c.86,3.58,3,6.61,5.34,9.4,2.52,3.06,5.47,6,6.84,9.8,1.17,3.27,1.44,7.22-1.31,9.78-1.4,1.31.71,3.42,2.12,2.11Z" transform="translate(74.59 92.06)" style="fill:#c9b1ac"/><path d="M101.54-84.5C96-80.32,96.46-72.74,99.48-67.17c3.53,6.49,10.3,11.33,11.58,19,.32,1.89,3.19,1.09,2.88-.79-1.16-6.9-6.53-11.64-10.32-17.14-1.74-2.54-3.26-5.39-3.4-8.53-.12-2.65.62-5.57,2.83-7.25,1.51-1.14,0-3.74-1.51-2.57Z" transform="translate(74.59 92.06)" style="fill:#c9b1ac"/><path d="M252.67,67.45a7.68,7.68,0,0,0-3.2,7.72,7.16,7.16,0,0,0,5.7,5.61,7.56,7.56,0,0,0,5-.65,1.49,1.49,0,0,0-1.51-2.58l-.24.12c.16-.06.15-.06,0,0l-.5.16a4.82,4.82,0,0,1-.52.11c.35-.06-.19,0-.26,0a7.22,7.22,0,0,1-.93,0c-.17,0-.17,0,0,0l-.27,0-.51-.13c-.15,0-.3-.1-.44-.15s-.09,0,.05,0l-.25-.11a7,7,0,0,1-.9-.55c.25.18-.17-.14-.21-.18a3.83,3.83,0,0,1-.29-.28s-.37-.46-.19-.2a5,5,0,0,1-.29-.45c-.09-.15-.17-.31-.25-.47.14.3-.06-.2-.08-.26s-.08-.25-.11-.38-.11-.61-.06-.25a6.26,6.26,0,0,1,0-1.06,2.8,2.8,0,0,1,0-.4c0,.36,0-.19.06-.26a6.22,6.22,0,0,1,.32-1c-.13.3.1-.19.13-.24s.13-.23.2-.35.34-.49.14-.23c.11-.14.23-.27.35-.4s.26-.24.39-.36.13-.12,0,0l.22-.15a1.53,1.53,0,0,0,.53-2,1.51,1.51,0,0,0-2-.54Z" transform="translate(74.59 92.06)" style="fill:#c9b1ac"/><path d="M249.45,56.25a8.77,8.77,0,0,0-6.6-1.75,5.33,5.33,0,0,0-4.14,4.69c-.83,5.74,4.32,9.17,8.73,11.46L249,68.07c-3.12-1.4-6.56-2.89-10-2-2.78.73-5.35,3.07-5.37,6.11s2.41,5.43,5.13,6.37c3.49,1.2,7.21-.23,10.42-1.57l-.79-2.88a39.62,39.62,0,0,0-9.68,5.75c-2.49,2-5.41,4.8-5.37,8.3s3.54,5.06,6.68,4.63a18.84,18.84,0,0,0,8.75-3.88,21,21,0,0,0,6.61-8.65c.7-1.66-1.83-2.41-2.73-1.15A35.09,35.09,0,0,0,247.93,89c-.91,3-2.11,7.61.4,10.15,2.32,2.36,6.36,1.39,8.37-.84,2.31-2.56,3.21-6.22,3.72-9.53a37.52,37.52,0,0,0,.44-10c-.23-1.86-3.11-2-3,0,.43,6.69-.57,19.84,8.74,20.75,1.92.19,1.9-2.8,0-3-3.23-.32-4.3-3.83-4.84-6.54-.72-3.69-.68-7.49-.91-11.23h-3a33.61,33.61,0,0,1-.08,7.16,23.85,23.85,0,0,1-2.08,8.51c-.93,1.83-2.81,3.86-4.91,2.84-.73-.36-.91-1.35-.93-2.36a16,16,0,0,1,.78-4.61,32.14,32.14,0,0,1,4.49-9.75l-2.73-1.15a17.62,17.62,0,0,1-5.82,7.3c-2.23,1.64-5.68,3.55-8.57,3.12-1.65-.25-2.07-1.59-1.53-3a10.48,10.48,0,0,1,3.1-3.92,34.62,34.62,0,0,1,9.5-6,1.56,1.56,0,0,0,1-1.84,1.51,1.51,0,0,0-1.84-1c-2.37,1-5,2.17-7.63,1.86-1.77-.22-3.92-1.5-4.14-3.45s1.83-3.3,3.51-3.64c2.52-.5,5.17.76,7.4,1.76,1.72.77,3.24-1.68,1.51-2.58-3-1.57-7-3.55-7.33-7.41-.12-1.43.42-3.07,2-3.28A6.34,6.34,0,0,1,248,58.82c1.56,1.13,3.05-1.46,1.5-2.57Z" transform="translate(74.59 92.06)" style="fill:#c9b1ac"/><path d="M248.18,152.11a45.16,45.16,0,0,0,3.19-7c.72-2,1.34-4,2.18-5.89l-2.72-.36c.41,1.86.65,3.76,1.15,5.6a29.67,29.67,0,0,0,3.45,7.66l2-2c-4.41-2.5-8.27-5.87-12.68-8.37l-.75,2.78,13.76.09-.4-2.93a13,13,0,0,0-5.84,3,38.4,38.4,0,0,0-5.72,5.68,1.53,1.53,0,0,0,0,2.11,1.51,1.51,0,0,0,2.11,0,39.22,39.22,0,0,1,5.37-5.41,10.59,10.59,0,0,1,4.88-2.49,1.47,1.47,0,0,0,1.07-1.63,1.51,1.51,0,0,0-1.47-1.3L244,141.5a1.5,1.5,0,0,0-.76,2.78c4.41,2.49,8.27,5.87,12.68,8.36a1.51,1.51,0,0,0,2-2,26.28,26.28,0,0,1-3.19-7.11c-.48-1.79-.71-3.63-1.11-5.43-.27-1.18-2.21-1.55-2.73-.36-1.88,4.29-3,8.82-5.38,12.9a1.5,1.5,0,0,0,2.58,1.51Z" transform="translate(74.59 92.06)" style="fill:#c9b1ac"/><path d="M-2,27A33.16,33.16,0,0,1-3.46,50.67c-.8,1.73,1.77,3.25,2.57,1.5A36.25,36.25,0,0,0,.88,26.22c-.57-1.83-3.45-1-2.88.79Z" transform="translate(74.59 92.06)" style="fill:#c9b1ac"/><path d="M12.49,29a26.69,26.69,0,0,1,.17,24.86c-.89,1.7,1.69,3.21,2.58,1.51a29.84,29.84,0,0,0-.17-27.87c-.92-1.69-3.49-.19-2.58,1.5Z" transform="translate(74.59 92.06)" style="fill:#c9b1ac"/><path d="M2.74,38.68A13.79,13.79,0,0,1,15.6,39.8c1.62,1,3.12-1.54,1.51-2.58A16.87,16.87,0,0,0,1.23,36.1a1.49,1.49,0,0,0-.53,2,1.53,1.53,0,0,0,2,.54Z" transform="translate(74.59 92.06)" style="fill:#c9b1ac"/><path d="M1.34,41.76a12,12,0,0,0,8.09,3.18,12.05,12.05,0,0,0,8.06-3.26c1.41-1.31-.7-3.41-2.11-2.11a8.87,8.87,0,0,1-11.93.08C2,38.36-.09,40.47,1.34,41.76Z" transform="translate(74.59 92.06)" style="fill:#c9b1ac"/></svg>